<svg xmlns="http://www.w3.org/2000/svg" viewBox="0 0 91 88"><path d="M8.7 7.5h6.6V5.9c.1-2.3 1.3-4 3.4-4.6 2-.6 4 0 5.4 1.7.1.1.2.2.3.4 1-1.5 2.4-2.4 4.2-2.4 1.8 0 3.2.8 4.3 2.4 1-1.5 2.4-2.4 4.2-2.4 1.8 0 3.2.8 4.2 2.3 2.4-3.3 6.4-3 8.6 0 2-2.9 6-3.3 8.5 0 1-1.5 2.4-2.4 4.3-2.3 1.8 0 3.2.9 4.2 2.4 1.4-2 3.3-2.9 5.6-2.2 3 .9 3.7 3.3 3.5 6.2 4.7.3 8.5 2.2 11.3 5.9 2.2 2.9 3.1 6.3 2.9 10-.4 5.6-4.8 12.7-14.1 13.4V51c4.8.3 8.7 2.3 11.5 6.3 2.1 2.9 2.9 6.3 2.6 9.8-.6 6-5.2 12.5-14.2 13.2v1.6c-.1 2.2-1.4 4-3.4 4.6-2 .6-4 0-5.4-1.8-.1-.1-.2-.2-.3-.4-2.8 3.5-6.7 2.7-8.5 0-3.2 3.1-5.9 3.1-8.5-.1-1.1 1.4-2.4 2.4-4.3 2.4-1.8 0-3.2-.9-4.2-2.4-1.1 1.5-2.4 2.4-4.3 2.4-1.8 0-3.1-.9-4.2-2.3-2.7 3.2-5.5 3.2-8.5 0-1.4 2-3.3 2.8-5.7 2.1-2.9-.9-3.6-3.3-3.4-6.2H8.8l-.1.1c-.2 2.4-.9 3.1-3.3 3.1H3.2c-1.2-.1-2.1-1-2.1-2.2v-9.5c0-1.2 1-2.1 2.2-2.2h3c1.5.1 2.2 1.1 2.4 3.2h6.5V58.5C5.9 57.9 1.1 50.4 1 44.1c-.1-6.4 4.8-14.3 14.2-14.9V15H8.7v.8c-.1 1.3-1.1 2.3-2.4 2.3H3.6c-1.4 0-2.4-1-2.4-2.4V6.6c0-1.3.9-2.2 2.2-2.3.9-.1 1.9-.1 2.8 0 1.6.1 2.4 1 2.5 2.6-.1.1 0 .3 0 .6zm32 36.4v-38c0-2.3-2-3.9-4.3-3.5-1.8.3-3 1.8-3 3.9v75.8c.2 1.8 1.4 3.1 3.1 3.3 2.4.3 4.1-1.3 4.1-3.8.1-12.6.1-25.1.1-37.7zm9.8 0v37.9c0 1.9 1.3 3.4 3.1 3.6 2 .2 3.6-.9 4-2.8.1-.5.1-1 .1-1.5V5.8c-.1-1.7-1.3-3-2.9-3.4-2.4-.5-4.4 1.2-4.4 3.7.1 12.6.1 25.2.1 37.8zm-18.3 0V5.6c0-1.7-1.4-3.1-3.2-3.3-1.7-.2-3.4.8-3.8 2.4-.2.7-.2 1.4-.2 2V81c0 .6 0 1.1.1 1.7.3 1.4 1.6 2.5 3 2.7 2.2.3 4.1-1.5 4.1-3.9V43.9zm26.9 0V82c0 1.7 1.3 3.2 2.8 3.4 1.8.3 3.5-.6 4.1-2.3.2-.6.3-1.2.3-1.9V6.5c0-.4 0-.8-.1-1.2-.4-2.2-2.3-3.4-4.4-2.9-1.7.4-2.7 1.8-2.7 3.8v37.7zm8.4-.1v38.4c.1 1.7 1.5 3 3.2 3.2 1.8.2 3.4-.9 3.8-2.6.1-.6.2-1.3.2-1.9V6.7c0-.4 0-.9-.1-1.3-.2-1.7-1.5-3-3.3-3.1-1.6-.2-3.2.8-3.7 2.4-.2.6-.2 1.3-.2 2 .1 12.3.1 24.7.1 37.1zm-43.8.1V5.5c-.2-1.7-1.5-3-3.3-3.2-1.6-.2-3.3.9-3.7 2.5-.2.6-.2 1.3-.2 2V81c0 .5 0 1.1.1 1.6.3 1.6 1.8 2.8 3.5 2.8s3.2-1.3 3.5-2.9c.1-.5.1-1 .1-1.5V43.9zm25.5.1V5.9c0-2.4-2.1-4-4.4-3.5-1.7.4-2.8 1.8-2.8 3.9v75.9c.1 1.8 1.5 3.2 3.3 3.3 2.3.2 3.9-1.4 3.9-3.8V44zm26.9-8.6c4.7-.4 8.5-2.3 10.9-6.4 2.9-4.8 2.8-9.7-.4-14.4-2.5-3.7-6-5.6-10.5-5.8v4.7c4.6.8 7.5 3.4 8 7.3.2 1.9 0 3.7-.9 5.3-1.6 2.8-4 4.2-7.1 4.5v4.8zM15.2 52.5c-5.5-1.5-8-4.1-8.1-8.3 0-1.9.5-3.7 1.6-5.2 1.6-2.2 3.8-3.3 6.5-3.6v-4.8c-4.8.4-8.6 2.4-11 6.6-2.7 4.7-2.6 9.4.3 14C7 55 10.6 57 15.2 57.3v-4.8zm60.9 4.7c2.2.3 4.2 1 5.8 2.7 1.6 1.7 2.3 3.7 2.3 6 0 1.9-.6 3.5-1.8 5-1.6 2.1-3.8 3.1-6.3 3.3V79c4.7-.3 8.4-2.3 10.9-6.3 2.8-4.6 2.8-9.4 0-13.9-2.4-4-6.1-6-10.9-6.3v4.7zm0-27.9c4.4-.3 7.4-4.1 6.7-8.4-.5-3.3-4.1-6.4-6.7-5.8v14.2zm0 43.5c3.7 0 6.7-3.3 6.8-7.1 0-3.9-3.1-7.2-6.8-7.2v14.3zm-60.9-36c-3.6-.2-6.8 3.3-6.8 7.2 0 3.8 3.3 7.3 6.8 7.1V36.8zM2.3 11.1v4.4c0 1 .4 1.3 1.3 1.3h2.3c1 0 1.4-.4 1.4-1.4V6.8c0-.9-.4-1.3-1.3-1.4H3.8c-1.1.1-1.5.5-1.5 1.6v4.1zm5 65.5v-4.4c0-.8-.4-1.2-1.2-1.2H3.5c-.8 0-1.2.4-1.2 1.2V81c0 .9.5 1.3 1.3 1.3h2.2c1.2 0 1.5-.4 1.5-1.5v-4.2zm7.9-63.1V8.9H8.7v4.7h6.5zm0 65.4v-4.7H8.7v4.7h6.5z"/><path d="M28.7 87.3c-1.4 0-2.9-.7-4.4-2.1-1.6 1.9-3.6 2.5-5.9 1.8-2.7-.9-3.9-2.9-3.8-6.1H9.1C8.9 83.3 8 84 5.4 84H3.2C1.8 83.9.7 82.7.6 81.3v-9.5c0-1.4 1.2-2.6 2.7-2.7h3.1c1.6.1 2.6 1.1 2.8 3.2h5.6V59C5.6 58.1.6 50.7.5 44.1c-.1-7 5.1-14.5 14.2-15.4V15.5H9.1v.4c-.2 1.6-1.3 2.7-2.9 2.8H3.4C1.7 18.6.5 17.4.5 15.8V6.7C.5 5.1 1.6 4 3.2 3.9c.9-.1 1.9-.1 2.9 0 1.9-.1 2.9 1 3 2.9V7h5.6V5.9c.1-2.5 1.5-4.4 3.7-5.1 2.2-.7 4.4 0 5.9 1.8C25.5 1.2 26.9.5 28.5.5c1.8 0 3.2.7 4.3 2.1C34 1.2 35.4.5 37.1.5c1.7 0 3.1.7 4.2 2 1.2-1.3 2.7-2 4.3-2 1.6 0 3.1.7 4.2 2 1.1-1.3 2.5-2 4.1-2 1.6-.1 3.2.7 4.4 2 1.1-1.4 2.6-2 4.3-2 1.7 0 3 .7 4.2 2.1C68.4.7 70.4.1 72.6.8c2.7.8 4 2.9 3.9 6.2 4.7.4 8.5 2.4 11.2 6 2.2 2.9 3.2 6.4 3 10.3-.4 6.2-5.4 12.9-14.1 13.9v13.4c4.9.5 8.7 2.6 11.4 6.4 2.1 3 3 6.4 2.7 10.2-.6 5.9-5.2 12.6-14.1 13.5v1.1c-.1 2.5-1.5 4.4-3.7 5.1-2.2.7-4.3 0-5.8-1.8-1.3 1.4-2.9 2.1-4.5 2.1-1.5-.1-3-.8-4-2.1-1.6 1.5-3.1 2.2-4.6 2.1-1.3-.1-2.6-.8-3.8-2.1-1.2 1.4-2.6 2.1-4.2 2.1-1.7 0-3.1-.7-4.2-2.1-1.2 1.4-2.7 2.1-4.3 2.1-1.6 0-3-.7-4.2-2.1-1.3 1.4-2.6 2.1-4 2.1-.5.1-.5.1-.6.1zm-4.4-3.7l.4.4c1.4 1.5 2.8 2.2 4.2 2.2 1.2 0 2.5-.8 3.7-2.2l.4-.5.4.5c1.1 1.5 2.3 2.1 3.8 2.1 1.6 0 2.8-.7 3.9-2.2l.4-.5.4.5c1.1 1.5 2.3 2.2 3.9 2.2 1.5 0 2.7-.7 3.8-2.2l.4-.5.4.5c1.2 1.4 2.3 2.1 3.5 2.2 1.3.1 2.7-.6 4.3-2.2l.4-.4.3.5c.8 1.3 2.2 2 3.6 2.1 1.5 0 3-.7 4.1-2.1l.4-.5.7.8c1.3 1.6 3.1 2.2 4.9 1.6 1.8-.6 3-2.1 3.1-4.2v-2.1h.5c8.6-.6 13.2-7 13.7-12.7.3-3.5-.5-6.7-2.5-9.5-2.6-3.7-6.4-5.7-11.1-6.1h-.5v-15h.5c9.4-.8 13.3-8.2 13.6-13 .3-3.6-.7-6.9-2.8-9.6-2.7-3.5-6.3-5.4-11-5.7h-.5v-.5c.3-3.2-.7-5-3.1-5.7-2-.6-3.7.1-5.1 2l-.4.6-.4-.6c-1.1-1.5-2.3-2.2-3.8-2.2-1.6 0-2.8.7-3.9 2.1l-.4.6-.5-.6c-1-1.4-2.4-2.2-3.9-2.2H54c-1.5 0-2.8.8-3.7 2.1l-.4.6-.4-.6c-1-1.3-2.4-2.1-3.8-2.1-1.5 0-2.9.8-4 2.2l-.4.6-.4-.6c-1-1.4-2.2-2.1-3.8-2.1-1.6 0-2.8.7-3.9 2.2l-.4.6-.4-.6c-1-1.5-2.2-2.2-3.9-2.2-1.5 0-2.7.7-3.8 2.2l-.4.5-.5-.7c-.1-.1-.1-.2-.2-.3-1.3-1.6-3.1-2.1-4.9-1.6-1.9.6-3 2.1-3 4.2V8H8.2l-.1-1.1c-.1-1.4-.7-2.1-2-2.1-1-.1-1.9 0-2.8 0-1.1 0-1.7.7-1.7 1.8v9.1c0 1.1.8 1.9 1.9 1.9h2.7c1.1 0 1.8-.8 2-1.9v-1.2h7.5v15.2h-.5c-8.7.6-13.8 7.8-13.7 14.4.1 6.3 5 13.3 13.7 13.9h.5v15.2H8.2v-.5c-.1-2.3-1-2.7-1.9-2.7h-3c-1 0-1.7.8-1.7 1.7v9.5c0 .9.7 1.6 1.6 1.7h2.1c2.2 0 2.6-.4 2.8-2.6 0-.2.1-.4.2-.4l.1-.2h7.2v.5c-.3 3.1.7 4.9 3 5.7 2 .6 3.7 0 5.1-1.9l.6-.4zm4.3 2.3H28c-1.7-.2-3.1-1.5-3.4-3.1-.1-.5-.2-1.1-.2-1.8V6.7c0-.6 0-1.4.2-2.1.5-1.8 2.4-3 4.4-2.8 2.1.3 3.5 1.8 3.6 3.8v75.9c0 1.4-.5 2.6-1.5 3.5-.6.6-1.5.9-2.5.9zm0-83.1c-1.3 0-2.6.9-2.9 2.1-.2.6-.2 1.3-.2 1.8V81c0 .6 0 1.1.1 1.6.2 1.2 1.3 2.1 2.6 2.3.9.1 1.7-.1 2.4-.7s1.2-1.6 1.2-2.7V5.6c0-1.5-1.2-2.6-2.7-2.9-.3.1-.4.1-.5.1zm-8.5 83.1c-2 0-3.7-1.4-4-3.2-.1-.6-.1-1.2-.1-1.7V6.8c0-.6 0-1.4.2-2.1.5-1.8 2.3-3.1 4.2-2.9 2.1.2 3.6 1.7 3.8 3.7v75.6c0 .5 0 1-.1 1.6-.3 1.8-2 3.2-4 3.2zm0-83.1c-1.3 0-2.6.9-2.9 2.2-.2.5-.2 1.2-.2 1.8V81c0 .5 0 1 .1 1.5.2 1.4 1.6 2.4 3 2.4 1.5 0 2.8-1.1 3-2.5.1-.5.1-1 .1-1.4V5.5C23 4 21.9 2.9 20.3 2.8h-.2zm42.5 83.1c-.3 0-.5 0-.8-.1-1.8-.3-3.2-2-3.3-3.9V6.2c0-2.2 1.2-3.9 3.1-4.3 1.2-.3 2.3-.1 3.2.6.9.6 1.6 1.6 1.8 2.8.1.4.1.8.1 1.3v74.7c0 .8-.1 1.4-.3 2-.5 1.6-2 2.6-3.8 2.6zm.1-83.1c-.3 0-.5 0-.8.1-1.5.3-2.3 1.6-2.3 3.3v75.7c0 1.4 1.1 2.7 2.4 2.9 1.6.3 3.1-.5 3.5-1.9.2-.5.2-1 .2-1.7V6.5c0-.5 0-.8-.1-1.1-.2-.9-.6-1.7-1.3-2.1-.4-.3-1-.5-1.6-.5zM45.6 85.9h-.3c-2-.1-3.6-1.8-3.8-3.8V6.2c0-2.3 1.2-3.9 3.2-4.4 1.3-.3 2.6 0 3.5.8.9.8 1.5 1.9 1.5 3.2v75.7c0 1.3-.5 2.5-1.3 3.3-.7.8-1.7 1.1-2.8 1.1zm0-83.1c-.2 0-.5 0-.7.1-1.5.3-2.4 1.6-2.4 3.4v75.9c.1 1.5 1.3 2.7 2.8 2.9.9.1 1.8-.2 2.4-.8.7-.6 1-1.5 1-2.6V6c0-1-.4-1.9-1.1-2.4-.5-.6-1.2-.8-2-.8zm25.5 83.1h-.4c-1.9-.2-3.5-1.7-3.6-3.6V6.7c0-.7 0-1.4.2-2.1.5-1.8 2.3-2.9 4.2-2.8 2 .2 3.5 1.6 3.7 3.6.1.5.1 1 .1 1.4V81c0 .7 0 1.4-.2 2-.4 1.7-2.1 2.9-4 2.9zm0-83.1c-1.3 0-2.5.9-2.8 2.1-.2.5-.2 1.2-.2 1.8v75.6c.1 1.5 1.2 2.6 2.7 2.7 1.6.1 3-.8 3.3-2.2.1-.6.1-1.2.1-1.8V6.8c0-.4 0-.8-.1-1.3C74 4 72.9 3 71.4 2.8h-.3zm-17 83.1h-.6c-2-.2-3.5-1.9-3.5-4.1V6.1c0-1.4.5-2.6 1.5-3.4.9-.8 2.2-1.1 3.5-.8 1.8.4 3.1 1.9 3.2 3.8V81c0 .5 0 1.1-.1 1.6-.4 2.1-2 3.3-4 3.3zm0-83.1c-.7 0-1.4.2-1.9.7-.8.6-1.2 1.5-1.2 2.6v75.7c0 1.6 1.1 2.9 2.7 3.1 1.7.2 3.1-.7 3.5-2.4.1-.4.1-.9.1-1.4V5.8c-.1-1.5-1.1-2.6-2.5-2.9-.2-.1-.5-.1-.7-.1zm-17 83.1h-.6c-1.9-.2-3.3-1.8-3.5-3.8V6.3c0-2.4 1.3-4.1 3.4-4.4 1.2-.2 2.5.1 3.4.9.9.8 1.4 1.9 1.4 3.1v75.7c0 1.4-.5 2.5-1.4 3.3-.7.7-1.6 1-2.7 1zm0-83.1c-.2 0-.4 0-.6.1-1.6.2-2.5 1.5-2.5 3.4V82c.1 1.5 1.2 2.7 2.6 2.9 1 .1 1.9-.1 2.5-.7.7-.6 1-1.5 1-2.6V5.9c0-1-.4-1.8-1.1-2.4-.4-.5-1.1-.7-1.9-.7zM5 82.8H3.6c-1.1 0-1.8-.7-1.8-1.8v-8.8c0-.5.2-1 .5-1.3.3-.3.7-.5 1.3-.5h2.5c1.1 0 1.7.7 1.7 1.7v8.5c0 1.4-.6 2-2 2-.3.2-.5.2-.8.2zM3.5 71.4c-.3 0-.4.1-.6.2-.1.1-.2.3-.2.6V81c0 .5.1.8.8.8h2.2c.9 0 1-.2 1-1v-8.5c0-.5-.2-.8-.7-.8H4.6l-1.1-.1c.1 0 0 0 0 0zm72.1 8.1v-5.8h.4c2.5-.3 4.5-1.3 6-3.2 1.1-1.4 1.6-3 1.7-4.7 0-2.2-.7-4-2.2-5.7-1.4-1.5-3.1-2.3-5.5-2.6h-.4v-5.7h.5c5 .4 8.8 2.6 11.2 6.6 2.9 4.7 2.9 9.7 0 14.5-2.4 4-6.2 6.2-11.2 6.6h-.5zm1-4.8v3.8c4.4-.4 7.8-2.5 9.9-6 2.7-4.5 2.7-9 0-13.4-2.2-3.6-5.5-5.6-9.9-6v3.8c2.3.3 4.2 1.3 5.6 2.8 1.7 1.8 2.5 3.9 2.4 6.4 0 2-.7 3.7-1.9 5.3-1.4 1.7-3.5 2.9-6.1 3.3zm-60.9 4.7H8.2v-5.7h7.5v5.7zm-6.5-1h5.5v-3.7H9.2v3.7zm66.9-5.1h-.5V58h.5c1.9 0 3.7.8 5 2.2 1.4 1.5 2.3 3.5 2.2 5.5 0 4.2-3.3 7.6-7.2 7.6zm.5-14.2v13.2c3.2-.3 5.8-3.2 5.8-6.6 0-1.8-.7-3.5-2-4.8-1.1-1-2.4-1.7-3.8-1.8zm-60.9-1.4h-.5c-4.9-.3-8.6-2.4-11.1-6.3-3-4.7-3.1-9.7-.3-14.5 2.4-4.1 6.2-6.4 11.4-6.8h.5v5.8h-.4c-2.6.3-4.7 1.4-6.1 3.4-1.1 1.5-1.5 3.1-1.5 4.9.1 4.1 2.4 6.4 7.7 7.9l.4.1v5.5zm-1-26.6c-4.6.5-8 2.6-10.1 6.3-2.6 4.5-2.5 9 .3 13.4 2.2 3.4 5.5 5.4 9.8 5.8v-3.8c-5.5-1.6-8-4.3-8.1-8.7-.1-2.1.5-3.9 1.7-5.5 1.5-2.1 3.6-3.3 6.4-3.7v-3.8zm.2 20.4c-1.6 0-3.2-.7-4.5-1.9-1.6-1.5-2.5-3.6-2.5-5.7s.9-4.2 2.5-5.7c1.4-1.3 3.1-2 4.9-1.9h.5v15.2h-.9zm-.2-14.2c-1.3.1-2.6.6-3.6 1.7-1.4 1.3-2.2 3.2-2.2 5 0 1.8.8 3.7 2.2 4.9 1.1 1 2.3 1.6 3.6 1.6V37.3zm60.9-1.4v-5.7l.4-.1c3.1-.4 5.3-1.8 6.7-4.3.8-1.5 1.1-3.2.9-5-.5-3.6-3.2-6.1-7.6-6.9l-.4-.1V8.3h.5c4.7.2 8.4 2.3 10.9 6 3.2 4.8 3.3 10 .4 15-2.4 4-6.2 6.3-11.3 6.6h-.5zm1-4.8v3.8c4.5-.5 7.8-2.5 10-6.1 2.8-4.7 2.7-9.4-.3-13.9-2.2-3.3-5.5-5.2-9.6-5.5v3.8c4.6.9 7.5 3.7 8 7.7.3 2.1-.1 4-1 5.6-1.6 2.5-4 4.1-7.1 4.6zm-1-1.3V14.7l.4-.1c1.1-.3 2.5.1 3.8 1 1.8 1.2 3.2 3.3 3.5 5.2.3 2.2-.2 4.4-1.5 6.1-1.4 1.7-3.4 2.7-5.6 2.9h-.6zm1-14.3v13.2c1.8-.3 3.3-1.1 4.4-2.5 1.2-1.5 1.6-3.4 1.3-5.3-.3-1.7-1.5-3.5-3.1-4.6-.9-.6-1.9-.9-2.6-.8zM4.8 17.3H3.7c-1.2 0-1.8-.6-1.8-1.8V7c0-1.4.6-1.9 2-2H6c1.2 0 1.8.7 1.8 1.8v8.6c0 1.2-.6 1.8-1.9 1.9H4.8zM5 6H3.8c-.8 0-1 .2-1 1v8.4c0 .7.2.8.8.8h2.3c.8 0 .9-.2.9-.9V6.7c0-.5-.2-.7-.8-.7H5zm10.7 8H8.2V8.4h7.5V14zm-6.5-1h5.5V9.4H9.2V13z"/></svg>