<svg xmlns="http://www.w3.org/2000/svg" viewBox="0 0 94 93"><path d="M49.8 0c1.7.2 3.4.4 5 .7 16.4 3.3 28 12.7 34.7 28.1C92.3 35.2 93.4 42 93 49c-.8 12.5-5.7 23-14.8 31.6-.5.4-.6.8-.4 1.4 1 3.8-.6 7.8-3.9 9.8-3.3 2-7.5 1.6-10.4-1.1-.4-.4-.8-.5-1.3-.3-6.8 2.4-13.9 3.1-21.1 2.3C22.3 90.6 6.2 76.7 1.5 58c-.6-2.4-.9-5-1.3-7.5 0-.2-.1-.5-.2-.7v-6.5c.1-.3.1-.6.2-.9.3-2.1.5-4.3 1-6.4 1.7-7.4 5-13.9 10-19.7C18.4 7.9 27.5 2.7 38.3.7 40 .4 41.6.2 43.2 0h6.6zM3.4 57.9c6.5 26.4 35.3 39.5 58.3 30.6-2-4.4-1.4-7.7 2.1-11.1l4.6-4.6c.9-.9 1.1-.9 2 0 2.1 2.2 4.3 4.4 6.4 6.5 12.7-11.2 18.6-31.4 10.8-49.8C79.5 10.3 59.4-.8 39.1 2.8 19.1 6.2 6.7 21.5 3.6 35.1h4c.8 0 1.2.4 1.2 1.2v2.2c.3 0 .4.1.5.1h15.3c.3 0 .7-.2.9-.5 1.5-2.1 3.3-3.7 5.6-4.9.3-.1.5-.6.6-1 .1-1 0-2.1 0-3.1v-3.7H21.2c-1.2 0-2.1-.5-2.8-1.4-.8-1.1-.9-2.4-.3-3.6.6-1.4 1.8-2 3.3-2h10.3c.3-3.2 2.4-5.6 5.1-6 1.5-.2 2.9 0 4.2.8 2 1.2 2.9 3 3.1 5.3h10.3c2.1 0 3.7 1.5 3.7 3.5s-1.6 3.5-3.7 3.5H44v6.7c0 .6.2.9.7 1.1 2.1 1.1 3.9 2.6 5.2 4.5.4.6.9.8 1.6.8 4.1 0 8.2-.1 12.3.1 7.5.5 13.4 7 13.5 14.4v12.4c0 1.8-1.1 2.9-2.9 2.9h-10c-1.8 0-2.9-1.1-2.9-2.9v-8c0-2.1-1-3.1-3.1-3.1h-7.1c-.6 0-1 .2-1.3.7-6 8.4-18.4 8.4-24.4-.1-.3-.4-.6-.6-1.2-.6H9.7c-.3 0-.5 0-.8.1v1.9c0 1.3-.2 1.5-1.5 1.5h-4zm5.5-5.3h16.2c.7 0 1.2.2 1.5.8 5.3 8.3 17 8.3 22.3 0 .3-.5.7-.8 1.4-.8h8.4c2.8 0 4.6 1.9 4.6 4.7v8.1c0 1 .2 1.3 1.3 1.3h9.6c1.1 0 1.3-.2 1.3-1.3V53.5c0-.9-.1-1.9-.3-2.8-1.4-6.1-6.6-10.2-12.9-10.3H50.6c-.8 0-1.3-.2-1.7-.9-5.2-8.1-17-8.1-22.1 0-.4.7-.9 1-1.8 1H9v12.1zm60.5 21.7l-4.8 4.8-.7.7c-1.3 1.7-1.9 3.5-1.5 5.7.5 2.8 2.6 5 5.3 5.5 2.9.6 5.8-.6 7.4-2.9 1.6-2.4 1.7-5.6-.1-7.8-1.7-2.1-3.7-4-5.6-6zM37.7 23.6h16.6c1 0 1.8-.7 1.8-1.6 0-.9-.6-1.6-1.6-1.8h-33c-.9 0-1.6.2-2 1.1-.5 1.2.3 2.4 1.8 2.4 5.5-.1 10.9-.1 16.4-.1zM6.9 36.9H3.4c-.2 0-.4.3-.5.5-.2 1.2-.5 2.4-.6 3.6-.6 4.9-.5 9.7.5 14.5 0 .2.3.6.5.6 1.2.1 2.4 0 3.7 0l-.1-19.2zm35.2-4.7v-6.7h-8.6v6.7c2.9-.8 5.7-.8 8.6 0zM42 18.3c-.1-2.7-2.2-4.5-4.8-4.2-2.2.3-4 2.3-3.7 4.2H42z"/><path d="M37.2 56.1c-4.8-.1-9.1-4.5-9.1-9.4 0-.6.2-1 .8-1.1.6 0 .9.4 1 1 .1 2.6 1.2 4.8 3.3 6.3 1.3.9 2.8 1.4 4.4 1.4.6 0 1.1.3 1 1 0 .6-.5.9-1.1.8h-.3zm32.2 32.5c-2.5 0-4.5-2-4.6-4.2 0-.6.2-1 .8-1.1.6 0 .8.3 1 .8.3 1.8.9 2.3 2.7 2.6.6.1.9.5.8 1 0 .5-.5.8-.7.9zm-5.3-65.3l14.2 4.4m-.1.9h-.3l-14.2-4.4c-.5-.2-.8-.7-.7-1.2.2-.5.7-.8 1.2-.7l14.2 4.4c.5.2.8.7.7 1.2-.1.5-.5.7-.9.7zm-4.9-9.8L69 32.9"/><path d="M68.9 33.8h-.3c-.5-.2-.8-.7-.7-1.2l4.3-14.1c.2-.5.7-.8 1.2-.7.5.2.8.7.7 1.2l-4.3 14.1c-.1.4-.5.7-.9.7z"/><path d="M67.7 19l6.9 13m0 1c-.4 0-.7-.2-.9-.5l-6.9-13.1c-.3-.5-.1-1.1.4-1.4.5-.3 1.1-.1 1.4.4l6.9 13.1c.3.5.1 1.1-.4 1.4-.2.1-.3.1-.5.1z"/><path d="M64.6 29l13.1-6.9M64.6 30c-.4 0-.7-.2-.9-.5-.3-.5-.1-1.1.4-1.4l13.1-6.9c.5-.3 1.1-.1 1.4.4s.1 1.1-.4 1.4l-13.1 6.9c-.2 0-.3.1-.5.1z"/></svg>