<svg viewBox="0 0 92 89" xmlns="http://www.w3.org/2000/svg"><path d="M0 62.312c.867-2.37 2.612-3.193 5.064-3.139 4.305.094 8.612.026 12.919.026h1.14c0-1.759.061-3.418-.015-5.07-.097-2.118 1.183-3.776 3.59-3.582 1.15.093 2.315.015 3.473.017 2.045.003 3.204 1.142 3.228 3.169.003.235 0 .47 0 .786.542.027 1.035.069 1.528.071 1.93.009 3.86.027 5.79-.017.303-.006.752-.24.875-.495 2.022-4.183 4.003-8.386 5.99-12.587.036-.073.038-.163.082-.367h-.97c-2.822 0-5.644-.01-8.465.005-1.03.005-1.796-.398-2.183-1.357-.383-.949-.141-1.78.586-2.508 5.898-5.898 11.787-11.804 17.684-17.703.725-.725 1.532-.778 2.11-.183.56.576.472 1.387-.23 2.118-.123.128-.251.252-.377.378-5.222 5.232-10.441 10.464-15.67 15.688-.228.227-.538.373-.809.557l.171.272c.246.018.492.052.738.053 2.554.003 5.115.118 7.66-.033 2.171-.13 3.404 1.71 2.372 3.816-3.125 6.379-6.119 12.822-9.161 19.241-.147.31-.273.63-.377.87l27.439-27.413c-.15-.011-.398-.046-.645-.046-2.673-.004-5.346.005-8.019-.005-2.208-.008-3.212-1.617-2.257-3.616 3.061-6.409 6.13-12.815 9.194-19.223.163-.34.32-.682.48-1.023l-.211-.193c-.25.295-.48.608-.752.88a1226.295 1226.295 0 01-5.096 5.106c-.778.775-1.572.867-2.174.273-.598-.591-.519-1.399.254-2.176 3.034-3.052 6.077-6.096 9.117-9.143.602-.603 1.29-.958 2.162-.663.765.259 1.328.789 1.372 1.586.03.553-.156 1.166-.4 1.68-3.586 7.537-7.199 15.063-10.804 22.592-.162.34-.312.686-.538 1.185h1.065c2.851 0 5.702-.014 8.553.007 1.533.012 2.579.89 2.44 2.189-.068.641-.444 1.365-.904 1.831-4.354 4.419-8.756 8.79-13.146 13.174l-8.106 8.09c1.938 1.501 3.453 3.296 4.538 5.454.093.184.474.299.729.313.859.047 1.732-.048 2.58.062 2.13.277 3.713 1.833 4.15 3.957.052.257.12.51.195.83h.901c4.752 0 9.506-.076 14.255.017 7.197.14 13.967-4.966 15.194-12.6.847-5.27.224-10.317-3.506-14.528-2.894-3.268-6.534-5.028-10.925-5.174-.237-.008-.476.003-.712-.018-.88-.08-1.446-.639-1.43-1.4.017-.758.606-1.368 1.485-1.333 1.241.05 2.501.113 3.712.369 8.518 1.798 14.255 8.996 14.336 17.716.034 3.682-.358 7.229-2.249 10.451-3.587 6.116-8.99 9.176-16.063 9.253-4.662.05-9.325.01-13.988.01h-1.007c-.109.483-.182.916-.306 1.334-.596 2.005-2.46 3.585-4.558 3.455-1.856-.114-2.85.468-3.896 2.085-2.936 4.545-7.349 6.619-12.758 6.589-2.31-.013-4.622-.002-7.046-.002 0 .456.013.83-.002 1.204-.064 1.576-1.282 2.791-2.866 2.82-1.396.026-2.792.01-4.188.006-1.962-.006-3.17-1.165-3.21-3.129-.032-1.482-.008-2.966-.008-4.45v-1.08h-1.13c-4.307 0-8.615-.076-12.919.03-2.458.06-4.193-.76-5.075-3.117v-1.958c.973-2.394 2.81-3.12 5.298-3.05 4.267.12 8.538.032 12.808.032h.95v-4.295h-1.03c-4.506 0-9.013.003-13.52-.004-.412 0-.83-.021-1.236-.091-1.692-.29-2.595-1.48-3.27-2.918v-1.958zm29.446 19.217c2.945 0 5.814.215 8.637-.049 4.749-.444 8.227-2.97 10.051-7.399 1.817-4.41 1.142-8.6-1.813-12.355-.696-.884-1.614-1.593-2.456-2.408-2.829 2.833-5.508 5.523-8.196 8.203-.924.92-1.898 1.06-2.795.44-.872-.602-1.065-1.601-.512-2.776 1.072-2.275 2.156-4.543 3.23-6.816.148-.312.273-.634.436-1.017h-6.582V81.53zM21.97 53.233v32.39c1.268 0 2.456-.063 3.634.02.932.067 1.129-.267 1.126-1.15-.03-10.05-.02-20.1-.02-30.15 0-.177.065-.396-.016-.524-.142-.225-.367-.553-.568-.56-1.36-.05-2.722-.026-4.156-.026zM19.08 74.29c-5.1 0-10.084-.013-15.067.028-.374.003-.88.315-1.079.635-.193.313-.249.97-.047 1.209.313.372.893.724 1.364.73 4.75.052 9.5.032 14.252.028.195 0 .39-.054.577-.081V74.29zm-.005-12.353H5.86c-.623 0-1.246-.01-1.87.006-.782.02-1.232.494-1.284 1.213-.053.733.371 1.229 1.125 1.362.26.045.532.046.798.046 4.51.003 9.02.002 13.53.002h.915v-2.63zM51.66 72.932c.304 0 .685.011 1.065-.002 1.584-.055 2.378-.844 2.41-2.434.018-.885.02-1.774-.042-2.656-.064-.901-.688-1.63-1.569-1.799-.647-.124-1.322-.103-1.864-.14v7.03z"/><path d="M57.514.005h31.71c.268 0 .537-.017.802.011.745.08 1.255.654 1.21 1.384-.045.757-.466 1.195-1.225 1.27-.324.032-.653.013-.98.013-20.724 0-41.45-.005-62.174.003-7.189.002-13.186 4.48-15.035 11.19-2.594 9.41 4.406 18.846 14.173 19.099.98.025 1.96-.005 2.94.017 1.044.023 1.725.614 1.688 1.428-.036.793-.687 1.291-1.698 1.33-4.1.16-8.035-.386-11.631-2.555-6.255-3.77-9.73-11.137-8.512-18.123C10.1 7.52 15.654 1.772 23.074.356 24.317.12 25.604.023 26.871.02 37.087-.007 47.3.005 57.514.005z"/></svg>