<svg xmlns="http://www.w3.org/2000/svg" viewBox="0 0 95 95"><path d="M50.8 0c1.7.2 3.4.4 5.1.8 16.8 3.4 28.6 13 35.5 28.6 2.9 6.5 4 13.5 3.5 20.6-.8 12.7-5.8 23.5-15.1 32.3-.5.4-.6.8-.4 1.4 1.1 3.9-.6 7.9-4 10s-7.7 1.6-10.6-1.1c-.4-.4-.8-.5-1.4-.3-7 2.4-14.1 3.2-21.5 2.3C22.6 92.4 6.2 78.2 1.5 59.1.9 56.6.6 54 .2 51.5c0-.2-.1-.5-.2-.7v-6.7c.1-.3.1-.6.2-.9.3-2.2.5-4.4 1-6.6 1.8-7.4 5.2-14.2 10.2-20C18.8 8.1 28 2.8 39.1.7c1.7-.3 3.3-.5 5-.7h6.7zM3.5 59.1C10.2 86 39.5 99.5 63 90.3c-2-4.5-1.4-7.9 2.1-11.3 1.6-1.6 3.2-3.1 4.7-4.7.9-.9 1.2-.9 2 0 2.2 2.2 4.4 4.5 6.5 6.7 12.9-11.5 18.9-32.1 11.1-50.8-8.2-19.6-28.7-31-49.5-27.4-20.4 3.5-33 19.2-36.3 33h4.1c.9 0 1.3.4 1.3 1.2v2.3c.3 0 .4.1.5.1h15.6c.3 0 .7-.2.9-.5 1.5-2.1 3.4-3.8 5.7-5 .3-.2.5-.6.6-1 .1-1 0-2.1 0-3.1v-3.7H21.6c-1.2 0-2.2-.5-2.9-1.4-.8-1.1-1-2.4-.4-3.7.7-1.4 1.8-2.1 3.4-2.1h10.6c.3-3.3 2.4-5.7 5.2-6.1 1.5-.2 3 0 4.3.8 2 1.2 2.9 3.1 3.2 5.4h10.5c2.2 0 3.8 1.6 3.8 3.6s-1.6 3.6-3.8 3.6H44.9v6.9c0 .6.2.9.7 1.1 2.2 1.1 4 2.6 5.3 4.6.4.6.9.8 1.6.8 4.2 0 8.4-.1 12.6.1 7.6.5 13.7 7.1 13.8 14.7v12.7c0 1.8-1.1 2.9-2.9 2.9H65.8c-1.9 0-3-1.1-3-3v-8.2c0-2.2-1-3.1-3.2-3.2h-7.2c-.6 0-1 .2-1.4.7-6.1 8.6-18.8 8.6-24.9-.1-.3-.5-.6-.6-1.2-.6h-15c-.3 0-.5 0-.9.1v1.9c0 1.4-.2 1.6-1.5 1.6-1.4-.1-2.6-.1-4-.1zm5.6-5.4h16.5c.7 0 1.2.2 1.6.9 5.4 8.5 17.3 8.4 22.7 0 .4-.6.7-.8 1.4-.8h8.5c2.8 0 4.7 1.9 4.7 4.8v8.2c0 1.1.2 1.3 1.3 1.3h9.8c1.1 0 1.3-.2 1.3-1.4V54.6c0-.9-.1-1.9-.3-2.8-1.5-6.3-6.7-10.4-13.2-10.5h-12c-.8 0-1.3-.3-1.7-.9-5.3-8.3-17.3-8.3-22.6 0-.5.7-1 1-1.8 1H9l.1 12.3zm61.7 22.1l-4.9 4.9c-.2.2-.5.5-.7.8-1.3 1.7-1.9 3.6-1.5 5.8.5 2.9 2.6 5.1 5.4 5.6 3 .6 6-.6 7.5-3 1.6-2.4 1.7-5.7-.1-8-1.6-2.1-3.7-4-5.7-6.1zM38.5 24.1h16.9c1.1 0 1.8-.7 1.8-1.7 0-.9-.6-1.7-1.6-1.8H21.9c-.9 0-1.7.2-2.1 1.1-.5 1.2.4 2.4 1.9 2.4h16.8zM7.1 37.6H3.5c-.2.1-.5.4-.5.6-.2 1.2-.5 2.5-.7 3.7-.7 5-.5 9.9.5 14.8 0 .2.3.6.5.6 1.2.1 2.5 0 3.7 0l.1-19.7zm35.8-4.8V26h-8.8v6.8c3-.8 5.9-.7 8.8 0zm0-14.1c-.1-2.7-2.3-4.6-4.9-4.3-2.3.3-4.1 2.4-3.7 4.3h8.6z"/><path d="M37.9 57.3c-4.9-.1-9.3-4.6-9.3-9.6 0-.6.2-1.1.9-1.1s.9.4 1 1c.1 2.7 1.2 4.9 3.4 6.5 1.3 1 2.8 1.5 4.5 1.5.6 0 1.1.3 1.1 1 0 .6-.5.9-1.1.8-.2-.1-.3-.1-.5-.1zm33 33.2c-2.5 0-4.6-2.1-4.6-4.3 0-.6.2-1 .9-1.1.6 0 .9.3 1 .9.3 1.8.9 2.4 2.7 2.7.6.1 1 .5.8 1-.2.3-.6.6-.8.8zM66.5 38c-.2 0-.4-.1-.6-.2-.4-.3-.5-1-.2-1.4 1.5-1.9 2-6.5-.8-10.1-3.2-4.1-1.4-8.8.1-10.7.3-.4 1-.5 1.4-.2s.5 1 .2 1.4c-.1.2-3.2 4.4-.1 8.3 3.3 4.1 3 9.7.8 12.5-.2.3-.5.4-.8.4zm5.7 0c-.2 0-.4-.1-.6-.2-.4-.3-.5-1-.2-1.4 1.5-1.9 2-6.5-.8-10.1-3.2-4.1-1.4-8.8.1-10.7.3-.4 1-.5 1.4-.2s.5 1 .2 1.4c-.1.2-3.2 4.4-.1 8.3 3.3 4.1 3 9.7.8 12.5-.2.3-.5.4-.8.4zm6.2 0c-.2 0-.4-.1-.6-.2-.4-.3-.5-1-.2-1.4 1.5-1.9 2-6.5-.8-10.1-3.2-4.1-1.4-8.8.1-10.7.3-.4 1-.5 1.4-.2s.5 1 .2 1.4c-.1.2-3.2 4.4-.1 8.3 3.3 4.1 3 9.7.8 12.5-.2.3-.5.4-.8.4z"/></svg>