<svg width="68" height="63" xmlns="http://www.w3.org/2000/svg"><path d="M9.59 17.159c-2.408 0-4.36 1.973-4.36 4.408v31.736c0 2.434 1.952 4.408 4.36 4.408h48.82c2.408 0 4.36-1.974 4.36-4.408V21.567c0-2.435-1.952-4.408-4.36-4.408H9.59zM0 21.567c0-5.356 4.293-9.697 9.59-9.697h48.82c5.297 0 9.59 4.341 9.59 9.697v31.736C68 58.658 63.707 63 58.41 63H9.59C4.294 63 0 58.659 0 53.303V21.567z"/><path d="M49.867 39.26a1.82 1.82 0 01-1.814-1.825 1.82 1.82 0 011.814-1.826 1.82 1.82 0 011.813 1.826 1.82 1.82 0 01-1.813 1.826z"/><path d="M49.867 38.348a.91.91 0 00.906-.913.91.91 0 00-.906-.913.91.91 0 00-.907.913.91.91 0 00.907.913zm-4.534-.913c0-2.521 2.03-4.565 4.534-4.565 2.503 0 4.533 2.044 4.533 4.565 0 2.52-2.03 4.565-4.533 4.565-2.504 0-4.534-2.044-4.534-4.565zM45.505.33c6.092-1.625 12.068 2.967 12.068 9.272v4.875H52.34V9.602c0-2.866-2.716-4.953-5.485-4.215L8.472 15.624a4.362 4.362 0 00-3.238 4.215v1.617H0V19.84a9.597 9.597 0 017.123-9.273L45.506.33z"/></svg>