<svg width="74" height="70" xmlns="http://www.w3.org/2000/svg"><path d="M6.807 29.327C7.137 13.074 20.529 0 37 0c16.471 0 29.863 13.075 30.193 29.327C71.225 30.607 74 34.333 74 38.58v6.327c0 4.244-2.772 7.968-6.8 9.25v1.072c0 5.365-4.387 9.715-9.8 9.715h-7.774A8.101 8.101 0 0142.1 70H31.9c-4.473 0-8.099-3.595-8.099-8.03 0-4.434 3.626-8.03 8.099-8.03h10.2a8.1 8.1 0 017.526 5.057H57.4c1.949 0 3.555-1.453 3.776-3.327l-.514.128c-3.18.788-6.26-1.597-6.26-4.847V32.534c0-3.25 3.08-5.635 6.26-4.847l.445.11C60.013 15.55 49.638 5.947 37 5.947S13.987 15.55 12.892 27.799l.445-.11c3.18-.789 6.26 1.596 6.26 4.846v18.417c0 3.25-3.08 5.635-6.26 4.847l-5.915-1.466C3.06 53.25 0 49.365 0 44.906V38.58c0-4.245 2.775-7.972 6.807-9.252zm2.07 5.595a3.776 3.776 0 00-2.88 3.657v6.327a3.776 3.776 0 002.88 3.657l4.724 1.171V33.751l-4.724 1.17zm56.246 0L60.4 33.75v15.983l4.724-1.17a3.776 3.776 0 002.88-3.658V38.58a3.776 3.776 0 00-2.88-3.657zM59.208 50.03zM31.9 59.886c-1.161 0-2.102.933-2.102 2.084s.941 2.084 2.102 2.084h10.2a2.093 2.093 0 002.102-2.084c0-1.15-.941-2.084-2.102-2.084H31.9z"/></svg>