<svg width="70" height="70" xmlns="http://www.w3.org/2000/svg"><path d="M22.79 35c0-6.743 5.467-12.21 12.21-12.21 6.743 0 12.21 5.467 12.21 12.21 0 6.743-5.467 12.21-12.21 12.21-6.743 0-12.21-5.467-12.21-12.21zM35 27.674a7.325 7.325 0 100 14.651 7.325 7.325 0 000-14.65z"/><path d="M29.32 1.82A2.442 2.442 0 0131.683 0h6.363c1.11 0 2.08.748 2.362 1.821l1.718 6.54 6.308 2.595 4.516-3.859a2.442 2.442 0 013.313.13l6.511 6.511c.898.898.958 2.334.138 3.304l-3.842 4.544 2.536 6.125 6.555 1.667A2.442 2.442 0 0170 31.744v6.438a2.442 2.442 0 01-1.827 2.363L61.58 42.26l-2.54 6.133 3.87 4.563c.82.97.762 2.407-.137 3.305l-6.512 6.512a2.442 2.442 0 01-3.357.091l-.18-.161a248.285 248.285 0 00-2.093-1.846 115.255 115.255 0 00-2.162-1.841l-6.179 2.558-1.667 6.584A2.442 2.442 0 0138.256 70h-6.512a2.442 2.442 0 01-2.367-1.844l-1.662-6.581-6.003-2.47-4.704 3.834a2.442 2.442 0 01-3.27-.166l-6.511-6.512a2.442 2.442 0 01-.096-3.351l3.908-4.384-2.568-6.093-6.672-1.822A2.442 2.442 0 010 38.257v-6.512c0-1.135.782-2.12 1.887-2.378l6.494-1.515 2.498-6.143-3.82-4.703a2.442 2.442 0 01.168-3.266l6.511-6.512a2.442 2.442 0 013.35-.098l4.398 3.912 6.083-2.565 1.752-6.656zm4.245 3.064l-1.579 5.997a2.442 2.442 0 01-1.413 1.629l-8.61 3.63c-.868.365-1.868.2-2.572-.426l-3.828-3.405-3.326 3.326 3.344 4.115c.561.691.702 1.634.366 2.46l-3.519 8.651a2.442 2.442 0 01-1.707 1.458l-5.837 1.363v2.71l6.018 1.642a2.442 2.442 0 011.607 1.407l3.63 8.61c.366.868.2 1.87-.428 2.573l-3.4 3.815 3.321 3.321 4.122-3.359a2.442 2.442 0 012.472-.365l8.484 3.49a2.44 2.44 0 011.438 1.66l1.498 5.93h2.71l1.5-5.928a2.443 2.443 0 011.434-1.657l8.63-3.574a2.442 2.442 0 012.354.27c.834.596 2.351 1.892 3.563 2.947l.596.52 3.297-3.296-3.378-3.984a2.442 2.442 0 01-.393-2.513l3.574-8.633c.293-.707.9-1.236 1.642-1.428l5.941-1.546v-2.651l-5.9-1.5a2.442 2.442 0 01-1.655-1.433l-3.574-8.63a2.442 2.442 0 01.392-2.51l3.353-3.966-3.327-3.327-3.934 3.361a2.442 2.442 0 01-2.515.402l-8.813-3.624a2.442 2.442 0 01-1.433-1.638l-1.548-5.894h-2.597z"/></svg>