<svg width="68" height="68" xmlns="http://www.w3.org/2000/svg"><path d="M34 29.904c1.357 0 2.458 1.058 2.458 2.363v15.755c0 1.306-1.1 2.364-2.458 2.364-1.357 0-2.458-1.059-2.458-2.364V32.267c0-1.305 1.1-2.363 2.458-2.363zm1.65-12.073a2.439 2.439 0 01.181 3.446l-.033.036a2.443 2.443 0 01-3.448.181 2.439 2.439 0 01-.181-3.445l.033-.037a2.443 2.443 0 013.448-.18z"/><path d="M0 33.795C0 15.131 15.222 0 34 0s34 15.13 34 33.795S52.778 67.59 34 67.59 0 52.46 0 33.795zm34-29.08c-16.157 0-29.256 13.02-29.256 29.08S17.843 62.875 34 62.875s29.256-13.02 29.256-29.08S50.157 4.715 34 4.715z"/></svg>