<svg width="82" height="65" xmlns="http://www.w3.org/2000/svg"><path d="M82 24.437c-.606.764-1.148 1.592-1.828 2.282C73.793 33.193 67.388 39.639 61 46.104c-.73.739-1.53 1.26-2.6 1.183-1.673-.121-2.76-1.377-2.775-3.245-.02-2.532-.005-5.064-.005-7.596v-.966h-1.106c-10.11 0-20.222.002-30.333-.004-.505 0-1.025.003-1.51-.112-1.233-.293-2.12-1.47-2.136-2.792-.019-1.498-.004-2.996-.004-4.436-4.405 4.454-8.8 8.898-13.136 13.28L20.53 54.679v-4.02c.004-2.208 1.158-3.39 3.357-3.392 7.524-.007 15.047-.008 22.57 0 2.39.004 3.895 1.887 3.187 3.951-.423 1.235-1.497 1.985-2.896 1.986-6.43.005-12.859.003-19.288.003h-1.044v2.217c0 2.101.02 4.203-.006 6.303-.026 2.111-1.389 3.5-3.285 3.243a3.371 3.371 0 01-1.807-.896c-6.801-6.81-13.57-13.65-20.332-20.499-1.313-1.33-1.317-3.039.004-4.378 6.74-6.83 13.5-13.644 20.255-20.462.961-.97 2.096-1.278 3.362-.745 1.284.541 1.796 1.629 1.804 2.974.015 2.532.005 5.065.005 7.597v.998h1.073c10.058 0 20.116 0 30.173.002.373 0 .748 0 1.12.032 1.595.133 2.7 1.312 2.72 2.922.017 1.477.003 2.954.003 4.286L74.57 23.61 61.55 10.457c-.003.029-.041.224-.042.419-.005 1.239.002 2.478-.004 3.717-.01 1.842-1.105 3.03-2.925 3.173-.185.015-.373.01-.56.01-7.443 0-14.886.005-22.33-.01-.524-.001-1.075-.064-1.567-.236-1.304-.454-2.098-1.877-1.868-3.212.25-1.448 1.432-2.476 2.922-2.479 5.47-.011 10.938-.005 16.407-.005h4.037v-.893c0-2.506.009-5.01-.003-7.516-.007-1.444.472-2.62 1.855-3.187 1.375-.564 2.51-.074 3.53.96C67.59 7.876 74.206 14.53 80.79 21.214c.492.5.81 1.174 1.209 1.768v1.454z"/></svg>