<svg version="1.1" id="Слой_1" xmlns="http://www.w3.org/2000/svg" x="0" y="0" width="64" height="63" xml:space="preserve"><path d="M49.9 49.2V61c0 .5-.4.8-.8.8H15.2c-.5 0-.9-.4-.9-.9V49.1H6.5c-.6 0-1.2-.1-1.8-.3-.3-.1-.5-.2-.8-.3-1.4-.8-2.4-2-2.7-3.6-.1-.3-.1-.5-.1-.8V19.9c0-.7.1-1.3.3-1.9.6-1.5 2-2.9 3.8-3.2.3-.1.6-.1.9-.1h.2c.1-.1.1-.2.1-.3v-4.1c0-.4.3-.7.7-.8H14c.1-.1 0-.2 0-.4V6.7c0-.7.1-1.5.4-2.2.8-1.8 2.2-3 4.2-3.4.3 0 .7-.1 1.1-.1h24.6c.7 0 1.4.1 2.1.3.9.3 1.6.8 2.3 1.5.8.9 1.3 2 1.5 3.2v3.4H57c.4.1.7.4.7.8v4.5h.3c.8 0 1.6.2 2.3.7 1.5.8 2.3 2.1 2.6 3.7v24.6c0 .5 0 1-.2 1.4-.5 1.9-2.1 3.5-4.1 3.8-.4.1-.7.1-1.1.1h-7.3c0 .2-.2.2-.3.2zm0-1.9H58c1.4-.1 2.6-1.1 2.9-2.5.1-.3.1-.6.1-.9v-24c0-1.4-1-2.6-2.2-3-.4-.1-.7-.2-1.1-.2h-52c-1.3.2-2.3 1.1-2.7 2.4v25c0 .6.2 1.1.5 1.6.6 1 1.5 1.5 2.6 1.6h8v-8.4c0-.5.4-.9.9-.9h34c.5 0 .8.4.9.9v8.4zM16.1 60H48V39.8H16.1c-.1.4-.1 19.9 0 20.2zm32.1-45.2V6.7c0-.2 0-.5-.1-.7-.2-1-.8-1.9-1.7-2.4-.7-.4-1.4-.6-2.2-.6H19c-1.3.1-2.6 1-3.1 2.4-.2.5-.2.9-.2 1.4v8h32.5zm2 0h5.5v-3.4h-5.4c-.2.3-.2 3.1-.1 3.4zm-42-3.4v3.3h5.6v-3.3H8.2z"/><path d="M15.3 63H15c-1-.1-1.8-.8-1.9-1.9V50.2H6.3c-.8 0-1.5-.1-2.1-.3-.3-.1-.6-.2-.9-.4-1.7-1-2.8-2.4-3.2-4.3 0-.2-.1-.5-.1-.7V20.1c0-.8.1-1.5.4-2.2.7-2 2.5-3.5 4.5-3.9.1 0 .2 0 .3-.1v-3.6c.2-.9.8-1.6 1.6-1.8.3-.1.5-.1.7-.1h5.4V6.6c0-1 .2-1.8.5-2.6 1-2.1 2.6-3.5 4.9-3.9.5-.1 1-.1 1.4-.1h24.6c.9 0 1.7.1 2.4.4 1 .4 1.9.9 2.7 1.7 1 1 1.6 2.3 1.7 3.7v2.6h5.4c.2 0 .4 0 .7.1.8.2 1.4.9 1.5 1.7v3.6c.8.1 1.5.4 2.1.7 1.7 1 2.8 2.5 3.1 4.5.1.4.1.8.1 1.1v23.8c0 .7-.1 1.2-.2 1.7-.6 2.3-2.5 4.1-4.9 4.5-.4.1-.8.1-1.3.1h-6.7v10.9c-.1.9-.8 1.7-1.8 1.8h-.4l-33.4.1zm-.2-2.7v.6h.1l-.1-.6zm33.5.7h.4c-.1 0-.1 0-.1-.1l-.5.1h.2zm-31.5-2H47V40.8H17.1c-.1 3.3-.1 14.9 0 18.2zm33-9.8zm-35.8-.9l.7.1v-.8.1l-.2.5-.5.1c0-.1 0-.1 0 0zm34.7 0v.3l.6-.2h.1l-.7-.1zM10.6 17.7H5.8c-.9.1-1.6.8-1.8 1.6v24.8c0 .4.1.8.3 1.1.4.7 1 1 1.8 1.1h7v-7.4c.1-1 .8-1.8 1.9-1.9h34.2c1 .1 1.7.8 1.8 1.8v7.6h7c1-.1 1.8-.8 2-1.7V20c0-1-.8-1.8-1.5-2-.3-.1-.5-.1-.8-.1H14.3c-1.2-.2-2.4-.2-3.7-.2zm4.7 21.2h-.2v.6l.2-.6h.3-.3zm33.5 0l.1.6v-.7c0 .1-.1.1-.1.1zm-.1-23.2h.8-.1l-.2-.7v.6l-.5.1zm-34.5 0h1.1-.4l-.1-.7-.1.3-.5.4zm-6.9-.8l-.3.6-.2.2H8l-.5-.3-.2-.5zm49.4.1l-.1.4-.5.3H56h1-.3V15zm-39.9-1.2h30.4V6.2c-.2-.8-.6-1.4-1.2-1.8-.5-.3-1-.4-1.6-.4H19.2c-.8.1-1.9.7-2.2 1.8-.1.3-.2.6-.2 1.1v6.9zm34.3 0h3.7v-1.4h-3.6c-.1.4-.1 1-.1 1.4zM9.2 12.4v1.4h3.6v-1.4H9.2zm5.1-1.9h.3l.2.7V9.8v.1l-.2.6h-.3zm42.2 0l.2.6v-.7c0 .1-.1.1-.2.1zm-7.3-.2v.8l.1-.4.5-.2c.1 0 .1-.1.2-.1l-.8-.1zm-41.9.2h.5-.5c-.1 0-.1 0 0 0z"/><path d="M8.6 21c.7 0 1.4.6 1.4 1.4s-.6 1.4-1.4 1.4c-.7 0-1.4-.6-1.4-1.4 0-.9.7-1.5 1.4-1.4zm0 1c-.2 0-.4.2-.4.4s.2.4.4.4.4-.2.4-.4c0-.3-.2-.4-.4-.4z"/><path d="M8.6 24.8c-1.3 0-2.4-1.1-2.4-2.4 0-.7.3-1.4.8-1.9.5-.4 1.1-.6 1.6-.5 1.3 0 2.3 1.1 2.3 2.4.1 1.3-1 2.4-2.3 2.4zM8.4 22s-.1 0-.1.1c0 0-.1.1-.1.4 0 .2.2.4.4.4s.4-.2.4-.4c0-.3-.2-.5-.4-.5h-.2c.1 0 .1 0 0 0zm1.6 8.1c0 .8-.6 1.4-1.4 1.4-.7 0-1.4-.6-1.4-1.4s.6-1.4 1.4-1.4c.8 0 1.4.6 1.4 1.4zm-1.4-.4c-.2 0-.4.2-.4.4s.2.4.4.4.4-.2.4-.4-.2-.4-.4-.4z"/><path d="M8.6 32.5c-1.3 0-2.4-1.1-2.4-2.4 0-1.3 1.1-2.4 2.4-2.4s2.4 1.1 2.4 2.4c0 1.3-1.1 2.4-2.4 2.4zm0-2.8c-.2 0-.4.2-.4.4s.2.4.4.4.4-.2.4-.4-.2-.4-.4-.4zM32 50.9H21.1c-.5 0-.9-.4-.9-.9s.3-.9.7-1h22.2c.5.1.9.5.8 1 0 .4-.4.8-.8.8h-.4c-3.6.1-7.2.1-10.7.1z"/><path d="M32 51.9H21.1c-1 0-1.9-.9-1.9-1.9 0-.9.6-1.8 1.5-2h22.6c1.1.2 1.7 1.1 1.6 2.1-.1.9-.9 1.7-1.8 1.7h-.4c-3.6.1-7.2.1-10.7.1zM43 50z"/></svg>