<svg width="58" height="64" xmlns="http://www.w3.org/2000/svg"><path d="M11.226 17.371C11.226 7.777 19.184 0 29 0s17.774 7.777 17.774 17.371c0 5.67-2.779 10.705-7.079 13.876C50.418 35.407 58 45.638 58 57.6v3.657C58 62.772 56.743 64 55.194 64c-1.55 0-2.807-1.228-2.807-2.743V57.6c0-12.624-10.47-22.857-23.387-22.857-12.916 0-23.387 10.233-23.387 22.857v3.657C5.613 62.772 4.356 64 2.806 64S0 62.772 0 61.257V57.6c0-11.962 7.582-22.193 18.305-26.353-4.3-3.17-7.08-8.206-7.08-13.876zM29 5.486c-6.716 0-12.161 5.321-12.161 11.885 0 6.565 5.445 11.886 12.161 11.886 6.716 0 12.161-5.321 12.161-11.886 0-6.564-5.445-11.885-12.161-11.885z"/></svg>