<svg width="277" height="93" fill="none" xmlns="http://www.w3.org/2000/svg"><g clip-path="url(#clip0_1_6)" fill-rule="evenodd" clip-rule="evenodd"><path d="M2.5 19.168l39.367 22.303 39.283-22.45L41.788 0 2.5 19.168z" fill="url(#paint0_linear_1_6)"/><path d="M41.867 41.471l39.283-22.45c-26.6 13.576-52.818 13.625-78.65.149l39.367 22.302z" fill="url(#paint1_linear_1_6)"/><path d="M46.807 49.573l37.422-20.974-7.546 36.903-30.548 27.483.672-43.412z" fill="url(#paint2_linear_1_6)"/><path d="M48.718 49.893c6.649-3.99 20.262-10.931 34.686-19.71-22.579 17.853-33.518 43.334-35.23 60.97-.16-12.773.447-28.185.544-41.26z" fill="url(#paint3_linear_1_6)"/><path d="M37.5 49.59L0 28.757l7.684 36.875L38.335 93 37.5 49.59z" fill="url(#paint4_linear_1_6)"/><path d="M35.59 49.918C28.927 45.952 15.287 39.063.831 30.338c22.646 17.768 34.255 43.722 36.034 61.35.11-12.773-1.385-28.998-1.275-41.77z" fill="url(#paint5_linear_1_6)"/><path d="M277 33.102v11.807h-1.695V34.155c0-3.707-2.108-6.178-5.773-6.178-3.529 0-6.278 2.7-6.278 6.498v10.434h-1.741V19.007h1.741v11.166c1.192-2.105 3.208-3.752 6.552-3.752 4.307 0 6.919 2.745 7.194 6.681zm-28.27 12.219h-1.1c-4.994-.275-8.751-4.485-8.751-9.382v-.045c0-5.08 4.078-9.473 9.255-9.473 3.437 0 5.544 1.556 7.285 3.295l-1.283 1.28c-1.557-1.6-3.344-2.974-6.048-2.974-4.123 0-7.285 3.433-7.285 7.78v.092c0 4.347 3.299 7.825 7.469 7.825 2.52 0 4.536-1.327 6.048-3.02l1.237 1.052c-1.741 1.968-3.803 3.433-6.827 3.57zm-23.459 0h-1.1c-4.215-.229-6.69-3.25-6.69-7.414V26.833h1.742v10.754c0 3.707 2.107 6.178 5.773 6.178 3.528 0 6.277-2.7 6.277-6.453v-10.48h1.741V44.91h-1.741v-3.34c-1.146 2.013-3.024 3.615-6.002 3.752zm-22.131 0h-1.099c-5.086-.275-8.752-4.485-8.752-9.382v-.045c0-5.08 3.986-9.473 9.347-9.473 5.407 0 9.301 4.301 9.301 9.381v.092c0 4.896-3.665 9.152-8.797 9.427zm-63.138 0h-1.1c-4.536-.229-8.384-3.982-8.384-9.427v-.046c0-5.263 3.711-9.427 8.613-9.427 5.086 0 8.294 4.073 8.294 9.473 0 .32 0 .412-.046.686H132.35c.321 4.53 3.574 7.14 7.102 7.14 2.841 0 4.765-1.236 6.232-2.838l1.237 1.052c-1.741 1.877-3.757 3.25-6.919 3.387zm-37.709-.412v-24.85h1.741l17.182 21.646V20.06h1.787v24.849h-1.42L104.08 22.851V44.91h-1.787zm36.747-16.932c-3.574 0-6.369 3.02-6.69 7.047h13.196c-.229-3.661-2.337-7.047-6.506-7.047zm29.553 16.932h-2.199l-6.369-8.054-6.415 8.054h-2.107l7.422-9.198-7.102-8.878h2.154l6.094 7.642 6.139-7.643h2.108l-7.148 8.833 7.423 9.244zm14.02-23.11v23.11h-1.832v-23.11h-8.706v-1.74h19.198v1.74h-8.66zm27.446 14.095c0-4.394-3.299-7.872-7.469-7.872-4.307 0-7.376 3.524-7.376 7.78v.092c0 4.347 3.253 7.825 7.422 7.825 4.307 0 7.423-3.524 7.423-7.78v-.045z" fill="#19488B"/><path d="M112.83 62.802v-8.146h.596v8.146h-.596zm93.607.138h-1.191c-2.153-.275-3.482-2.105-3.482-4.165v-.045c0-2.197 1.604-4.21 4.078-4.21s4.124 1.967 4.124 4.21c0 2.059-1.421 3.935-3.529 4.21zm-55.852 0h-1.146c-2.153-.275-3.528-2.105-3.528-4.165v-.045c0-2.197 1.65-4.21 4.124-4.21 2.474 0 4.123 1.967 4.123 4.21 0 2.059-1.42 3.935-3.573 4.21zm-24.33-.138l-5.773-7.23v7.23h-.55v-8.146h.55l5.635 7.094v-7.094h.596v8.146h-.458zm13.196 0l-5.773-7.23v7.23h-.596v-8.146h.596l5.635 7.094v-7.094h.596v8.146h-.458zm14.066-4.072c0-2.014-1.466-3.662-3.482-3.662s-3.482 1.648-3.482 3.662c0 2.013 1.466 3.706 3.482 3.706s3.482-1.647 3.482-3.66v-.047zm9.622 4.164h-.55l-3.574-8.238h.688l3.161 7.506 3.207-7.506h.642l-3.574 8.238zm14.937-.092l-1.008-2.242h-4.811l-1.054 2.242h-.641l3.802-8.191h.596l3.803 8.191h-.687zm-3.437-7.505l-2.153 4.714h4.307l-2.154-4.714zm11.638-.045v7.55h-.595v-7.55h-2.841v-.596h6.277v.596h-2.841zm8.752 7.55v-8.146h.595v8.146h-.595zm14.295-4.072c0-2.014-1.466-3.662-3.482-3.662s-3.482 1.648-3.482 3.662c0 2.013 1.466 3.706 3.482 3.706s3.482-1.647 3.482-3.66v-.047zm13.013 4.072l-5.774-7.23v7.23h-.549v-8.146h.549l5.636 7.094v-7.094h.596v8.146h-.458zm14.341 0v-8.146h.595v7.597h4.766v.55h-5.361zm17.548 0l-1.053-2.242h-4.811l-1.054 2.242h-.642l3.803-8.191h.596l3.803 8.191h-.642zm-3.482-7.505l-2.153 4.714h4.307l-2.154-4.714zm15.854 5.263v.046c0 1.373-1.192 2.196-2.933 2.196h-3.574v-8.146h3.391c.916 0 1.649.275 2.107.733.367.366.55.778.55 1.281v.046c0 1.098-.733 1.647-1.42 1.922 1.008.274 1.879.824 1.879 1.922zm-1.1-3.798v-.046c0-.87-.733-1.465-2.016-1.465h-2.749v3.204h2.657c1.237 0 2.108-.595 2.108-1.693zm.458 3.798c0-.961-.871-1.556-2.474-1.556h-2.749v3.25h2.932c1.42 0 2.291-.642 2.291-1.648v-.046z" fill="#566080"/></g><defs><linearGradient id="paint0_linear_1_6" x1="41.867" y1="41.471" x2="41.789" y2="0" gradientUnits="userSpaceOnUse"><stop stop-color="#E02F80"/><stop offset="1" stop-color="#723685"/></linearGradient><linearGradient id="paint1_linear_1_6" x1="41.87" y1="42.923" x2="41.836" y2="25.054" gradientUnits="userSpaceOnUse"><stop stop-color="#E02F80"/><stop offset="1" stop-color="#723685"/></linearGradient><linearGradient id="paint2_linear_1_6" x1="61.961" y1="79.427" x2="65.264" y2="41.873" gradientUnits="userSpaceOnUse"><stop stop-color="#F1A721"/><stop offset=".95" stop-color="#D94E26"/><stop offset="1" stop-color="#D94E26"/></linearGradient><linearGradient id="paint3_linear_1_6" x1="40.623" y1="81.831" x2="76.609" y2="29.682" gradientUnits="userSpaceOnUse"><stop stop-color="#D73E27"/><stop offset="1" stop-color="#EF9F20"/></linearGradient><linearGradient id="paint4_linear_1_6" x1="12.202" y1="42.137" x2="33.855" y2="74.464" gradientUnits="userSpaceOnUse"><stop stop-color="#53BBEA"/><stop offset="1" stop-color="#D6E9F1"/></linearGradient><linearGradient id="paint5_linear_1_6" x1="44.985" y1="-2.147" x2="-8.215" y2="126.722" gradientUnits="userSpaceOnUse"><stop stop-color="#B2D9E7"/><stop offset="1" stop-color="#45B8E7"/></linearGradient><clipPath id="clip0_1_6"><path fill="#fff" d="M0 0h277v93H0z"/></clipPath></defs></svg>