<svg width="227" height="75" fill="none" xmlns="http://www.w3.org/2000/svg"><g clip-path="url(#clip0_28_116)" fill-rule="evenodd" clip-rule="evenodd"><path d="M2.048 15.458L34.31 33.444 66.502 15.34 34.245 0 2.048 15.458z" fill="url(#paint0_linear_28_116)"/><path d="M34.31 33.444c10.729-6.035 21.46-12.07 32.192-18.104-21.8 10.947-43.284 10.987-64.454.12L34.31 33.443z" fill="url(#paint1_linear_28_116)"/><path d="M38.358 39.978l30.667-16.915-6.184 29.762-25.033 22.163.55-35.01z" fill="url(#paint2_linear_28_116)"/><path d="M39.924 40.236c5.449-3.218 16.605-8.815 28.425-15.895C49.846 38.738 40.88 59.288 39.478 73.51c-.13-10.3.367-22.73.446-33.274z" fill="url(#paint3_linear_28_116)"/><path d="M30.73 39.992L0 23.191l6.297 29.738L31.416 75l-.685-35.008z" fill="url(#paint4_linear_28_116)"/><path d="M29.166 40.256c-5.46-3.198-16.639-8.754-28.485-15.79 18.558 14.329 28.072 35.26 29.53 49.476.09-10.3-1.135-23.385-1.045-33.686z" fill="url(#paint5_linear_28_116)"/><path d="M227 26.695v9.522h-1.389v-8.673c0-2.99-1.727-4.982-4.731-4.982-2.892 0-5.144 2.177-5.144 5.24v8.415h-1.427V15.328h1.427v9.005c.976-1.697 2.628-3.026 5.369-3.026 3.529 0 5.67 2.214 5.895 5.388zm-23.167 9.854h-.901c-4.093-.221-7.172-3.617-7.172-7.566v-.037c0-4.096 3.342-7.64 7.585-7.64 2.816 0 4.543 1.256 5.97 2.658l-1.052 1.033c-1.276-1.291-2.741-2.398-4.956-2.398-3.379 0-5.97 2.767-5.97 6.274v.073c0 3.506 2.703 6.311 6.12 6.311 2.065 0 3.718-1.07 4.957-2.435l1.013.848c-1.426 1.587-3.116 2.768-5.594 2.879zm-19.225 0h-.901c-3.455-.184-5.482-2.62-5.482-5.979v-8.93h1.427v8.673c0 2.99 1.727 4.982 4.731 4.982 2.891 0 5.144-2.177 5.144-5.203V21.64h1.427v14.578h-1.427v-2.694c-.939 1.623-2.478 2.915-4.919 3.026zm-18.136 0h-.901c-4.168-.221-7.172-3.617-7.172-7.566v-.037c0-4.096 3.267-7.64 7.66-7.64 4.431 0 7.623 3.47 7.623 7.567v.073c0 3.95-3.004 7.382-7.21 7.603zm-51.741 0h-.901c-3.717-.184-6.871-3.21-6.871-7.603v-.037c0-4.244 3.041-7.602 7.058-7.602 4.168 0 6.797 3.285 6.797 7.64 0 .258 0 .332-.038.553H108.46c.263 3.654 2.929 5.757 5.82 5.757 2.328 0 3.905-.996 5.107-2.288l1.014.849c-1.427 1.513-3.079 2.62-5.67 2.73zm-30.902-.332v-20.04h1.427l14.08 17.456V16.177h1.465v20.04h-1.164L85.293 18.428v17.789H83.83zm30.113-13.655c-2.928 0-5.219 2.435-5.482 5.683h10.814c-.187-2.952-1.915-5.683-5.332-5.683zm24.219 13.655h-1.802l-5.219-6.496-5.257 6.496h-1.727l6.082-7.418-5.82-7.16h1.765l4.994 6.163 5.031-6.163h1.728l-5.858 7.123 6.083 7.455zm11.49-18.638v18.638h-1.502V17.579h-7.134v-1.402h15.732v1.402h-7.096zm22.491 11.367c0-3.543-2.703-6.347-6.12-6.347-3.53 0-6.046 2.841-6.046 6.274v.073c0 3.506 2.666 6.311 6.083 6.311 3.53 0 6.083-2.841 6.083-6.274v-.037z" fill="#19488B"/><path d="M92.464 50.647v-6.57h.488v6.57h-.488zm76.71.11h-.976c-1.765-.22-2.853-1.697-2.853-3.358v-.037c0-1.771 1.314-3.395 3.341-3.395 2.028 0 3.38 1.587 3.38 3.395 0 1.661-1.164 3.174-2.892 3.396zm-45.771 0h-.938c-1.765-.22-2.892-1.697-2.892-3.358v-.037c0-1.771 1.352-3.395 3.38-3.395 2.027 0 3.379 1.587 3.379 3.395 0 1.661-1.164 3.174-2.929 3.396zm-19.938-.11l-4.73-5.831v5.831h-.451v-6.57h.45l4.619 5.721v-5.72h.488v6.57h-.376zm10.814 0l-4.731-5.831v5.831h-.488v-6.57h.488l4.618 5.721v-5.72h.489v6.57h-.376zm11.527-3.285c0-1.623-1.201-2.952-2.853-2.952-1.652 0-2.854 1.329-2.854 2.953 0 1.623 1.202 2.989 2.854 2.989 1.652 0 2.853-1.329 2.853-2.953v-.037zm7.885 3.359h-.45l-2.929-6.643h.563l2.591 6.052 2.629-6.052h.525l-2.929 6.643zm12.241-.074l-.826-1.808h-3.942l-.864 1.808h-.526l3.117-6.606h.488l3.116 6.606h-.563zm-2.816-6.053l-1.765 3.802h3.53l-1.765-3.802zm9.537-.036v6.09h-.488v-6.09h-2.328v-.48h5.144v.48h-2.328zm7.172 6.09v-6.57h.488v6.57h-.488zm11.715-3.286c0-1.623-1.202-2.952-2.854-2.952-1.652 0-2.853 1.329-2.853 2.953 0 1.623 1.201 2.989 2.853 2.989 1.652 0 2.854-1.329 2.854-2.953v-.037zm10.664 3.285l-4.731-5.831v5.831h-.451v-6.57h.451l4.618 5.721v-5.72h.488v6.57h-.375zm11.752 0v-6.57h.488v6.127h3.905v.443h-4.393zm14.381 0l-.863-1.808h-3.943l-.864 1.808h-.525l3.116-6.606h.488l3.117 6.606h-.526zm-2.853-6.053l-1.765 3.802h3.529l-1.764-3.802zm12.991 4.245v.037c0 1.107-.976 1.771-2.403 1.771h-2.929v-6.57h2.779c.751 0 1.352.222 1.727.591.301.296.451.628.451 1.034v.037c0 .885-.601 1.328-1.164 1.55.826.221 1.539.664 1.539 1.55zm-.901-3.063v-.037c0-.702-.601-1.181-1.652-1.181h-2.253v2.583h2.178c1.014 0 1.727-.48 1.727-1.365zm.376 3.063c0-.775-.714-1.255-2.028-1.255h-2.253v2.62h2.403c1.164 0 1.878-.517 1.878-1.328v-.037z" fill="#566080"/></g><defs><linearGradient id="paint0_linear_28_116" x1="34.31" y1="33.444" x2="34.248" y2="0" gradientUnits="userSpaceOnUse"><stop stop-color="#E02F80"/><stop offset="1" stop-color="#723685"/></linearGradient><linearGradient id="paint1_linear_28_116" x1="34.312" y1="34.616" x2="34.285" y2="20.204" gradientUnits="userSpaceOnUse"><stop stop-color="#E02F80"/><stop offset="1" stop-color="#723685"/></linearGradient><linearGradient id="paint2_linear_28_116" x1="50.776" y1="64.055" x2="53.399" y2="33.761" gradientUnits="userSpaceOnUse"><stop stop-color="#F1A721"/><stop offset=".95" stop-color="#D94E26"/><stop offset="1" stop-color="#D94E26"/></linearGradient><linearGradient id="paint3_linear_28_116" x1="33.29" y1="65.993" x2="62.144" y2="23.504" gradientUnits="userSpaceOnUse"><stop stop-color="#D73E27"/><stop offset="1" stop-color="#EF9F20"/></linearGradient><linearGradient id="paint4_linear_28_116" x1="10" y1="33.982" x2="27.354" y2="60.309" gradientUnits="userSpaceOnUse"><stop stop-color="#53BBEA"/><stop offset="1" stop-color="#D6E9F1"/></linearGradient><linearGradient id="paint5_linear_28_116" x1="36.865" y1="-1.732" x2="-5.551" y2="102.676" gradientUnits="userSpaceOnUse"><stop stop-color="#B2D9E7"/><stop offset="1" stop-color="#45B8E7"/></linearGradient><clipPath id="clip0_28_116"><path fill="#fff" d="M0 0h227v75H0z"/></clipPath></defs></svg>