<svg xmlns="http://www.w3.org/2000/svg" xmlns:xlink="http://www.w3.org/1999/xlink" width="500" height="500"><defs><path id="block" fill="#fff" fill-opacity="1" d="M0 0h20v20H0z"/></defs><path fill="none" d="M0 0h500v500H0z"/><use xlink:href="#block"/><use x="20" xlink:href="#block"/><use x="40" xlink:href="#block"/><use x="60" xlink:href="#block"/><use x="80" xlink:href="#block"/><use x="100" xlink:href="#block"/><use x="120" xlink:href="#block"/><use x="180" xlink:href="#block"/><use x="200" xlink:href="#block"/><use x="220" xlink:href="#block"/><use x="240" xlink:href="#block"/><use x="260" xlink:href="#block"/><use x="360" xlink:href="#block"/><use x="380" xlink:href="#block"/><use x="400" xlink:href="#block"/><use x="420" xlink:href="#block"/><use x="440" xlink:href="#block"/><use x="460" xlink:href="#block"/><use x="480" xlink:href="#block"/><use y="20" xlink:href="#block"/><use x="120" y="20" xlink:href="#block"/><use x="240" y="20" xlink:href="#block"/><use x="260" y="20" xlink:href="#block"/><use x="280" y="20" xlink:href="#block"/><use x="320" y="20" xlink:href="#block"/><use x="360" y="20" xlink:href="#block"/><use x="480" y="20" xlink:href="#block"/><use y="40" xlink:href="#block"/><use x="40" y="40" xlink:href="#block"/><use x="60" y="40" xlink:href="#block"/><use x="80" y="40" xlink:href="#block"/><use x="120" y="40" xlink:href="#block"/><use x="160" y="40" xlink:href="#block"/><use x="180" y="40" xlink:href="#block"/><use x="220" y="40" xlink:href="#block"/><use x="280" y="40" xlink:href="#block"/><use x="320" y="40" xlink:href="#block"/><use x="360" y="40" xlink:href="#block"/><use x="400" y="40" xlink:href="#block"/><use x="420" y="40" xlink:href="#block"/><use x="440" y="40" xlink:href="#block"/><use x="480" y="40" xlink:href="#block"/><use y="60" xlink:href="#block"/><use x="40" y="60" xlink:href="#block"/><use x="60" y="60" xlink:href="#block"/><use x="80" y="60" xlink:href="#block"/><use x="120" y="60" xlink:href="#block"/><use x="160" y="60" xlink:href="#block"/><use x="240" y="60" xlink:href="#block"/><use x="280" y="60" xlink:href="#block"/><use x="320" y="60" xlink:href="#block"/><use x="360" y="60" xlink:href="#block"/><use x="400" y="60" xlink:href="#block"/><use x="420" y="60" xlink:href="#block"/><use x="440" y="60" xlink:href="#block"/><use x="480" y="60" xlink:href="#block"/><use y="80" xlink:href="#block"/><use x="40" y="80" xlink:href="#block"/><use x="60" y="80" xlink:href="#block"/><use x="80" y="80" xlink:href="#block"/><use x="120" y="80" xlink:href="#block"/><use x="180" y="80" xlink:href="#block"/><use x="240" y="80" xlink:href="#block"/><use x="260" y="80" xlink:href="#block"/><use x="280" y="80" xlink:href="#block"/><use x="300" y="80" xlink:href="#block"/><use x="360" y="80" xlink:href="#block"/><use x="400" y="80" xlink:href="#block"/><use x="420" y="80" xlink:href="#block"/><use x="440" y="80" xlink:href="#block"/><use x="480" y="80" xlink:href="#block"/><use y="100" xlink:href="#block"/><use x="120" y="100" xlink:href="#block"/><use x="180" y="100" xlink:href="#block"/><use x="280" y="100" xlink:href="#block"/><use x="300" y="100" xlink:href="#block"/><use x="360" y="100" xlink:href="#block"/><use x="480" y="100" xlink:href="#block"/><use y="120" xlink:href="#block"/><use x="20" y="120" xlink:href="#block"/><use x="40" y="120" xlink:href="#block"/><use x="60" y="120" xlink:href="#block"/><use x="80" y="120" xlink:href="#block"/><use x="100" y="120" xlink:href="#block"/><use x="120" y="120" xlink:href="#block"/><use x="160" y="120" xlink:href="#block"/><use x="200" y="120" xlink:href="#block"/><use x="240" y="120" xlink:href="#block"/><use x="280" y="120" xlink:href="#block"/><use x="320" y="120" xlink:href="#block"/><use x="360" y="120" xlink:href="#block"/><use x="380" y="120" xlink:href="#block"/><use x="400" y="120" xlink:href="#block"/><use x="420" y="120" xlink:href="#block"/><use x="440" y="120" xlink:href="#block"/><use x="460" y="120" xlink:href="#block"/><use x="480" y="120" xlink:href="#block"/><use x="200" y="140" xlink:href="#block"/><use x="220" y="140" xlink:href="#block"/><use x="320" y="140" xlink:href="#block"/><use x="60" y="160" xlink:href="#block"/><use x="80" y="160" xlink:href="#block"/><use x="120" y="160" xlink:href="#block"/><use x="140" y="160" xlink:href="#block"/><use x="200" y="160" xlink:href="#block"/><use x="220" y="160" xlink:href="#block"/><use x="300" y="160" xlink:href="#block"/><use x="320" y="160" xlink:href="#block"/><use x="420" y="160" xlink:href="#block"/><use x="440" y="160" xlink:href="#block"/><use y="180" xlink:href="#block"/><use x="20" y="180" xlink:href="#block"/><use x="40" y="180" xlink:href="#block"/><use x="60" y="180" xlink:href="#block"/><use x="80" y="180" xlink:href="#block"/><use x="100" y="180" xlink:href="#block"/><use x="180" y="180" xlink:href="#block"/><use x="200" y="180" xlink:href="#block"/><use x="240" y="180" xlink:href="#block"/><use x="280" y="180" xlink:href="#block"/><use x="320" y="180" xlink:href="#block"/><use x="360" y="180" xlink:href="#block"/><use x="400" y="180" xlink:href="#block"/><use x="420" y="180" xlink:href="#block"/><use x="440" y="180" xlink:href="#block"/><use x="460" y="180" xlink:href="#block"/><use x="480" y="180" xlink:href="#block"/><use y="200" xlink:href="#block"/><use x="60" y="200" xlink:href="#block"/><use x="80" y="200" xlink:href="#block"/><use x="120" y="200" xlink:href="#block"/><use x="200" y="200" xlink:href="#block"/><use x="300" y="200" xlink:href="#block"/><use x="320" y="200" xlink:href="#block"/><use x="340" y="200" xlink:href="#block"/><use x="380" y="200" xlink:href="#block"/><use x="400" y="200" xlink:href="#block"/><use x="460" y="200" xlink:href="#block"/><use x="480" y="200" xlink:href="#block"/><use x="20" y="220" xlink:href="#block"/><use x="40" y="220" xlink:href="#block"/><use x="60" y="220" xlink:href="#block"/><use x="80" y="220" xlink:href="#block"/><use x="100" y="220" xlink:href="#block"/><use x="160" y="220" xlink:href="#block"/><use x="180" y="220" xlink:href="#block"/><use x="220" y="220" xlink:href="#block"/><use x="240" y="220" xlink:href="#block"/><use x="260" y="220" xlink:href="#block"/><use x="300" y="220" xlink:href="#block"/><use x="320" y="220" xlink:href="#block"/><use x="380" y="220" xlink:href="#block"/><use x="400" y="220" xlink:href="#block"/><use x="440" y="220" xlink:href="#block"/><use x="480" y="220" xlink:href="#block"/><use y="240" xlink:href="#block"/><use x="120" y="240" xlink:href="#block"/><use x="140" y="240" xlink:href="#block"/><use x="160" y="240" xlink:href="#block"/><use x="240" y="240" xlink:href="#block"/><use x="260" y="240" xlink:href="#block"/><use x="280" y="240" xlink:href="#block"/><use x="300" y="240" xlink:href="#block"/><use x="320" y="240" xlink:href="#block"/><use x="360" y="240" xlink:href="#block"/><use x="380" y="240" xlink:href="#block"/><use x="420" y="240" xlink:href="#block"/><use x="480" y="240" xlink:href="#block"/><use y="260" xlink:href="#block"/><use x="20" y="260" xlink:href="#block"/><use x="60" y="260" xlink:href="#block"/><use x="80" y="260" xlink:href="#block"/><use x="100" y="260" xlink:href="#block"/><use x="160" y="260" xlink:href="#block"/><use x="220" y="260" xlink:href="#block"/><use x="320" y="260" xlink:href="#block"/><use x="360" y="260" xlink:href="#block"/><use x="460" y="260" xlink:href="#block"/><use x="480" y="260" xlink:href="#block"/><use y="280" xlink:href="#block"/><use x="20" y="280" xlink:href="#block"/><use x="40" y="280" xlink:href="#block"/><use x="80" y="280" xlink:href="#block"/><use x="120" y="280" xlink:href="#block"/><use x="180" y="280" xlink:href="#block"/><use x="200" y="280" xlink:href="#block"/><use x="240" y="280" xlink:href="#block"/><use x="260" y="280" xlink:href="#block"/><use x="280" y="280" xlink:href="#block"/><use x="320" y="280" xlink:href="#block"/><use x="360" y="280" xlink:href="#block"/><use x="400" y="280" xlink:href="#block"/><use x="420" y="280" xlink:href="#block"/><use y="300" xlink:href="#block"/><use x="220" y="300" xlink:href="#block"/><use x="240" y="300" xlink:href="#block"/><use x="280" y="300" xlink:href="#block"/><use x="300" y="300" xlink:href="#block"/><use x="360" y="300" xlink:href="#block"/><use x="420" y="300" xlink:href="#block"/><use x="480" y="300" xlink:href="#block"/><use y="320" xlink:href="#block"/><use x="60" y="320" xlink:href="#block"/><use x="80" y="320" xlink:href="#block"/><use x="100" y="320" xlink:href="#block"/><use x="120" y="320" xlink:href="#block"/><use x="180" y="320" xlink:href="#block"/><use x="200" y="320" xlink:href="#block"/><use x="240" y="320" xlink:href="#block"/><use x="260" y="320" xlink:href="#block"/><use x="320" y="320" xlink:href="#block"/><use x="340" y="320" xlink:href="#block"/><use x="360" y="320" xlink:href="#block"/><use x="380" y="320" xlink:href="#block"/><use x="400" y="320" xlink:href="#block"/><use x="460" y="320" xlink:href="#block"/><use x="480" y="320" xlink:href="#block"/><use x="160" y="340" xlink:href="#block"/><use x="200" y="340" xlink:href="#block"/><use x="220" y="340" xlink:href="#block"/><use x="240" y="340" xlink:href="#block"/><use x="260" y="340" xlink:href="#block"/><use x="280" y="340" xlink:href="#block"/><use x="300" y="340" xlink:href="#block"/><use x="320" y="340" xlink:href="#block"/><use x="400" y="340" xlink:href="#block"/><use x="420" y="340" xlink:href="#block"/><use x="460" y="340" xlink:href="#block"/><use x="480" y="340" xlink:href="#block"/><use y="360" xlink:href="#block"/><use x="20" y="360" xlink:href="#block"/><use x="40" y="360" xlink:href="#block"/><use x="60" y="360" xlink:href="#block"/><use x="80" y="360" xlink:href="#block"/><use x="100" y="360" xlink:href="#block"/><use x="120" y="360" xlink:href="#block"/><use x="160" y="360" xlink:href="#block"/><use x="180" y="360" xlink:href="#block"/><use x="240" y="360" xlink:href="#block"/><use x="300" y="360" xlink:href="#block"/><use x="320" y="360" xlink:href="#block"/><use x="360" y="360" xlink:href="#block"/><use x="400" y="360" xlink:href="#block"/><use x="440" y="360" xlink:href="#block"/><use x="480" y="360" xlink:href="#block"/><use y="380" xlink:href="#block"/><use x="120" y="380" xlink:href="#block"/><use x="180" y="380" xlink:href="#block"/><use x="240" y="380" xlink:href="#block"/><use x="260" y="380" xlink:href="#block"/><use x="280" y="380" xlink:href="#block"/><use x="320" y="380" xlink:href="#block"/><use x="400" y="380" xlink:href="#block"/><use y="400" xlink:href="#block"/><use x="40" y="400" xlink:href="#block"/><use x="60" y="400" xlink:href="#block"/><use x="80" y="400" xlink:href="#block"/><use x="120" y="400" xlink:href="#block"/><use x="160" y="400" xlink:href="#block"/><use x="180" y="400" xlink:href="#block"/><use x="200" y="400" xlink:href="#block"/><use x="300" y="400" xlink:href="#block"/><use x="320" y="400" xlink:href="#block"/><use x="340" y="400" xlink:href="#block"/><use x="360" y="400" xlink:href="#block"/><use x="380" y="400" xlink:href="#block"/><use x="400" y="400" xlink:href="#block"/><use x="420" y="400" xlink:href="#block"/><use x="440" y="400" xlink:href="#block"/><use y="420" xlink:href="#block"/><use x="40" y="420" xlink:href="#block"/><use x="60" y="420" xlink:href="#block"/><use x="80" y="420" xlink:href="#block"/><use x="120" y="420" xlink:href="#block"/><use x="160" y="420" xlink:href="#block"/><use x="180" y="420" xlink:href="#block"/><use x="220" y="420" xlink:href="#block"/><use x="260" y="420" xlink:href="#block"/><use x="280" y="420" xlink:href="#block"/><use x="300" y="420" xlink:href="#block"/><use x="320" y="420" xlink:href="#block"/><use x="360" y="420" xlink:href="#block"/><use x="400" y="420" xlink:href="#block"/><use x="460" y="420" xlink:href="#block"/><use x="480" y="420" xlink:href="#block"/><use y="440" xlink:href="#block"/><use x="40" y="440" xlink:href="#block"/><use x="60" y="440" xlink:href="#block"/><use x="80" y="440" xlink:href="#block"/><use x="120" y="440" xlink:href="#block"/><use x="180" y="440" xlink:href="#block"/><use x="300" y="440" xlink:href="#block"/><use x="340" y="440" xlink:href="#block"/><use x="360" y="440" xlink:href="#block"/><use x="400" y="440" xlink:href="#block"/><use x="440" y="440" xlink:href="#block"/><use x="460" y="440" xlink:href="#block"/><use x="480" y="440" xlink:href="#block"/><use y="460" xlink:href="#block"/><use x="120" y="460" xlink:href="#block"/><use x="200" y="460" xlink:href="#block"/><use x="260" y="460" xlink:href="#block"/><use x="280" y="460" xlink:href="#block"/><use x="320" y="460" xlink:href="#block"/><use x="380" y="460" xlink:href="#block"/><use y="480" xlink:href="#block"/><use x="20" y="480" xlink:href="#block"/><use x="40" y="480" xlink:href="#block"/><use x="60" y="480" xlink:href="#block"/><use x="80" y="480" xlink:href="#block"/><use x="100" y="480" xlink:href="#block"/><use x="120" y="480" xlink:href="#block"/><use x="240" y="480" xlink:href="#block"/><use x="340" y="480" xlink:href="#block"/><use x="420" y="480" xlink:href="#block"/><use x="480" y="480" xlink:href="#block"/></svg>