<?xml version="1.0" encoding="utf-8"?><svg viewBox="0 0 500 500" xmlns="http://www.w3.org/2000/svg" xmlns:xlink="http://www.w3.org/1999/xlink"><style>:root>svg{display:none}:root>svg:target{display:block}</style><svg viewBox="0 0 59 24" id="arrow" xmlns="http://www.w3.org/2000/svg"><path d="M.94 10.94a1.5 1.5 0 0 0 0 2.12l9.545 9.547a1.5 1.5 0 1 0 2.122-2.122L4.12 12l8.486-8.485a1.5 1.5 0 1 0-2.122-2.122L.94 10.94ZM59 10.5H2v3h57v-3Z"/></svg><svg viewBox="0 0 91 88" xml:space="preserve" id="battery" xmlns="http://www.w3.org/2000/svg"><path d="M8.7 7.5h6.6V5.9c.1-2.3 1.3-4 3.4-4.6 2-.6 4 0 5.4 1.7.1.1.2.2.3.4 1-1.5 2.4-2.4 4.2-2.4 1.8 0 3.2.8 4.3 2.4 1-1.5 2.4-2.4 4.2-2.4 1.8 0 3.2.8 4.2 2.3 2.4-3.3 6.4-3 8.6 0 2-2.9 6-3.3 8.5 0 1-1.5 2.4-2.4 4.3-2.3 1.8 0 3.2.9 4.2 2.4 1.4-2 3.3-2.9 5.6-2.2 3 .9 3.7 3.3 3.5 6.2 4.7.3 8.5 2.2 11.3 5.9 2.2 2.9 3.1 6.3 2.9 10-.4 5.6-4.8 12.7-14.1 13.4V51c4.8.3 8.7 2.3 11.5 6.3 2.1 2.9 2.9 6.3 2.6 9.8-.6 6-5.2 12.5-14.2 13.2v1.6c-.1 2.2-1.4 4-3.4 4.6-2 .6-4 0-5.4-1.8-.1-.1-.2-.2-.3-.4-2.8 3.5-6.7 2.7-8.5 0-3.2 3.1-5.9 3.1-8.5-.1-1.1 1.4-2.4 2.4-4.3 2.4-1.8 0-3.2-.9-4.2-2.4-1.1 1.5-2.4 2.4-4.3 2.4-1.8 0-3.1-.9-4.2-2.3-2.7 3.2-5.5 3.2-8.5 0-1.4 2-3.3 2.8-5.7 2.1-2.9-.9-3.6-3.3-3.4-6.2H8.8l-.1.1c-.2 2.4-.9 3.1-3.3 3.1H3.2c-1.2-.1-2.1-1-2.1-2.2v-9.5c0-1.2 1-2.1 2.2-2.2h3c1.5.1 2.2 1.1 2.4 3.2h6.5V58.5C5.9 57.9 1.1 50.4 1 44.1c-.1-6.4 4.8-14.3 14.2-14.9V15H8.7v.8c-.1 1.3-1.1 2.3-2.4 2.3H3.6c-1.4 0-2.4-1-2.4-2.4V6.6c0-1.3.9-2.2 2.2-2.3.9-.1 1.9-.1 2.8 0 1.6.1 2.4 1 2.5 2.6-.1.1 0 .3 0 .6zm32 36.4v-38c0-2.3-2-3.9-4.3-3.5-1.8.3-3 1.8-3 3.9v75.8c.2 1.8 1.4 3.1 3.1 3.3 2.4.3 4.1-1.3 4.1-3.8.1-12.6.1-25.1.1-37.7zm9.8 0v37.9c0 1.9 1.3 3.4 3.1 3.6 2 .2 3.6-.9 4-2.8.1-.5.1-1 .1-1.5V5.8c-.1-1.7-1.3-3-2.9-3.4-2.4-.5-4.4 1.2-4.4 3.7.1 12.6.1 25.2.1 37.8zm-18.3 0V5.6c0-1.7-1.4-3.1-3.2-3.3-1.7-.2-3.4.8-3.8 2.4-.2.7-.2 1.4-.2 2V81c0 .6 0 1.1.1 1.7.3 1.4 1.6 2.5 3 2.7 2.2.3 4.1-1.5 4.1-3.9V43.9zm26.9 0V82c0 1.7 1.3 3.2 2.8 3.4 1.8.3 3.5-.6 4.1-2.3.2-.6.3-1.2.3-1.9V6.5c0-.4 0-.8-.1-1.2-.4-2.2-2.3-3.4-4.4-2.9-1.7.4-2.7 1.8-2.7 3.8v37.7zm8.4-.1v38.4c.1 1.7 1.5 3 3.2 3.2 1.8.2 3.4-.9 3.8-2.6.1-.6.2-1.3.2-1.9V6.7c0-.4 0-.9-.1-1.3-.2-1.7-1.5-3-3.3-3.1-1.6-.2-3.2.8-3.7 2.4-.2.6-.2 1.3-.2 2 .1 12.3.1 24.7.1 37.1zm-43.8.1V5.5c-.2-1.7-1.5-3-3.3-3.2-1.6-.2-3.3.9-3.7 2.5-.2.6-.2 1.3-.2 2V81c0 .5 0 1.1.1 1.6.3 1.6 1.8 2.8 3.5 2.8s3.2-1.3 3.5-2.9c.1-.5.1-1 .1-1.5V43.9zm25.5.1V5.9c0-2.4-2.1-4-4.4-3.5-1.7.4-2.8 1.8-2.8 3.9v75.9c.1 1.8 1.5 3.2 3.3 3.3 2.3.2 3.9-1.4 3.9-3.8V44zm26.9-8.6c4.7-.4 8.5-2.3 10.9-6.4 2.9-4.8 2.8-9.7-.4-14.4-2.5-3.7-6-5.6-10.5-5.8v4.7c4.6.8 7.5 3.4 8 7.3.2 1.9 0 3.7-.9 5.3-1.6 2.8-4 4.2-7.1 4.5v4.8zM15.2 52.5c-5.5-1.5-8-4.1-8.1-8.3 0-1.9.5-3.7 1.6-5.2 1.6-2.2 3.8-3.3 6.5-3.6v-4.8c-4.8.4-8.6 2.4-11 6.6-2.7 4.7-2.6 9.4.3 14C7 55 10.6 57 15.2 57.3v-4.8zm60.9 4.7c2.2.3 4.2 1 5.8 2.7 1.6 1.7 2.3 3.7 2.3 6 0 1.9-.6 3.5-1.8 5-1.6 2.1-3.8 3.1-6.3 3.3V79c4.7-.3 8.4-2.3 10.9-6.3 2.8-4.6 2.8-9.4 0-13.9-2.4-4-6.1-6-10.9-6.3v4.7zm0-27.9c4.4-.3 7.4-4.1 6.7-8.4-.5-3.3-4.1-6.4-6.7-5.8v14.2zm0 43.5c3.7 0 6.7-3.3 6.8-7.1 0-3.9-3.1-7.2-6.8-7.2v14.3zm-60.9-36c-3.6-.2-6.8 3.3-6.8 7.2 0 3.8 3.3 7.3 6.8 7.1V36.8zM2.3 11.1v4.4c0 1 .4 1.3 1.3 1.3h2.3c1 0 1.4-.4 1.4-1.4V6.8c0-.9-.4-1.3-1.3-1.4H3.8c-1.1.1-1.5.5-1.5 1.6v4.1zm5 65.5v-4.4c0-.8-.4-1.2-1.2-1.2H3.5c-.8 0-1.2.4-1.2 1.2V81c0 .9.5 1.3 1.3 1.3h2.2c1.2 0 1.5-.4 1.5-1.5v-4.2zm7.9-63.1V8.9H8.7v4.7h6.5zm0 65.4v-4.7H8.7v4.7h6.5z"/><path d="M28.7 87.3c-1.4 0-2.9-.7-4.4-2.1-1.6 1.9-3.6 2.5-5.9 1.8-2.7-.9-3.9-2.9-3.8-6.1H9.1C8.9 83.3 8 84 5.4 84H3.2C1.8 83.9.7 82.7.6 81.3v-9.5c0-1.4 1.2-2.6 2.7-2.7h3.1c1.6.1 2.6 1.1 2.8 3.2h5.6V59C5.6 58.1.6 50.7.5 44.1c-.1-7 5.1-14.5 14.2-15.4V15.5H9.1v.4c-.2 1.6-1.3 2.7-2.9 2.8H3.4C1.7 18.6.5 17.4.5 15.8V6.7C.5 5.1 1.6 4 3.2 3.9c.9-.1 1.9-.1 2.9 0 1.9-.1 2.9 1 3 2.9V7h5.6V5.9c.1-2.5 1.5-4.4 3.7-5.1 2.2-.7 4.4 0 5.9 1.8C25.5 1.2 26.9.5 28.5.5c1.8 0 3.2.7 4.3 2.1C34 1.2 35.4.5 37.1.5c1.7 0 3.1.7 4.2 2 1.2-1.3 2.7-2 4.3-2 1.6 0 3.1.7 4.2 2 1.1-1.3 2.5-2 4.1-2 1.6-.1 3.2.7 4.4 2 1.1-1.4 2.6-2 4.3-2 1.7 0 3 .7 4.2 2.1C68.4.7 70.4.1 72.6.8c2.7.8 4 2.9 3.9 6.2 4.7.4 8.5 2.4 11.2 6 2.2 2.9 3.2 6.4 3 10.3-.4 6.2-5.4 12.9-14.1 13.9v13.4c4.9.5 8.7 2.6 11.4 6.4 2.1 3 3 6.4 2.7 10.2-.6 5.9-5.2 12.6-14.1 13.5v1.1c-.1 2.5-1.5 4.4-3.7 5.1-2.2.7-4.3 0-5.8-1.8-1.3 1.4-2.9 2.1-4.5 2.1-1.5-.1-3-.8-4-2.1-1.6 1.5-3.1 2.2-4.6 2.1-1.3-.1-2.6-.8-3.8-2.1-1.2 1.4-2.6 2.1-4.2 2.1-1.7 0-3.1-.7-4.2-2.1-1.2 1.4-2.7 2.1-4.3 2.1-1.6 0-3-.7-4.2-2.1-1.3 1.4-2.6 2.1-4 2.1-.5.1-.5.1-.6.1zm-4.4-3.7.4.4c1.4 1.5 2.8 2.2 4.2 2.2 1.2 0 2.5-.8 3.7-2.2l.4-.5.4.5c1.1 1.5 2.3 2.1 3.8 2.1 1.6 0 2.8-.7 3.9-2.2l.4-.5.4.5c1.1 1.5 2.3 2.2 3.9 2.2 1.5 0 2.7-.7 3.8-2.2l.4-.5.4.5c1.2 1.4 2.3 2.1 3.5 2.2 1.3.1 2.7-.6 4.3-2.2l.4-.4.3.5c.8 1.3 2.2 2 3.6 2.1 1.5 0 3-.7 4.1-2.1l.4-.5.7.8c1.3 1.6 3.1 2.2 4.9 1.6 1.8-.6 3-2.1 3.1-4.2v-2.1h.5c8.6-.6 13.2-7 13.7-12.7.3-3.5-.5-6.7-2.5-9.5-2.6-3.7-6.4-5.7-11.1-6.1h-.5v-15h.5c9.4-.8 13.3-8.2 13.6-13 .3-3.6-.7-6.9-2.8-9.6-2.7-3.5-6.3-5.4-11-5.7h-.5v-.5c.3-3.2-.7-5-3.1-5.7-2-.6-3.7.1-5.1 2l-.4.6-.4-.6c-1.1-1.5-2.3-2.2-3.8-2.2-1.6 0-2.8.7-3.9 2.1l-.4.6-.5-.6c-1-1.4-2.4-2.2-3.9-2.2H54c-1.5 0-2.8.8-3.7 2.1l-.4.6-.4-.6c-1-1.3-2.4-2.1-3.8-2.1-1.5 0-2.9.8-4 2.2l-.4.6-.4-.6c-1-1.4-2.2-2.1-3.8-2.1-1.6 0-2.8.7-3.9 2.2l-.4.6-.4-.6c-1-1.5-2.2-2.2-3.9-2.2-1.5 0-2.7.7-3.8 2.2l-.4.5-.5-.7c-.1-.1-.1-.2-.2-.3-1.3-1.6-3.1-2.1-4.9-1.6-1.9.6-3 2.1-3 4.2V8H8.2l-.1-1.1c-.1-1.4-.7-2.1-2-2.1-1-.1-1.9 0-2.8 0-1.1 0-1.7.7-1.7 1.8v9.1c0 1.1.8 1.9 1.9 1.9h2.7c1.1 0 1.8-.8 2-1.9v-1.2h7.5v15.2h-.5c-8.7.6-13.8 7.8-13.7 14.4.1 6.3 5 13.3 13.7 13.9h.5v15.2H8.2v-.5c-.1-2.3-1-2.7-1.9-2.7h-3c-1 0-1.7.8-1.7 1.7v9.5c0 .9.7 1.6 1.6 1.7h2.1c2.2 0 2.6-.4 2.8-2.6 0-.2.1-.4.2-.4l.1-.2h7.2v.5c-.3 3.1.7 4.9 3 5.7 2 .6 3.7 0 5.1-1.9l.6-.4zm4.3 2.3H28c-1.7-.2-3.1-1.5-3.4-3.1-.1-.5-.2-1.1-.2-1.8V6.7c0-.6 0-1.4.2-2.1.5-1.8 2.4-3 4.4-2.8 2.1.3 3.5 1.8 3.6 3.8v75.9c0 1.4-.5 2.6-1.5 3.5-.6.6-1.5.9-2.5.9zm0-83.1c-1.3 0-2.6.9-2.9 2.1-.2.6-.2 1.3-.2 1.8V81c0 .6 0 1.1.1 1.6.2 1.2 1.3 2.1 2.6 2.3.9.1 1.7-.1 2.4-.7s1.2-1.6 1.2-2.7V5.6c0-1.5-1.2-2.6-2.7-2.9-.3.1-.4.1-.5.1zm-8.5 83.1c-2 0-3.7-1.4-4-3.2-.1-.6-.1-1.2-.1-1.7V6.8c0-.6 0-1.4.2-2.1.5-1.8 2.3-3.1 4.2-2.9 2.1.2 3.6 1.7 3.8 3.7v75.6c0 .5 0 1-.1 1.6-.3 1.8-2 3.2-4 3.2zm0-83.1c-1.3 0-2.6.9-2.9 2.2-.2.5-.2 1.2-.2 1.8V81c0 .5 0 1 .1 1.5.2 1.4 1.6 2.4 3 2.4 1.5 0 2.8-1.1 3-2.5.1-.5.1-1 .1-1.4V5.5C23 4 21.9 2.9 20.3 2.8h-.2zm42.5 83.1c-.3 0-.5 0-.8-.1-1.8-.3-3.2-2-3.3-3.9V6.2c0-2.2 1.2-3.9 3.1-4.3 1.2-.3 2.3-.1 3.2.6.9.6 1.6 1.6 1.8 2.8.1.4.1.8.1 1.3v74.7c0 .8-.1 1.4-.3 2-.5 1.6-2 2.6-3.8 2.6zm.1-83.1c-.3 0-.5 0-.8.1-1.5.3-2.3 1.6-2.3 3.3V81.9c0 1.4 1.1 2.7 2.4 2.9 1.6.3 3.1-.5 3.5-1.9.2-.5.2-1 .2-1.7V6.5c0-.5 0-.8-.1-1.1-.2-.9-.6-1.7-1.3-2.1-.4-.3-1-.5-1.6-.5zM45.6 85.9h-.3c-2-.1-3.6-1.8-3.8-3.8V6.2c0-2.3 1.2-3.9 3.2-4.4 1.3-.3 2.6 0 3.5.8.9.8 1.5 1.9 1.5 3.2v75.7c0 1.3-.5 2.5-1.3 3.3-.7.8-1.7 1.1-2.8 1.1zm0-83.1c-.2 0-.5 0-.7.1-1.5.3-2.4 1.6-2.4 3.4v75.9c.1 1.5 1.3 2.7 2.8 2.9.9.1 1.8-.2 2.4-.8.7-.6 1-1.5 1-2.6V6c0-1-.4-1.9-1.1-2.4-.5-.6-1.2-.8-2-.8zm25.5 83.1h-.4c-1.9-.2-3.5-1.7-3.6-3.6V6.7c0-.7 0-1.4.2-2.1.5-1.8 2.3-2.9 4.2-2.8 2 .2 3.5 1.6 3.7 3.6.1.5.1 1 .1 1.4V81c0 .7 0 1.4-.2 2-.4 1.7-2.1 2.9-4 2.9zm0-83.1c-1.3 0-2.5.9-2.8 2.1-.2.5-.2 1.2-.2 1.8V82.3c.1 1.5 1.2 2.6 2.7 2.7 1.6.1 3-.8 3.3-2.2.1-.6.1-1.2.1-1.8V6.8c0-.4 0-.8-.1-1.3C74 4 72.9 3 71.4 2.8h-.3zm-17 83.1h-.6c-2-.2-3.5-1.9-3.5-4.1V6.1c0-1.4.5-2.6 1.5-3.4.9-.8 2.2-1.1 3.5-.8 1.8.4 3.1 1.9 3.2 3.8V81c0 .5 0 1.1-.1 1.6-.4 2.1-2 3.3-4 3.3zm0-83.1c-.7 0-1.4.2-1.9.7-.8.6-1.2 1.5-1.2 2.6v75.7c0 1.6 1.1 2.9 2.7 3.1 1.7.2 3.1-.7 3.5-2.4.1-.4.1-.9.1-1.4V5.8c-.1-1.5-1.1-2.6-2.5-2.9-.2-.1-.5-.1-.7-.1zm-17 83.1h-.6c-1.9-.2-3.3-1.8-3.5-3.8V6.3c0-2.4 1.3-4.1 3.4-4.4 1.2-.2 2.5.1 3.4.9.9.8 1.4 1.9 1.4 3.1v75.7c0 1.4-.5 2.5-1.4 3.3-.7.7-1.6 1-2.7 1zm0-83.1c-.2 0-.4 0-.6.1-1.6.2-2.5 1.5-2.5 3.4V82c.1 1.5 1.2 2.7 2.6 2.9 1 .1 1.9-.1 2.5-.7.7-.6 1-1.5 1-2.6V5.9c0-1-.4-1.8-1.1-2.4-.4-.5-1.1-.7-1.9-.7zM5 82.8H3.6c-1.1 0-1.8-.7-1.8-1.8V72.2c0-.5.2-1 .5-1.3.3-.3.7-.5 1.3-.5h2.5c1.1 0 1.7.7 1.7 1.7v8.5c0 1.4-.6 2-2 2-.3.2-.5.2-.8.2zM3.5 71.4c-.3 0-.4.1-.6.2-.1.1-.2.3-.2.6V81c0 .5.1.8.8.8H5.7c.9 0 1-.2 1-1v-8.5c0-.5-.2-.8-.7-.8H4.6l-1.1-.1c.1 0 0 0 0 0zm72.1 8.1v-5.8h.4c2.5-.3 4.5-1.3 6-3.2 1.1-1.4 1.6-3 1.7-4.7 0-2.2-.7-4-2.2-5.7-1.4-1.5-3.1-2.3-5.5-2.6h-.4v-5.7h.5c5 .4 8.8 2.6 11.2 6.6 2.9 4.7 2.9 9.7 0 14.5-2.4 4-6.2 6.2-11.2 6.6h-.5zm1-4.8v3.8c4.4-.4 7.8-2.5 9.9-6 2.7-4.5 2.7-9 0-13.4-2.2-3.6-5.5-5.6-9.9-6v3.8c2.3.3 4.2 1.3 5.6 2.8 1.7 1.8 2.5 3.9 2.4 6.4 0 2-.7 3.7-1.9 5.3-1.4 1.7-3.5 2.9-6.1 3.3zm-60.9 4.7H8.2v-5.7h7.5v5.7zm-6.5-1h5.5v-3.7H9.2v3.7zm66.9-5.1h-.5V58h.5c1.9 0 3.7.8 5 2.2 1.4 1.5 2.3 3.5 2.2 5.5 0 4.2-3.3 7.6-7.2 7.6zm.5-14.2v13.2c3.2-.3 5.8-3.2 5.8-6.6 0-1.8-.7-3.5-2-4.8-1.1-1-2.4-1.7-3.8-1.8zm-60.9-1.4h-.5c-4.9-.3-8.6-2.4-11.1-6.3-3-4.7-3.1-9.7-.3-14.5 2.4-4.1 6.2-6.4 11.4-6.8h.5v5.8h-.4c-2.6.3-4.7 1.4-6.1 3.4-1.1 1.5-1.5 3.1-1.5 4.9.1 4.1 2.4 6.4 7.7 7.9l.4.1v5.5zm-1-26.6c-4.6.5-8 2.6-10.1 6.3-2.6 4.5-2.5 9 .3 13.4 2.2 3.4 5.5 5.4 9.8 5.8v-3.8c-5.5-1.6-8-4.3-8.1-8.7-.1-2.1.5-3.9 1.7-5.5 1.5-2.1 3.6-3.3 6.4-3.7v-3.8zm.2 20.4c-1.6 0-3.2-.7-4.5-1.9-1.6-1.5-2.5-3.6-2.5-5.7s.9-4.2 2.5-5.7c1.4-1.3 3.1-2 4.9-1.9h.5v15.2h-.9zm-.2-14.2c-1.3.1-2.6.6-3.6 1.7-1.4 1.3-2.2 3.2-2.2 5 0 1.8.8 3.7 2.2 4.9 1.1 1 2.3 1.6 3.6 1.6V37.3zm60.9-1.4v-5.7l.4-.1c3.1-.4 5.3-1.8 6.7-4.3.8-1.5 1.1-3.2.9-5-.5-3.6-3.2-6.1-7.6-6.9l-.4-.1V8.3h.5c4.7.2 8.4 2.3 10.9 6 3.2 4.8 3.3 10 .4 15-2.4 4-6.2 6.3-11.3 6.6h-.5zm1-4.8v3.8c4.5-.5 7.8-2.5 10-6.1 2.8-4.7 2.7-9.4-.3-13.9-2.2-3.3-5.5-5.2-9.6-5.5v3.8c4.6.9 7.5 3.7 8 7.7.3 2.1-.1 4-1 5.6-1.6 2.5-4 4.1-7.1 4.6zm-1-1.3V14.7l.4-.1c1.1-.3 2.5.1 3.8 1 1.8 1.2 3.2 3.3 3.5 5.2.3 2.2-.2 4.4-1.5 6.1-1.4 1.7-3.4 2.7-5.6 2.9h-.6zm1-14.3v13.2c1.8-.3 3.3-1.1 4.4-2.5 1.2-1.5 1.6-3.4 1.3-5.3-.3-1.7-1.5-3.5-3.1-4.6-.9-.6-1.9-.9-2.6-.8zM4.8 17.3H3.7c-1.2 0-1.8-.6-1.8-1.8V7c0-1.4.6-1.9 2-2H6c1.2 0 1.8.7 1.8 1.8v8.6c0 1.2-.6 1.8-1.9 1.9H4.8zM5 6H3.8c-.8 0-1 .2-1 1V15.4c0 .7.2.8.8.8h2.3c.8 0 .9-.2.9-.9V6.7c0-.5-.2-.7-.8-.7H5zm10.7 8H8.2V8.4h7.5V14zm-6.5-1h5.5V9.4H9.2V13z"/></svg><svg viewBox="0 0 94 93" style="enable-background:new 0 0 94 93" xml:space="preserve" id="cold-water" xmlns="http://www.w3.org/2000/svg"><path d="M49.8 0c1.7.2 3.4.4 5 .7 16.4 3.3 28 12.7 34.7 28.1C92.3 35.2 93.4 42 93 49c-.8 12.5-5.7 23-14.8 31.6-.5.4-.6.8-.4 1.4 1 3.8-.6 7.8-3.9 9.8-3.3 2-7.5 1.6-10.4-1.1-.4-.4-.8-.5-1.3-.3-6.8 2.4-13.9 3.1-21.1 2.3C22.3 90.6 6.2 76.7 1.5 58c-.6-2.4-.9-5-1.3-7.5 0-.2-.1-.5-.2-.7v-6.5c.1-.3.1-.6.2-.9.3-2.1.5-4.3 1-6.4 1.7-7.4 5-13.9 10-19.7C18.4 7.9 27.5 2.7 38.3.7 40 .4 41.6.2 43.2 0h6.6zM3.4 57.9c6.5 26.4 35.3 39.5 58.3 30.6-2-4.4-1.4-7.7 2.1-11.1l4.6-4.6c.9-.9 1.1-.9 2 0 2.1 2.2 4.3 4.4 6.4 6.5 12.7-11.2 18.6-31.4 10.8-49.8C79.5 10.3 59.4-.8 39.1 2.8 19.1 6.2 6.7 21.5 3.6 35.1h4c.8 0 1.2.4 1.2 1.2v2.2c.3 0 .4.1.5.1h15.3c.3 0 .7-.2.9-.5 1.5-2.1 3.3-3.7 5.6-4.9.3-.1.5-.6.6-1 .1-1 0-2.1 0-3.1v-3.7H21.2c-1.2 0-2.1-.5-2.8-1.4-.8-1.1-.9-2.4-.3-3.6.6-1.4 1.8-2 3.3-2h10.3c.3-3.2 2.4-5.6 5.1-6 1.5-.2 2.9 0 4.2.8 2 1.2 2.9 3 3.1 5.3h10.3c2.1 0 3.7 1.5 3.7 3.5s-1.6 3.5-3.7 3.5H44v6.7c0 .6.2.9.7 1.1 2.1 1.1 3.9 2.6 5.2 4.5.4.6.9.8 1.6.8 4.1 0 8.2-.1 12.3.1 7.5.5 13.4 7 13.5 14.4v12.4c0 1.8-1.1 2.9-2.9 2.9h-10c-1.8 0-2.9-1.1-2.9-2.9v-8c0-2.1-1-3.1-3.1-3.1h-7.1c-.6 0-1 .2-1.3.7-6 8.4-18.4 8.4-24.4-.1-.3-.4-.6-.6-1.2-.6H9.7c-.3 0-.5 0-.8.1v1.9c0 1.3-.2 1.5-1.5 1.5h-4zm5.5-5.3h16.2c.7 0 1.2.2 1.5.8 5.3 8.3 17 8.3 22.3 0 .3-.5.7-.8 1.4-.8h8.4c2.8 0 4.6 1.9 4.6 4.7v8.1c0 1 .2 1.3 1.3 1.3h9.6c1.1 0 1.3-.2 1.3-1.3V53.5c0-.9-.1-1.9-.3-2.8-1.4-6.1-6.6-10.2-12.9-10.3H50.6c-.8 0-1.3-.2-1.7-.9-5.2-8.1-17-8.1-22.1 0-.4.7-.9 1-1.8 1H9v12.1zm60.5 21.7-4.8 4.8-.7.7c-1.3 1.7-1.9 3.5-1.5 5.7.5 2.8 2.6 5 5.3 5.5 2.9.6 5.8-.6 7.4-2.9 1.6-2.4 1.7-5.6-.1-7.8-1.7-2.1-3.7-4-5.6-6zM37.7 23.6h16.6c1 0 1.8-.7 1.8-1.6 0-.9-.6-1.6-1.6-1.8h-33c-.9 0-1.6.2-2 1.1-.5 1.2.3 2.4 1.8 2.4 5.5-.1 10.9-.1 16.4-.1zM6.9 36.9H3.4c-.2 0-.4.3-.5.5-.2 1.2-.5 2.4-.6 3.6-.6 4.9-.5 9.7.5 14.5 0 .2.3.6.5.6 1.2.1 2.4 0 3.7 0l-.1-19.2zm35.2-4.7v-6.7h-8.6v6.7c2.9-.8 5.7-.8 8.6 0zM42 18.3c-.1-2.7-2.2-4.5-4.8-4.2-2.2.3-4 2.3-3.7 4.2H42z"/><path d="M37.2 56.1c-4.8-.1-9.1-4.5-9.1-9.4 0-.6.2-1 .8-1.1.6 0 .9.4 1 1 .1 2.6 1.2 4.8 3.3 6.3 1.3.9 2.8 1.4 4.4 1.4.6 0 1.1.3 1 1 0 .6-.5.9-1.1.8h-.3zM69.4 88.6c-2.5 0-4.5-2-4.6-4.2 0-.6.2-1 .8-1.1.6 0 .8.3 1 .8.3 1.8.9 2.3 2.7 2.6.6.1.9.5.8 1 0 .5-.5.8-.7.9zM64.1 23.3l14.2 4.4M78.2 28.6h-.3l-14.2-4.4c-.5-.2-.8-.7-.7-1.2.2-.5.7-.8 1.2-.7l14.2 4.4c.5.2.8.7.7 1.2-.1.5-.5.7-.9.7zM73.3 18.8 69 32.9"/><path d="M68.9 33.8h-.3c-.5-.2-.8-.7-.7-1.2l4.3-14.1c.2-.5.7-.8 1.2-.7.5.2.8.7.7 1.2l-4.3 14.1c-.1.4-.5.7-.9.7zM67.7 19l6.9 13"/><path d="M74.6 33c-.4 0-.7-.2-.9-.5l-6.9-13.1c-.3-.5-.1-1.1.4-1.4.5-.3 1.1-.1 1.4.4l6.9 13.1c.3.5.1 1.1-.4 1.4-.2.1-.3.1-.5.1zM64.6 29l13.1-6.9"/><path d="M64.6 30c-.4 0-.7-.2-.9-.5-.3-.5-.1-1.1.4-1.4l13.1-6.9c.5-.3 1.1-.1 1.4.4s.1 1.1-.4 1.4l-13.1 6.9c-.2 0-.3.1-.5.1z"/></svg><svg viewBox="0 0 92 89" id="electro" xmlns="http://www.w3.org/2000/svg"><path d="M0 62.312c.867-2.37 2.612-3.193 5.064-3.139 4.305.094 8.612.026 12.919.026h1.14c0-1.759.061-3.418-.015-5.07-.097-2.118 1.183-3.776 3.59-3.582 1.15.093 2.315.015 3.473.017 2.045.003 3.204 1.142 3.228 3.169.003.235 0 .47 0 .786.542.027 1.035.069 1.528.071 1.93.009 3.86.027 5.79-.017.303-.006.752-.24.875-.495 2.022-4.183 4.003-8.386 5.99-12.587.036-.073.038-.163.082-.367h-.97c-2.822 0-5.644-.01-8.465.005-1.03.005-1.796-.398-2.183-1.357-.383-.949-.141-1.78.586-2.508 5.898-5.898 11.787-11.804 17.684-17.703.725-.725 1.532-.778 2.11-.183.56.576.472 1.387-.23 2.118-.123.128-.251.252-.377.378-5.222 5.232-10.441 10.464-15.67 15.688-.228.227-.538.373-.809.557l.171.272c.246.018.492.052.738.053 2.554.003 5.115.118 7.66-.033 2.171-.13 3.404 1.71 2.372 3.816-3.125 6.379-6.119 12.822-9.161 19.241-.147.31-.273.63-.377.87l27.439-27.413c-.15-.011-.398-.046-.645-.046-2.673-.004-5.346.005-8.019-.005-2.208-.008-3.212-1.617-2.257-3.616 3.061-6.409 6.13-12.815 9.194-19.223.163-.34.32-.682.48-1.023l-.211-.193c-.25.295-.48.608-.752.88a1226.295 1226.295 0 0 1-5.096 5.106c-.778.775-1.572.867-2.174.273-.598-.591-.519-1.399.254-2.176 3.034-3.052 6.077-6.096 9.117-9.143.602-.603 1.29-.958 2.162-.663.765.259 1.328.789 1.372 1.586.03.553-.156 1.166-.4 1.68-3.586 7.537-7.199 15.063-10.804 22.592-.162.34-.312.686-.538 1.185h1.065c2.851 0 5.702-.014 8.553.007 1.533.012 2.579.89 2.44 2.189-.068.641-.444 1.365-.904 1.831-4.354 4.419-8.756 8.79-13.146 13.174l-8.106 8.09c1.938 1.501 3.453 3.296 4.538 5.454.093.184.474.299.729.313.859.047 1.732-.048 2.58.062 2.13.277 3.713 1.833 4.15 3.957.052.257.12.51.195.83h.901c4.752 0 9.506-.076 14.255.017 7.197.14 13.967-4.966 15.194-12.6.847-5.27.224-10.317-3.506-14.528-2.894-3.268-6.534-5.028-10.925-5.174-.237-.008-.476.003-.712-.018-.88-.08-1.446-.639-1.43-1.4.017-.758.606-1.368 1.485-1.333 1.241.05 2.501.113 3.712.369 8.518 1.798 14.255 8.996 14.336 17.716.034 3.682-.358 7.229-2.249 10.451-3.587 6.116-8.99 9.176-16.063 9.253-4.662.05-9.325.01-13.988.01h-1.007c-.109.483-.182.916-.306 1.334-.596 2.005-2.46 3.585-4.558 3.455-1.856-.114-2.85.468-3.896 2.085-2.936 4.545-7.349 6.619-12.758 6.589-2.31-.013-4.622-.002-7.046-.002 0 .456.013.83-.002 1.204-.064 1.576-1.282 2.791-2.866 2.82-1.396.026-2.792.01-4.188.006-1.962-.006-3.17-1.165-3.21-3.129-.032-1.482-.008-2.966-.008-4.45v-1.08h-1.13c-4.307 0-8.615-.076-12.919.03-2.458.06-4.193-.76-5.075-3.117v-1.958c.973-2.394 2.81-3.12 5.298-3.05 4.267.12 8.538.032 12.808.032h.95v-4.295h-1.03c-4.506 0-9.013.003-13.52-.004-.412 0-.83-.021-1.236-.091-1.692-.29-2.595-1.48-3.27-2.918v-1.958Zm29.446 19.217c2.945 0 5.814.215 8.637-.049 4.749-.444 8.227-2.97 10.051-7.399 1.817-4.41 1.142-8.6-1.813-12.355-.696-.884-1.614-1.593-2.456-2.408-2.829 2.833-5.508 5.523-8.196 8.203-.924.92-1.898 1.06-2.795.44-.872-.602-1.065-1.601-.512-2.776 1.072-2.275 2.156-4.543 3.23-6.816.148-.312.273-.634.436-1.017h-6.582V81.53ZM21.97 53.233v32.39c1.268 0 2.456-.063 3.634.02.932.067 1.129-.267 1.126-1.15-.03-10.05-.02-20.1-.02-30.15 0-.177.065-.396-.016-.524-.142-.225-.367-.553-.568-.56-1.36-.05-2.722-.026-4.156-.026ZM19.08 74.29c-5.1 0-10.084-.013-15.067.028-.374.003-.88.315-1.079.635-.193.313-.249.97-.047 1.209.313.372.893.724 1.364.73 4.75.052 9.5.032 14.252.028.195 0 .39-.054.577-.081V74.29Zm-.005-12.353H5.86c-.623 0-1.246-.01-1.87.006-.782.02-1.232.494-1.284 1.213-.053.733.371 1.229 1.125 1.362.26.045.532.046.798.046 4.51.003 9.02.002 13.53.002h.915v-2.63ZM51.66 72.932c.304 0 .685.011 1.065-.002 1.584-.055 2.378-.844 2.41-2.434.018-.885.02-1.774-.042-2.656-.064-.901-.688-1.63-1.569-1.799-.647-.124-1.322-.103-1.864-.14v7.03Z"/><path d="M57.514.005h31.71c.268 0 .537-.017.802.011.745.08 1.255.654 1.21 1.384-.045.757-.466 1.195-1.225 1.27-.324.032-.653.013-.98.013-20.724 0-41.45-.005-62.174.003-7.189.002-13.186 4.48-15.035 11.19-2.594 9.41 4.406 18.846 14.173 19.099.98.025 1.96-.005 2.94.017 1.044.023 1.725.614 1.688 1.428-.036.793-.687 1.291-1.698 1.33-4.1.16-8.035-.386-11.631-2.555-6.255-3.77-9.73-11.137-8.512-18.123C10.1 7.52 15.654 1.772 23.074.356 24.317.12 25.604.023 26.871.02 37.087-.007 47.3.005 57.514.005Z"/></svg><svg viewBox="0 0 95 95" style="enable-background:new 0 0 95 95" xml:space="preserve" id="hot-water" xmlns="http://www.w3.org/2000/svg"><path d="M50.8 0c1.7.2 3.4.4 5.1.8 16.8 3.4 28.6 13 35.5 28.6 2.9 6.5 4 13.5 3.5 20.6-.8 12.7-5.8 23.5-15.1 32.3-.5.4-.6.8-.4 1.4 1.1 3.9-.6 7.9-4 10s-7.7 1.6-10.6-1.1c-.4-.4-.8-.5-1.4-.3-7 2.4-14.1 3.2-21.5 2.3C22.6 92.4 6.2 78.2 1.5 59.1.9 56.6.6 54 .2 51.5c0-.2-.1-.5-.2-.7v-6.7c.1-.3.1-.6.2-.9.3-2.2.5-4.4 1-6.6 1.8-7.4 5.2-14.2 10.2-20C18.8 8.1 28 2.8 39.1.7c1.7-.3 3.3-.5 5-.7h6.7zM3.5 59.1C10.2 86 39.5 99.5 63 90.3c-2-4.5-1.4-7.9 2.1-11.3 1.6-1.6 3.2-3.1 4.7-4.7.9-.9 1.2-.9 2 0 2.2 2.2 4.4 4.5 6.5 6.7 12.9-11.5 18.9-32.1 11.1-50.8-8.2-19.6-28.7-31-49.5-27.4-20.4 3.5-33 19.2-36.3 33h4.1c.9 0 1.3.4 1.3 1.2v2.3c.3 0 .4.1.5.1h15.6c.3 0 .7-.2.9-.5 1.5-2.1 3.4-3.8 5.7-5 .3-.2.5-.6.6-1 .1-1 0-2.1 0-3.1v-3.7H21.6c-1.2 0-2.2-.5-2.9-1.4-.8-1.1-1-2.4-.4-3.7.7-1.4 1.8-2.1 3.4-2.1h10.6c.3-3.3 2.4-5.7 5.2-6.1 1.5-.2 3 0 4.3.8 2 1.2 2.9 3.1 3.2 5.4h10.5c2.2 0 3.8 1.6 3.8 3.6s-1.6 3.6-3.8 3.6H44.9v6.9c0 .6.2.9.7 1.1 2.2 1.1 4 2.6 5.3 4.6.4.6.9.8 1.6.8 4.2 0 8.4-.1 12.6.1 7.6.5 13.7 7.1 13.8 14.7v12.7c0 1.8-1.1 2.9-2.9 2.9H65.8c-1.9 0-3-1.1-3-3v-8.2c0-2.2-1-3.1-3.2-3.2h-7.2c-.6 0-1 .2-1.4.7-6.1 8.6-18.8 8.6-24.9-.1-.3-.5-.6-.6-1.2-.6h-15c-.3 0-.5 0-.9.1v1.9c0 1.4-.2 1.6-1.5 1.6-1.4-.1-2.6-.1-4-.1zm5.6-5.4h16.5c.7 0 1.2.2 1.6.9 5.4 8.5 17.3 8.4 22.7 0 .4-.6.7-.8 1.4-.8h8.5c2.8 0 4.7 1.9 4.7 4.8v8.2c0 1.1.2 1.3 1.3 1.3h9.8c1.1 0 1.3-.2 1.3-1.4V54.6c0-.9-.1-1.9-.3-2.8-1.5-6.3-6.7-10.4-13.2-10.5h-12c-.8 0-1.3-.3-1.7-.9-5.3-8.3-17.3-8.3-22.6 0-.5.7-1 1-1.8 1H9l.1 12.3zm61.7 22.1-4.9 4.9c-.2.2-.5.5-.7.8-1.3 1.7-1.9 3.6-1.5 5.8.5 2.9 2.6 5.1 5.4 5.6 3 .6 6-.6 7.5-3 1.6-2.4 1.7-5.7-.1-8-1.6-2.1-3.7-4-5.7-6.1zM38.5 24.1h16.9c1.1 0 1.8-.7 1.8-1.7 0-.9-.6-1.7-1.6-1.8H21.9c-.9 0-1.7.2-2.1 1.1-.5 1.2.4 2.4 1.9 2.4h16.8zM7.1 37.6H3.5c-.2.1-.5.4-.5.6-.2 1.2-.5 2.5-.7 3.7-.7 5-.5 9.9.5 14.8 0 .2.3.6.5.6 1.2.1 2.5 0 3.7 0l.1-19.7zm35.8-4.8V26h-8.8v6.8c3-.8 5.9-.7 8.8 0zm0-14.1c-.1-2.7-2.3-4.6-4.9-4.3-2.3.3-4.1 2.4-3.7 4.3h8.6z"/><path d="M37.9 57.3c-4.9-.1-9.3-4.6-9.3-9.6 0-.6.2-1.1.9-1.1s.9.4 1 1c.1 2.7 1.2 4.9 3.4 6.5 1.3 1 2.8 1.5 4.5 1.5.6 0 1.1.3 1.1 1 0 .6-.5.9-1.1.8-.2-.1-.3-.1-.5-.1zM70.9 90.5c-2.5 0-4.6-2.1-4.6-4.3 0-.6.2-1 .9-1.1.6 0 .9.3 1 .9.3 1.8.9 2.4 2.7 2.7.6.1 1 .5.8 1-.2.3-.6.6-.8.8zM66.5 38c-.2 0-.4-.1-.6-.2-.4-.3-.5-1-.2-1.4 1.5-1.9 2-6.5-.8-10.1-3.2-4.1-1.4-8.8.1-10.7.3-.4 1-.5 1.4-.2s.5 1 .2 1.4c-.1.2-3.2 4.4-.1 8.3 3.3 4.1 3 9.7.8 12.5-.2.3-.5.4-.8.4zM72.2 38c-.2 0-.4-.1-.6-.2-.4-.3-.5-1-.2-1.4 1.5-1.9 2-6.5-.8-10.1-3.2-4.1-1.4-8.8.1-10.7.3-.4 1-.5 1.4-.2s.5 1 .2 1.4c-.1.2-3.2 4.4-.1 8.3 3.3 4.1 3 9.7.8 12.5-.2.3-.5.4-.8.4zM78.4 38c-.2 0-.4-.1-.6-.2-.4-.3-.5-1-.2-1.4 1.5-1.9 2-6.5-.8-10.1-3.2-4.1-1.4-8.8.1-10.7.3-.4 1-.5 1.4-.2s.5 1 .2 1.4c-.1.2-3.2 4.4-.1 8.3 3.3 4.1 3 9.7.8 12.5-.2.3-.5.4-.8.4z"/></svg><svg viewBox="0 0 82 65" id="icon1" xmlns="http://www.w3.org/2000/svg"><path d="M82 24.437c-.606.764-1.148 1.592-1.828 2.282C73.793 33.193 67.388 39.639 61 46.104c-.73.739-1.53 1.26-2.6 1.183-1.673-.121-2.76-1.377-2.775-3.245-.02-2.532-.005-5.064-.005-7.596v-.966h-1.106c-10.11 0-20.222.002-30.333-.004-.505 0-1.025.003-1.51-.112-1.233-.293-2.12-1.47-2.136-2.792-.019-1.498-.004-2.996-.004-4.436-4.405 4.454-8.8 8.898-13.136 13.28L20.53 54.679v-4.02c.004-2.208 1.158-3.39 3.357-3.392 7.524-.007 15.047-.008 22.57 0 2.39.004 3.895 1.887 3.187 3.951-.423 1.235-1.497 1.985-2.896 1.986-6.43.005-12.859.003-19.288.003h-1.044v2.217c0 2.101.02 4.203-.006 6.303-.026 2.111-1.389 3.5-3.285 3.243a3.371 3.371 0 0 1-1.807-.896c-6.801-6.81-13.57-13.65-20.332-20.499-1.313-1.33-1.317-3.039.004-4.378 6.74-6.83 13.5-13.644 20.255-20.462.961-.97 2.096-1.278 3.362-.745 1.284.541 1.796 1.629 1.804 2.974.015 2.532.005 5.065.005 7.597v.998h1.073c10.058 0 20.116 0 30.173.002.373 0 .748 0 1.12.032 1.595.133 2.7 1.312 2.72 2.922.017 1.477.003 2.954.003 4.286L74.57 23.61 61.55 10.457c-.003.029-.041.224-.042.419-.005 1.239.002 2.478-.004 3.717-.01 1.842-1.105 3.03-2.925 3.173-.185.015-.373.01-.56.01-7.443 0-14.886.005-22.33-.01-.524-.001-1.075-.064-1.567-.236-1.304-.454-2.098-1.877-1.868-3.212.25-1.448 1.432-2.476 2.922-2.479 5.47-.011 10.938-.005 16.407-.005h4.037v-.893c0-2.506.009-5.01-.003-7.516-.007-1.444.472-2.62 1.855-3.187 1.375-.564 2.51-.074 3.53.96C67.59 7.876 74.206 14.53 80.79 21.214c.492.5.81 1.174 1.209 1.768v1.454Z"/></svg><svg viewBox="0 0 68 68" id="icon2" xmlns="http://www.w3.org/2000/svg"><path d="M34 29.904c1.357 0 2.458 1.058 2.458 2.363v15.755c0 1.306-1.1 2.364-2.458 2.364-1.357 0-2.458-1.059-2.458-2.364V32.267c0-1.305 1.1-2.363 2.458-2.363ZM35.65 17.831a2.439 2.439 0 0 1 .181 3.446l-.033.036a2.443 2.443 0 0 1-3.448.181 2.439 2.439 0 0 1-.181-3.445l.033-.037a2.443 2.443 0 0 1 3.448-.18Z"/><path d="M0 33.795C0 15.131 15.222 0 34 0s34 15.13 34 33.795S52.778 67.59 34 67.59 0 52.46 0 33.795Zm34-29.08c-16.157 0-29.256 13.02-29.256 29.08S17.843 62.875 34 62.875s29.256-13.02 29.256-29.08S50.157 4.715 34 4.715Z"/></svg><svg viewBox="0 0 68 63" id="icon3" xmlns="http://www.w3.org/2000/svg"><path d="M9.59 17.159c-2.408 0-4.36 1.973-4.36 4.408v31.736c0 2.434 1.952 4.408 4.36 4.408h48.82c2.408 0 4.36-1.974 4.36-4.408V21.567c0-2.435-1.952-4.408-4.36-4.408H9.59ZM0 21.567c0-5.356 4.293-9.697 9.59-9.697h48.82c5.297 0 9.59 4.341 9.59 9.697v31.736C68 58.658 63.707 63 58.41 63H9.59C4.294 63 0 58.659 0 53.303V21.567Z"/><path d="M49.867 39.26a1.82 1.82 0 0 1-1.814-1.825 1.82 1.82 0 0 1 1.814-1.826 1.82 1.82 0 0 1 1.813 1.826 1.82 1.82 0 0 1-1.813 1.826Z"/><path d="M49.867 38.348a.91.91 0 0 0 .906-.913.91.91 0 0 0-.906-.913.91.91 0 0 0-.907.913.91.91 0 0 0 .907.913Zm-4.534-.913c0-2.521 2.03-4.565 4.534-4.565 2.503 0 4.533 2.044 4.533 4.565 0 2.52-2.03 4.565-4.533 4.565-2.504 0-4.534-2.044-4.534-4.565ZM45.505.33c6.092-1.625 12.068 2.967 12.068 9.272v4.875H52.34V9.602c0-2.866-2.716-4.953-5.485-4.215L8.472 15.624a4.362 4.362 0 0 0-3.238 4.215v1.617H0V19.84a9.597 9.597 0 0 1 7.123-9.273L45.506.33Z"/></svg><svg viewBox="0 0 70 70" id="icon4" xmlns="http://www.w3.org/2000/svg"><path d="M22.79 35c0-6.743 5.467-12.21 12.21-12.21 6.743 0 12.21 5.467 12.21 12.21 0 6.743-5.467 12.21-12.21 12.21-6.743 0-12.21-5.467-12.21-12.21ZM35 27.674a7.325 7.325 0 1 0 0 14.651 7.325 7.325 0 0 0 0-14.65Z"/><path d="M29.32 1.82A2.442 2.442 0 0 1 31.683 0h6.363c1.11 0 2.08.748 2.362 1.821l1.718 6.54 6.308 2.595 4.516-3.859a2.442 2.442 0 0 1 3.313.13l6.511 6.511c.898.898.958 2.334.138 3.304l-3.842 4.544 2.536 6.125 6.555 1.667A2.442 2.442 0 0 1 70 31.744v6.438a2.442 2.442 0 0 1-1.827 2.363L61.58 42.26l-2.54 6.133 3.87 4.563c.82.97.762 2.407-.137 3.305l-6.512 6.512a2.442 2.442 0 0 1-3.357.091l-.18-.161a248.285 248.285 0 0 0-2.093-1.846c-.756-.657-1.531-1.321-2.162-1.841l-6.179 2.558-1.667 6.584A2.442 2.442 0 0 1 38.256 70h-6.512a2.442 2.442 0 0 1-2.367-1.844l-1.662-6.581-6.003-2.47-4.704 3.834a2.442 2.442 0 0 1-3.27-.166l-6.511-6.512a2.442 2.442 0 0 1-.096-3.351l3.908-4.384-2.568-6.093-6.672-1.822A2.442 2.442 0 0 1 0 38.257v-6.512c0-1.135.782-2.12 1.887-2.378l6.494-1.515 2.498-6.143-3.82-4.703a2.442 2.442 0 0 1 .168-3.266l6.511-6.512a2.442 2.442 0 0 1 3.35-.098l4.398 3.912 6.083-2.565 1.752-6.656Zm4.245 3.064-1.579 5.997a2.442 2.442 0 0 1-1.413 1.629l-8.61 3.63c-.868.365-1.868.2-2.572-.426l-3.828-3.405-3.326 3.326 3.344 4.115c.561.691.702 1.634.366 2.46l-3.519 8.651a2.442 2.442 0 0 1-1.707 1.458l-5.837 1.363v2.71l6.018 1.642a2.442 2.442 0 0 1 1.607 1.407l3.63 8.61c.366.868.2 1.87-.428 2.573l-3.4 3.815 3.321 3.321 4.122-3.359a2.442 2.442 0 0 1 2.472-.365l8.484 3.49c.715.294 1.249.91 1.438 1.66l1.498 5.93h2.71l1.5-5.928c.19-.748.721-1.362 1.434-1.657l8.63-3.574a2.442 2.442 0 0 1 2.354.27c.834.596 2.351 1.892 3.563 2.947l.596.52 3.297-3.296-3.378-3.984a2.442 2.442 0 0 1-.393-2.513l3.574-8.633c.293-.707.9-1.236 1.642-1.428l5.941-1.546v-2.651l-5.9-1.5a2.442 2.442 0 0 1-1.655-1.433l-3.574-8.63a2.442 2.442 0 0 1 .392-2.51l3.353-3.966-3.327-3.327-3.934 3.361a2.442 2.442 0 0 1-2.515.402l-8.813-3.624a2.442 2.442 0 0 1-1.433-1.638l-1.548-5.894h-2.597Z"/></svg><svg viewBox="0 0 58 64" id="icon5" xmlns="http://www.w3.org/2000/svg"><path d="M11.226 17.371C11.226 7.777 19.184 0 29 0s17.774 7.777 17.774 17.371c0 5.67-2.779 10.705-7.079 13.876C50.418 35.407 58 45.638 58 57.6v3.657C58 62.772 56.743 64 55.194 64c-1.55 0-2.807-1.228-2.807-2.743V57.6c0-12.624-10.47-22.857-23.387-22.857-12.916 0-23.387 10.233-23.387 22.857v3.657C5.613 62.772 4.356 64 2.806 64S0 62.772 0 61.257V57.6c0-11.962 7.582-22.193 18.305-26.353-4.3-3.17-7.08-8.206-7.08-13.876ZM29 5.486c-6.716 0-12.161 5.321-12.161 11.885 0 6.565 5.445 11.886 12.161 11.886 6.716 0 12.161-5.321 12.161-11.886 0-6.564-5.445-11.885-12.161-11.885Z"/></svg><svg viewBox="0 0 74 70" id="icon6" xmlns="http://www.w3.org/2000/svg"><path d="M6.807 29.327C7.137 13.074 20.529 0 37 0c16.471 0 29.863 13.075 30.193 29.327C71.225 30.607 74 34.333 74 38.58v6.327c0 4.244-2.772 7.968-6.8 9.25v1.072c0 5.365-4.387 9.715-9.8 9.715h-7.774A8.101 8.101 0 0 1 42.1 70H31.9c-4.473 0-8.099-3.595-8.099-8.03 0-4.434 3.626-8.03 8.099-8.03h10.2a8.1 8.1 0 0 1 7.526 5.057H57.4c1.949 0 3.555-1.453 3.776-3.327l-.514.128c-3.18.788-6.26-1.597-6.26-4.847V32.534c0-3.25 3.08-5.635 6.26-4.847l.445.11C60.013 15.55 49.638 5.947 37 5.947s-23.013 9.603-24.108 21.852l.445-.11c3.18-.789 6.26 1.596 6.26 4.846v18.417c0 3.25-3.08 5.635-6.26 4.847l-5.915-1.466C3.06 53.25 0 49.365 0 44.906V38.58c0-4.245 2.775-7.972 6.807-9.252Zm2.07 5.595a3.776 3.776 0 0 0-2.88 3.657v6.327a3.776 3.776 0 0 0 2.88 3.657l4.724 1.171V33.751l-4.724 1.17Zm56.246 0L60.4 33.75v15.983l4.724-1.17a3.776 3.776 0 0 0 2.88-3.658V38.58a3.776 3.776 0 0 0-2.88-3.657ZM59.208 50.03ZM31.9 59.886c-1.161 0-2.102.933-2.102 2.084s.941 2.084 2.102 2.084h10.2c1.161 0 2.102-.933 2.102-2.084 0-1.15-.941-2.084-2.102-2.084H31.9Z"/></svg><svg xml:space="preserve" viewBox="0 0 64 63" id="icon7" xmlns="http://www.w3.org/2000/svg"><path d="M49.9 49.2V61c0 .5-.4.8-.8.8H15.2c-.5 0-.9-.4-.9-.9V49.1H6.5c-.6 0-1.2-.1-1.8-.3-.3-.1-.5-.2-.8-.3-1.4-.8-2.4-2-2.7-3.6-.1-.3-.1-.5-.1-.8V19.9c0-.7.1-1.3.3-1.9.6-1.5 2-2.9 3.8-3.2.3-.1.6-.1.9-.1h.2c.1-.1.1-.2.1-.3v-4.1c0-.4.3-.7.7-.8H14c.1-.1 0-.2 0-.4V6.7c0-.7.1-1.5.4-2.2.8-1.8 2.2-3 4.2-3.4.3 0 .7-.1 1.1-.1h24.6c.7 0 1.4.1 2.1.3.9.3 1.6.8 2.3 1.5.8.9 1.3 2 1.5 3.2V9.4H57c.4.1.7.4.7.8v4.5h.3c.8 0 1.6.2 2.3.7 1.5.8 2.3 2.1 2.6 3.7v24.6c0 .5 0 1-.2 1.4-.5 1.9-2.1 3.5-4.1 3.8-.4.1-.7.1-1.1.1h-7.3c0 .2-.2.2-.3.2zm0-1.9H58c1.4-.1 2.6-1.1 2.9-2.5.1-.3.1-.6.1-.9v-24c0-1.4-1-2.6-2.2-3-.4-.1-.7-.2-1.1-.2H5.7c-1.3.2-2.3 1.1-2.7 2.4V44.1c0 .6.2 1.1.5 1.6.6 1 1.5 1.5 2.6 1.6h8v-8.4c0-.5.4-.9.9-.9H49c.5 0 .8.4.9.9v8.4zM16.1 60H48V39.8H16.1c-.1.4-.1 19.9 0 20.2zm32.1-45.2V6.7c0-.2 0-.5-.1-.7-.2-1-.8-1.9-1.7-2.4-.7-.4-1.4-.6-2.2-.6H19c-1.3.1-2.6 1-3.1 2.4-.2.5-.2.9-.2 1.4v8h32.5zm2 0h5.5V11.4H50.3c-.2.3-.2 3.1-.1 3.4zm-42-3.4V14.7h5.6V11.4H8.2z"/><path d="M15.3 63H15c-1-.1-1.8-.8-1.9-1.9V50.2H6.3c-.8 0-1.5-.1-2.1-.3-.3-.1-.6-.2-.9-.4-1.7-1-2.8-2.4-3.2-4.3 0-.2-.1-.5-.1-.7V20.1c0-.8.1-1.5.4-2.2.7-2 2.5-3.5 4.5-3.9.1 0 .2 0 .3-.1v-3.6c.2-.9.8-1.6 1.6-1.8.3-.1.5-.1.7-.1h5.4V6.6c0-1 .2-1.8.5-2.6 1-2.1 2.6-3.5 4.9-3.9.5-.1 1-.1 1.4-.1h24.6c.9 0 1.7.1 2.4.4 1 .4 1.9.9 2.7 1.7 1 1 1.6 2.3 1.7 3.7v2.6H56.5c.2 0 .4 0 .7.1.8.2 1.4.9 1.5 1.7V13.8c.8.1 1.5.4 2.1.7 1.7 1 2.8 2.5 3.1 4.5.1.4.1.8.1 1.1v23.8c0 .7-.1 1.2-.2 1.7-.6 2.3-2.5 4.1-4.9 4.5-.4.1-.8.1-1.3.1h-6.7v10.9c-.1.9-.8 1.7-1.8 1.8h-.4l-33.4.1zm-.2-2.7v.6h.1l-.1-.6zm33.5.7h.4c-.1 0-.1 0-.1-.1l-.5.1h.2zm-31.5-2H47V40.8H17.1c-.1 3.3-.1 14.9 0 18.2zm33-9.8zm-35.8-.9.7.1v.4-1.2.1l-.2.5-.5.1c0-.1 0-.1 0 0zm34.7 0v.3l.6-.2h.1l-.7-.1zM10.6 17.7H5.8c-.9.1-1.6.8-1.8 1.6V44.1c0 .4.1.8.3 1.1.4.7 1 1 1.8 1.1h7V38.9c.1-1 .8-1.8 1.9-1.9H49.2c1 .1 1.7.8 1.8 1.8V46.4h7c1-.1 1.8-.8 2-1.7V20c0-1-.8-1.8-1.5-2-.3-.1-.5-.1-.8-.1H14.3c-1.2-.2-2.4-.2-3.7-.2zm4.7 21.2h-.2v.6l.2-.6h.3-.3zm33.5 0 .1.6v-.7c0 .1-.1.1-.1.1zm-.1-23.2h.8-.1l-.2-.7v.6l-.5.1zm-34.5 0h1.1-.4l-.1-.7-.1.3-.5.4zm-6.9-.8-.3.6-.2.2H8l-.5-.3-.2-.5zm49.4.1-.1.4-.5.3H56h1-.3V15zm-39.9-1.2h30.4V6.2c-.2-.8-.6-1.4-1.2-1.8-.5-.3-1-.4-1.6-.4H19.2c-.8.1-1.9.7-2.2 1.8-.1.3-.2.6-.2 1.1v6.9zm34.3 0h3.7v-1.4h-3.6c-.1.4-.1 1-.1 1.4zM9.2 12.4V13.8h3.6v-1.4H9.2zm5.1-1.9h.3l.2.7V9.8v.1l-.2.6h-.3zm42.2 0 .2.6v-.7c0 .1-.1.1-.2.1zm-7.3-.2v.8l.1-.4.5-.2c.1 0 .1-.1.2-.1l-.8-.1zm-41.9.2h.5-.5c-.1 0-.1 0 0 0z"/><path d="M8.6 21c.7 0 1.4.6 1.4 1.4s-.6 1.4-1.4 1.4c-.7 0-1.4-.6-1.4-1.4 0-.9.7-1.5 1.4-1.4zm0 1c-.2 0-.4.2-.4.4s.2.4.4.4.4-.2.4-.4c0-.3-.2-.4-.4-.4z"/><path d="M8.6 24.8c-1.3 0-2.4-1.1-2.4-2.4 0-.7.3-1.4.8-1.9.5-.4 1.1-.6 1.6-.5 1.3 0 2.3 1.1 2.3 2.4.1 1.3-1 2.4-2.3 2.4zM8.4 22s-.1 0-.1.1c0 0-.1.1-.1.4 0 .2.2.4.4.4s.4-.2.4-.4c0-.3-.2-.5-.4-.5h-.2c.1 0 .1 0 0 0zM10 30.1c0 .8-.6 1.4-1.4 1.4-.7 0-1.4-.6-1.4-1.4s.6-1.4 1.4-1.4c.8 0 1.4.6 1.4 1.4zm-1.4-.4c-.2 0-.4.2-.4.4s.2.4.4.4.4-.2.4-.4-.2-.4-.4-.4z"/><path d="M8.6 32.5c-1.3 0-2.4-1.1-2.4-2.4 0-1.3 1.1-2.4 2.4-2.4s2.4 1.1 2.4 2.4c0 1.3-1.1 2.4-2.4 2.4zm0-2.8c-.2 0-.4.2-.4.4s.2.4.4.4.4-.2.4-.4-.2-.4-.4-.4zM32 50.9H21.1c-.5 0-.9-.4-.9-.9s.3-.9.7-1h22.2c.5.1.9.5.8 1 0 .4-.4.8-.8.8h-.4c-3.6.1-7.2.1-10.7.1z"/><path d="M32 51.9H21.1c-1 0-1.9-.9-1.9-1.9 0-.9.6-1.8 1.5-2H43.3c1.1.2 1.7 1.1 1.6 2.1-.1.9-.9 1.7-1.8 1.7h-.4c-3.6.1-7.2.1-10.7.1zM43 50z"/></svg><svg fill="none" viewBox="0 0 277 93" id="logo" xmlns="http://www.w3.org/2000/svg"><g clip-path="url(#na)" fill-rule="evenodd" clip-rule="evenodd"><path d="m2.5 19.168 39.367 22.303 39.283-22.45L41.788 0 2.5 19.168Z" fill="url(#nb)"/><path d="m41.867 41.471 39.283-22.45C54.55 32.597 28.332 32.646 2.5 19.17l39.367 22.302Z" fill="url(#nc)"/><path d="m46.807 49.573 37.422-20.974-7.546 36.903-30.548 27.483.672-43.412Z" fill="url(#nd)"/><path d="M48.718 49.893c6.649-3.99 20.262-10.931 34.686-19.71-22.579 17.853-33.518 43.334-35.23 60.97-.16-12.773.447-28.185.544-41.26Z" fill="url(#ne)"/><path d="M37.5 49.59 0 28.757l7.684 36.875L38.335 93 37.5 49.59Z" fill="url(#nf)"/><path d="M35.59 49.918C28.927 45.952 15.287 39.063.831 30.338c22.646 17.768 34.255 43.722 36.034 61.35.11-12.773-1.385-28.998-1.275-41.77Z" fill="url(#ng)"/><path d="M277 33.102v11.807h-1.695V34.155c0-3.707-2.108-6.178-5.773-6.178-3.529 0-6.278 2.7-6.278 6.498v10.434h-1.741V19.007h1.741v11.166c1.192-2.105 3.208-3.752 6.552-3.752 4.307 0 6.919 2.745 7.194 6.681Zm-28.27 12.219h-1.1c-4.994-.275-8.751-4.485-8.751-9.382v-.045c0-5.08 4.078-9.473 9.255-9.473 3.437 0 5.544 1.556 7.285 3.295l-1.283 1.28c-1.557-1.6-3.344-2.974-6.048-2.974-4.123 0-7.285 3.433-7.285 7.78v.092c0 4.347 3.299 7.825 7.469 7.825 2.52 0 4.536-1.327 6.048-3.02l1.237 1.052c-1.741 1.968-3.803 3.433-6.827 3.57Zm-23.459 0h-1.1c-4.215-.229-6.69-3.25-6.69-7.414V26.833h1.742v10.754c0 3.707 2.107 6.178 5.773 6.178 3.528 0 6.277-2.7 6.277-6.453v-10.48h1.741V44.91h-1.741v-3.34c-1.146 2.013-3.024 3.615-6.002 3.752Zm-22.131 0h-1.099c-5.086-.275-8.752-4.485-8.752-9.382v-.045c0-5.08 3.986-9.473 9.347-9.473 5.407 0 9.301 4.301 9.301 9.381v.092c0 4.896-3.665 9.152-8.797 9.427Zm-63.138 0h-1.1c-4.536-.229-8.384-3.982-8.384-9.427v-.046c0-5.263 3.711-9.427 8.613-9.427 5.086 0 8.294 4.073 8.294 9.473 0 .32 0 .412-.046.686H132.35c.321 4.53 3.574 7.14 7.102 7.14 2.841 0 4.765-1.236 6.232-2.838l1.237 1.052c-1.741 1.877-3.757 3.25-6.919 3.387Zm-37.709-.412v-24.85h1.741l17.182 21.646V20.06h1.787v24.849h-1.42L104.08 22.851V44.91h-1.787Zm36.747-16.932c-3.574 0-6.369 3.02-6.69 7.047h13.196c-.229-3.661-2.337-7.047-6.506-7.047Zm29.553 16.932h-2.199l-6.369-8.054-6.415 8.054h-2.107l7.422-9.198-7.102-8.878h2.154l6.094 7.642 6.139-7.643h2.108l-7.148 8.833 7.423 9.244Zm14.02-23.11v23.11h-1.832v-23.11h-8.706v-1.74h19.198v1.74h-8.66Zm27.446 14.095c0-4.394-3.299-7.872-7.469-7.872-4.307 0-7.376 3.524-7.376 7.78v.092c0 4.347 3.253 7.825 7.422 7.825 4.307 0 7.423-3.524 7.423-7.78v-.045Z" fill="#19488B"/><path d="M112.83 62.802v-8.146h.596v8.146h-.596Zm93.607.138h-1.191c-2.153-.275-3.482-2.105-3.482-4.165v-.045c0-2.197 1.604-4.21 4.078-4.21s4.124 1.967 4.124 4.21c0 2.059-1.421 3.935-3.529 4.21Zm-55.852 0h-1.146c-2.153-.275-3.528-2.105-3.528-4.165v-.045c0-2.197 1.65-4.21 4.124-4.21 2.474 0 4.123 1.967 4.123 4.21 0 2.059-1.42 3.935-3.573 4.21Zm-24.33-.138-5.773-7.23v7.23h-.55v-8.146h.55l5.635 7.094v-7.094h.596v8.146h-.458Zm13.196 0-5.773-7.23v7.23h-.596v-8.146h.596l5.635 7.094v-7.094h.596v8.146h-.458Zm14.066-4.072c0-2.014-1.466-3.662-3.482-3.662s-3.482 1.648-3.482 3.662c0 2.013 1.466 3.706 3.482 3.706s3.482-1.647 3.482-3.66v-.047Zm9.622 4.164h-.55l-3.574-8.238h.688l3.161 7.506 3.207-7.506h.642l-3.574 8.238Zm14.937-.092-1.008-2.242h-4.811l-1.054 2.242h-.641l3.802-8.191h.596l3.803 8.191h-.687Zm-3.437-7.505-2.153 4.714h4.307l-2.154-4.714Zm11.638-.045v7.55h-.595v-7.55h-2.841v-.596h6.277v.596h-2.841Zm8.752 7.55v-8.146h.595v8.146h-.595Zm14.295-4.072c0-2.014-1.466-3.662-3.482-3.662s-3.482 1.648-3.482 3.662c0 2.013 1.466 3.706 3.482 3.706s3.482-1.647 3.482-3.66v-.047Zm13.013 4.072-5.774-7.23v7.23h-.549v-8.146h.549l5.636 7.094v-7.094h.596v8.146h-.458Zm14.341 0v-8.146h.595v7.597h4.766v.55h-5.361Zm17.548 0-1.053-2.242h-4.811l-1.054 2.242h-.642l3.803-8.191h.596l3.803 8.191h-.642Zm-3.482-7.505-2.153 4.714h4.307l-2.154-4.714Zm15.854 5.263v.046c0 1.373-1.192 2.196-2.933 2.196h-3.574v-8.146h3.391c.916 0 1.649.275 2.107.733.367.366.55.778.55 1.281v.046c0 1.098-.733 1.647-1.42 1.922 1.008.274 1.879.824 1.879 1.922Zm-1.1-3.798v-.046c0-.87-.733-1.465-2.016-1.465h-2.749v3.204h2.657c1.237 0 2.108-.595 2.108-1.693Zm.458 3.798c0-.961-.871-1.556-2.474-1.556h-2.749v3.25h2.932c1.42 0 2.291-.642 2.291-1.648v-.046Z" fill="#566080"/></g><defs><linearGradient id="nb" x1="41.867" y1="41.471" x2="41.789" y2="0" gradientUnits="userSpaceOnUse"><stop stop-color="#E02F80"/><stop offset="1" stop-color="#723685"/></linearGradient><linearGradient id="nc" x1="41.87" y1="42.923" x2="41.836" y2="25.054" gradientUnits="userSpaceOnUse"><stop stop-color="#E02F80"/><stop offset="1" stop-color="#723685"/></linearGradient><linearGradient id="nd" x1="61.961" y1="79.427" x2="65.264" y2="41.873" gradientUnits="userSpaceOnUse"><stop stop-color="#F1A721"/><stop offset=".95" stop-color="#D94E26"/><stop offset="1" stop-color="#D94E26"/></linearGradient><linearGradient id="ne" x1="40.623" y1="81.831" x2="76.609" y2="29.682" gradientUnits="userSpaceOnUse"><stop stop-color="#D73E27"/><stop offset="1" stop-color="#EF9F20"/></linearGradient><linearGradient id="nf" x1="12.202" y1="42.137" x2="33.855" y2="74.464" gradientUnits="userSpaceOnUse"><stop stop-color="#53BBEA"/><stop offset="1" stop-color="#D6E9F1"/></linearGradient><linearGradient id="ng" x1="44.985" y1="-2.147" x2="-8.215" y2="126.722" gradientUnits="userSpaceOnUse"><stop stop-color="#B2D9E7"/><stop offset="1" stop-color="#45B8E7"/></linearGradient><clipPath id="na"><path fill="#fff" d="M0 0h277v93H0z"/></clipPath></defs></svg><svg fill="none" viewBox="0 0 227 75" id="logo-mini" xmlns="http://www.w3.org/2000/svg"><g clip-path="url(#ma)" fill-rule="evenodd" clip-rule="evenodd"><path d="M2.048 15.458 34.31 33.444 66.502 15.34 34.245 0 2.048 15.458Z" fill="url(#mb)"/><path d="M34.31 33.444c10.729-6.035 21.46-12.07 32.192-18.104-21.8 10.947-43.284 10.987-64.454.12L34.31 33.443Z" fill="url(#mc)"/><path d="m38.358 39.978 30.667-16.915-6.184 29.762-25.033 22.163.55-35.01Z" fill="url(#md)"/><path d="M39.924 40.236c5.449-3.218 16.605-8.815 28.425-15.895C49.846 38.738 40.88 59.288 39.478 73.51c-.13-10.3.367-22.73.446-33.274Z" fill="url(#me)"/><path d="M30.73 39.992 0 23.191l6.297 29.738L31.416 75l-.685-35.008Z" fill="url(#mf)"/><path d="M29.166 40.256c-5.46-3.198-16.639-8.754-28.485-15.79 18.558 14.329 28.072 35.26 29.53 49.476.09-10.3-1.135-23.385-1.045-33.686Z" fill="url(#mg)"/><path d="M227 26.695v9.522h-1.389v-8.673c0-2.99-1.727-4.982-4.731-4.982-2.892 0-5.144 2.177-5.144 5.24v8.415h-1.427V15.328h1.427v9.005c.976-1.697 2.628-3.026 5.369-3.026 3.529 0 5.67 2.214 5.895 5.388Zm-23.167 9.854h-.901c-4.093-.221-7.172-3.617-7.172-7.566v-.037c0-4.096 3.342-7.64 7.585-7.64 2.816 0 4.543 1.256 5.97 2.658l-1.052 1.033c-1.276-1.291-2.741-2.398-4.956-2.398-3.379 0-5.97 2.767-5.97 6.274v.073c0 3.506 2.703 6.311 6.12 6.311 2.065 0 3.718-1.07 4.957-2.435l1.013.848c-1.426 1.587-3.116 2.768-5.594 2.879Zm-19.225 0h-.901c-3.455-.184-5.482-2.62-5.482-5.979V21.64h1.427v8.673c0 2.99 1.727 4.982 4.731 4.982 2.891 0 5.144-2.177 5.144-5.203v-8.452h1.427v14.578h-1.427v-2.694c-.939 1.623-2.478 2.915-4.919 3.026Zm-18.136 0h-.901c-4.168-.221-7.172-3.617-7.172-7.566v-.037c0-4.096 3.267-7.64 7.66-7.64 4.431 0 7.623 3.47 7.623 7.567v.073c0 3.95-3.004 7.382-7.21 7.603Zm-51.741 0h-.901c-3.717-.184-6.871-3.21-6.871-7.603v-.037c0-4.244 3.041-7.602 7.058-7.602 4.168 0 6.797 3.285 6.797 7.64 0 .258 0 .332-.038.553H108.46c.263 3.654 2.929 5.757 5.82 5.757 2.328 0 3.905-.996 5.107-2.288l1.014.849c-1.427 1.513-3.079 2.62-5.67 2.73Zm-30.902-.332v-20.04h1.427l14.08 17.456V16.177h1.465v20.04h-1.164L85.293 18.428v17.789H83.83Zm30.113-13.655c-2.928 0-5.219 2.435-5.482 5.683h10.814c-.187-2.952-1.915-5.683-5.332-5.683Zm24.219 13.655h-1.802l-5.219-6.496-5.257 6.496h-1.727l6.082-7.418-5.82-7.16h1.765l4.994 6.163 5.031-6.163h1.728l-5.858 7.123 6.083 7.455Zm11.49-18.638v18.638h-1.502V17.579h-7.134v-1.402h15.732v1.402h-7.096Zm22.491 11.367c0-3.543-2.703-6.347-6.12-6.347-3.53 0-6.046 2.841-6.046 6.274v.073c0 3.506 2.666 6.311 6.083 6.311 3.53 0 6.083-2.841 6.083-6.274v-.037Z" fill="#19488B"/><path d="M92.464 50.647v-6.57h.488v6.57h-.488Zm76.71.11h-.976c-1.765-.22-2.853-1.697-2.853-3.358v-.037c0-1.771 1.314-3.395 3.341-3.395 2.028 0 3.38 1.587 3.38 3.395 0 1.661-1.164 3.174-2.892 3.396Zm-45.771 0h-.938c-1.765-.22-2.892-1.697-2.892-3.358v-.037c0-1.771 1.352-3.395 3.38-3.395 2.027 0 3.379 1.587 3.379 3.395 0 1.661-1.164 3.174-2.929 3.396Zm-19.938-.11-4.73-5.831v5.831h-.451v-6.57h.45l4.619 5.721v-5.72h.488v6.57h-.376Zm10.814 0-4.731-5.831v5.831h-.488v-6.57h.488l4.618 5.721v-5.72h.489v6.57h-.376Zm11.527-3.285c0-1.623-1.201-2.952-2.853-2.952-1.652 0-2.854 1.329-2.854 2.953 0 1.623 1.202 2.989 2.854 2.989 1.652 0 2.853-1.329 2.853-2.953v-.037Zm7.885 3.359h-.45l-2.929-6.643h.563l2.591 6.052 2.629-6.052h.525l-2.929 6.643Zm12.241-.074-.826-1.808h-3.942l-.864 1.808h-.526l3.117-6.606h.488l3.116 6.606h-.563Zm-2.816-6.053-1.765 3.802h3.53l-1.765-3.802Zm9.537-.036v6.09h-.488v-6.09h-2.328v-.48h5.144v.48h-2.328Zm7.172 6.09v-6.57h.488v6.57h-.488Zm11.715-3.286c0-1.623-1.202-2.952-2.854-2.952-1.652 0-2.853 1.329-2.853 2.953 0 1.623 1.201 2.989 2.853 2.989 1.652 0 2.854-1.329 2.854-2.953v-.037Zm10.664 3.285-4.731-5.831v5.831h-.451v-6.57h.451l4.618 5.721v-5.72h.488v6.57h-.375Zm11.752 0v-6.57h.488v6.127h3.905v.443h-4.393Zm14.381 0-.863-1.808h-3.943l-.864 1.808h-.525l3.116-6.606h.488l3.117 6.606h-.526Zm-2.853-6.053-1.765 3.802h3.529l-1.764-3.802Zm12.991 4.245v.037c0 1.107-.976 1.771-2.403 1.771h-2.929v-6.57h2.779c.751 0 1.352.222 1.727.591.301.296.451.628.451 1.034v.037c0 .885-.601 1.328-1.164 1.55.826.221 1.539.664 1.539 1.55Zm-.901-3.063v-.037c0-.702-.601-1.181-1.652-1.181h-2.253v2.583h2.178c1.014 0 1.727-.48 1.727-1.365Zm.376 3.063c0-.775-.714-1.255-2.028-1.255h-2.253v2.62h2.403c1.164 0 1.878-.517 1.878-1.328v-.037Z" fill="#566080"/></g><defs><linearGradient id="mb" x1="34.31" y1="33.444" x2="34.248" y2="0" gradientUnits="userSpaceOnUse"><stop stop-color="#E02F80"/><stop offset="1" stop-color="#723685"/></linearGradient><linearGradient id="mc" x1="34.312" y1="34.616" x2="34.285" y2="20.204" gradientUnits="userSpaceOnUse"><stop stop-color="#E02F80"/><stop offset="1" stop-color="#723685"/></linearGradient><linearGradient id="md" x1="50.776" y1="64.055" x2="53.399" y2="33.761" gradientUnits="userSpaceOnUse"><stop stop-color="#F1A721"/><stop offset=".95" stop-color="#D94E26"/><stop offset="1" stop-color="#D94E26"/></linearGradient><linearGradient id="me" x1="33.29" y1="65.993" x2="62.144" y2="23.504" gradientUnits="userSpaceOnUse"><stop stop-color="#D73E27"/><stop offset="1" stop-color="#EF9F20"/></linearGradient><linearGradient id="mf" x1="10" y1="33.982" x2="27.354" y2="60.309" gradientUnits="userSpaceOnUse"><stop stop-color="#53BBEA"/><stop offset="1" stop-color="#D6E9F1"/></linearGradient><linearGradient id="mg" x1="36.865" y1="-1.732" x2="-5.551" y2="102.676" gradientUnits="userSpaceOnUse"><stop stop-color="#B2D9E7"/><stop offset="1" stop-color="#45B8E7"/></linearGradient><clipPath id="ma"><path fill="#fff" d="M0 0h227v75H0z"/></clipPath></defs></svg><svg viewBox="0 0 500 500" id="qr" xmlns="http://www.w3.org/2000/svg"><defs><path id="oa" fill="#fff" fill-opacity="1" d="M0 0h20v20H0z"/></defs><path fill="none" d="M0 0h500v500H0z"/><use xlink:href="#oa"/><use x="20" xlink:href="#oa"/><use x="40" xlink:href="#oa"/><use x="60" xlink:href="#oa"/><use x="80" xlink:href="#oa"/><use x="100" xlink:href="#oa"/><use x="120" xlink:href="#oa"/><use x="180" xlink:href="#oa"/><use x="200" xlink:href="#oa"/><use x="220" xlink:href="#oa"/><use x="240" xlink:href="#oa"/><use x="260" xlink:href="#oa"/><use x="360" xlink:href="#oa"/><use x="380" xlink:href="#oa"/><use x="400" xlink:href="#oa"/><use x="420" xlink:href="#oa"/><use x="440" xlink:href="#oa"/><use x="460" xlink:href="#oa"/><use x="480" xlink:href="#oa"/><use y="20" xlink:href="#oa"/><use x="120" y="20" xlink:href="#oa"/><use x="240" y="20" xlink:href="#oa"/><use x="260" y="20" xlink:href="#oa"/><use x="280" y="20" xlink:href="#oa"/><use x="320" y="20" xlink:href="#oa"/><use x="360" y="20" xlink:href="#oa"/><use x="480" y="20" xlink:href="#oa"/><use y="40" xlink:href="#oa"/><use x="40" y="40" xlink:href="#oa"/><use x="60" y="40" xlink:href="#oa"/><use x="80" y="40" xlink:href="#oa"/><use x="120" y="40" xlink:href="#oa"/><use x="160" y="40" xlink:href="#oa"/><use x="180" y="40" xlink:href="#oa"/><use x="220" y="40" xlink:href="#oa"/><use x="280" y="40" xlink:href="#oa"/><use x="320" y="40" xlink:href="#oa"/><use x="360" y="40" xlink:href="#oa"/><use x="400" y="40" xlink:href="#oa"/><use x="420" y="40" xlink:href="#oa"/><use x="440" y="40" xlink:href="#oa"/><use x="480" y="40" xlink:href="#oa"/><use y="60" xlink:href="#oa"/><use x="40" y="60" xlink:href="#oa"/><use x="60" y="60" xlink:href="#oa"/><use x="80" y="60" xlink:href="#oa"/><use x="120" y="60" xlink:href="#oa"/><use x="160" y="60" xlink:href="#oa"/><use x="240" y="60" xlink:href="#oa"/><use x="280" y="60" xlink:href="#oa"/><use x="320" y="60" xlink:href="#oa"/><use x="360" y="60" xlink:href="#oa"/><use x="400" y="60" xlink:href="#oa"/><use x="420" y="60" xlink:href="#oa"/><use x="440" y="60" xlink:href="#oa"/><use x="480" y="60" xlink:href="#oa"/><use y="80" xlink:href="#oa"/><use x="40" y="80" xlink:href="#oa"/><use x="60" y="80" xlink:href="#oa"/><use x="80" y="80" xlink:href="#oa"/><use x="120" y="80" xlink:href="#oa"/><use x="180" y="80" xlink:href="#oa"/><use x="240" y="80" xlink:href="#oa"/><use x="260" y="80" xlink:href="#oa"/><use x="280" y="80" xlink:href="#oa"/><use x="300" y="80" xlink:href="#oa"/><use x="360" y="80" xlink:href="#oa"/><use x="400" y="80" xlink:href="#oa"/><use x="420" y="80" xlink:href="#oa"/><use x="440" y="80" xlink:href="#oa"/><use x="480" y="80" xlink:href="#oa"/><use y="100" xlink:href="#oa"/><use x="120" y="100" xlink:href="#oa"/><use x="180" y="100" xlink:href="#oa"/><use x="280" y="100" xlink:href="#oa"/><use x="300" y="100" xlink:href="#oa"/><use x="360" y="100" xlink:href="#oa"/><use x="480" y="100" xlink:href="#oa"/><use y="120" xlink:href="#oa"/><use x="20" y="120" xlink:href="#oa"/><use x="40" y="120" xlink:href="#oa"/><use x="60" y="120" xlink:href="#oa"/><use x="80" y="120" xlink:href="#oa"/><use x="100" y="120" xlink:href="#oa"/><use x="120" y="120" xlink:href="#oa"/><use x="160" y="120" xlink:href="#oa"/><use x="200" y="120" xlink:href="#oa"/><use x="240" y="120" xlink:href="#oa"/><use x="280" y="120" xlink:href="#oa"/><use x="320" y="120" xlink:href="#oa"/><use x="360" y="120" xlink:href="#oa"/><use x="380" y="120" xlink:href="#oa"/><use x="400" y="120" xlink:href="#oa"/><use x="420" y="120" xlink:href="#oa"/><use x="440" y="120" xlink:href="#oa"/><use x="460" y="120" xlink:href="#oa"/><use x="480" y="120" xlink:href="#oa"/><use x="200" y="140" xlink:href="#oa"/><use x="220" y="140" xlink:href="#oa"/><use x="320" y="140" xlink:href="#oa"/><use x="60" y="160" xlink:href="#oa"/><use x="80" y="160" xlink:href="#oa"/><use x="120" y="160" xlink:href="#oa"/><use x="140" y="160" xlink:href="#oa"/><use x="200" y="160" xlink:href="#oa"/><use x="220" y="160" xlink:href="#oa"/><use x="300" y="160" xlink:href="#oa"/><use x="320" y="160" xlink:href="#oa"/><use x="420" y="160" xlink:href="#oa"/><use x="440" y="160" xlink:href="#oa"/><use y="180" xlink:href="#oa"/><use x="20" y="180" xlink:href="#oa"/><use x="40" y="180" xlink:href="#oa"/><use x="60" y="180" xlink:href="#oa"/><use x="80" y="180" xlink:href="#oa"/><use x="100" y="180" xlink:href="#oa"/><use x="180" y="180" xlink:href="#oa"/><use x="200" y="180" xlink:href="#oa"/><use x="240" y="180" xlink:href="#oa"/><use x="280" y="180" xlink:href="#oa"/><use x="320" y="180" xlink:href="#oa"/><use x="360" y="180" xlink:href="#oa"/><use x="400" y="180" xlink:href="#oa"/><use x="420" y="180" xlink:href="#oa"/><use x="440" y="180" xlink:href="#oa"/><use x="460" y="180" xlink:href="#oa"/><use x="480" y="180" xlink:href="#oa"/><use y="200" xlink:href="#oa"/><use x="60" y="200" xlink:href="#oa"/><use x="80" y="200" xlink:href="#oa"/><use x="120" y="200" xlink:href="#oa"/><use x="200" y="200" xlink:href="#oa"/><use x="300" y="200" xlink:href="#oa"/><use x="320" y="200" xlink:href="#oa"/><use x="340" y="200" xlink:href="#oa"/><use x="380" y="200" xlink:href="#oa"/><use x="400" y="200" xlink:href="#oa"/><use x="460" y="200" xlink:href="#oa"/><use x="480" y="200" xlink:href="#oa"/><use x="20" y="220" xlink:href="#oa"/><use x="40" y="220" xlink:href="#oa"/><use x="60" y="220" xlink:href="#oa"/><use x="80" y="220" xlink:href="#oa"/><use x="100" y="220" xlink:href="#oa"/><use x="160" y="220" xlink:href="#oa"/><use x="180" y="220" xlink:href="#oa"/><use x="220" y="220" xlink:href="#oa"/><use x="240" y="220" xlink:href="#oa"/><use x="260" y="220" xlink:href="#oa"/><use x="300" y="220" xlink:href="#oa"/><use x="320" y="220" xlink:href="#oa"/><use x="380" y="220" xlink:href="#oa"/><use x="400" y="220" xlink:href="#oa"/><use x="440" y="220" xlink:href="#oa"/><use x="480" y="220" xlink:href="#oa"/><use y="240" xlink:href="#oa"/><use x="120" y="240" xlink:href="#oa"/><use x="140" y="240" xlink:href="#oa"/><use x="160" y="240" xlink:href="#oa"/><use x="240" y="240" xlink:href="#oa"/><use x="260" y="240" xlink:href="#oa"/><use x="280" y="240" xlink:href="#oa"/><use x="300" y="240" xlink:href="#oa"/><use x="320" y="240" xlink:href="#oa"/><use x="360" y="240" xlink:href="#oa"/><use x="380" y="240" xlink:href="#oa"/><use x="420" y="240" xlink:href="#oa"/><use x="480" y="240" xlink:href="#oa"/><use y="260" xlink:href="#oa"/><use x="20" y="260" xlink:href="#oa"/><use x="60" y="260" xlink:href="#oa"/><use x="80" y="260" xlink:href="#oa"/><use x="100" y="260" xlink:href="#oa"/><use x="160" y="260" xlink:href="#oa"/><use x="220" y="260" xlink:href="#oa"/><use x="320" y="260" xlink:href="#oa"/><use x="360" y="260" xlink:href="#oa"/><use x="460" y="260" xlink:href="#oa"/><use x="480" y="260" xlink:href="#oa"/><use y="280" xlink:href="#oa"/><use x="20" y="280" xlink:href="#oa"/><use x="40" y="280" xlink:href="#oa"/><use x="80" y="280" xlink:href="#oa"/><use x="120" y="280" xlink:href="#oa"/><use x="180" y="280" xlink:href="#oa"/><use x="200" y="280" xlink:href="#oa"/><use x="240" y="280" xlink:href="#oa"/><use x="260" y="280" xlink:href="#oa"/><use x="280" y="280" xlink:href="#oa"/><use x="320" y="280" xlink:href="#oa"/><use x="360" y="280" xlink:href="#oa"/><use x="400" y="280" xlink:href="#oa"/><use x="420" y="280" xlink:href="#oa"/><use y="300" xlink:href="#oa"/><use x="220" y="300" xlink:href="#oa"/><use x="240" y="300" xlink:href="#oa"/><use x="280" y="300" xlink:href="#oa"/><use x="300" y="300" xlink:href="#oa"/><use x="360" y="300" xlink:href="#oa"/><use x="420" y="300" xlink:href="#oa"/><use x="480" y="300" xlink:href="#oa"/><use y="320" xlink:href="#oa"/><use x="60" y="320" xlink:href="#oa"/><use x="80" y="320" xlink:href="#oa"/><use x="100" y="320" xlink:href="#oa"/><use x="120" y="320" xlink:href="#oa"/><use x="180" y="320" xlink:href="#oa"/><use x="200" y="320" xlink:href="#oa"/><use x="240" y="320" xlink:href="#oa"/><use x="260" y="320" xlink:href="#oa"/><use x="320" y="320" xlink:href="#oa"/><use x="340" y="320" xlink:href="#oa"/><use x="360" y="320" xlink:href="#oa"/><use x="380" y="320" xlink:href="#oa"/><use x="400" y="320" xlink:href="#oa"/><use x="460" y="320" xlink:href="#oa"/><use x="480" y="320" xlink:href="#oa"/><use x="160" y="340" xlink:href="#oa"/><use x="200" y="340" xlink:href="#oa"/><use x="220" y="340" xlink:href="#oa"/><use x="240" y="340" xlink:href="#oa"/><use x="260" y="340" xlink:href="#oa"/><use x="280" y="340" xlink:href="#oa"/><use x="300" y="340" xlink:href="#oa"/><use x="320" y="340" xlink:href="#oa"/><use x="400" y="340" xlink:href="#oa"/><use x="420" y="340" xlink:href="#oa"/><use x="460" y="340" xlink:href="#oa"/><use x="480" y="340" xlink:href="#oa"/><use y="360" xlink:href="#oa"/><use x="20" y="360" xlink:href="#oa"/><use x="40" y="360" xlink:href="#oa"/><use x="60" y="360" xlink:href="#oa"/><use x="80" y="360" xlink:href="#oa"/><use x="100" y="360" xlink:href="#oa"/><use x="120" y="360" xlink:href="#oa"/><use x="160" y="360" xlink:href="#oa"/><use x="180" y="360" xlink:href="#oa"/><use x="240" y="360" xlink:href="#oa"/><use x="300" y="360" xlink:href="#oa"/><use x="320" y="360" xlink:href="#oa"/><use x="360" y="360" xlink:href="#oa"/><use x="400" y="360" xlink:href="#oa"/><use x="440" y="360" xlink:href="#oa"/><use x="480" y="360" xlink:href="#oa"/><use y="380" xlink:href="#oa"/><use x="120" y="380" xlink:href="#oa"/><use x="180" y="380" xlink:href="#oa"/><use x="240" y="380" xlink:href="#oa"/><use x="260" y="380" xlink:href="#oa"/><use x="280" y="380" xlink:href="#oa"/><use x="320" y="380" xlink:href="#oa"/><use x="400" y="380" xlink:href="#oa"/><use y="400" xlink:href="#oa"/><use x="40" y="400" xlink:href="#oa"/><use x="60" y="400" xlink:href="#oa"/><use x="80" y="400" xlink:href="#oa"/><use x="120" y="400" xlink:href="#oa"/><use x="160" y="400" xlink:href="#oa"/><use x="180" y="400" xlink:href="#oa"/><use x="200" y="400" xlink:href="#oa"/><use x="300" y="400" xlink:href="#oa"/><use x="320" y="400" xlink:href="#oa"/><use x="340" y="400" xlink:href="#oa"/><use x="360" y="400" xlink:href="#oa"/><use x="380" y="400" xlink:href="#oa"/><use x="400" y="400" xlink:href="#oa"/><use x="420" y="400" xlink:href="#oa"/><use x="440" y="400" xlink:href="#oa"/><use y="420" xlink:href="#oa"/><use x="40" y="420" xlink:href="#oa"/><use x="60" y="420" xlink:href="#oa"/><use x="80" y="420" xlink:href="#oa"/><use x="120" y="420" xlink:href="#oa"/><use x="160" y="420" xlink:href="#oa"/><use x="180" y="420" xlink:href="#oa"/><use x="220" y="420" xlink:href="#oa"/><use x="260" y="420" xlink:href="#oa"/><use x="280" y="420" xlink:href="#oa"/><use x="300" y="420" xlink:href="#oa"/><use x="320" y="420" xlink:href="#oa"/><use x="360" y="420" xlink:href="#oa"/><use x="400" y="420" xlink:href="#oa"/><use x="460" y="420" xlink:href="#oa"/><use x="480" y="420" xlink:href="#oa"/><use y="440" xlink:href="#oa"/><use x="40" y="440" xlink:href="#oa"/><use x="60" y="440" xlink:href="#oa"/><use x="80" y="440" xlink:href="#oa"/><use x="120" y="440" xlink:href="#oa"/><use x="180" y="440" xlink:href="#oa"/><use x="300" y="440" xlink:href="#oa"/><use x="340" y="440" xlink:href="#oa"/><use x="360" y="440" xlink:href="#oa"/><use x="400" y="440" xlink:href="#oa"/><use x="440" y="440" xlink:href="#oa"/><use x="460" y="440" xlink:href="#oa"/><use x="480" y="440" xlink:href="#oa"/><use y="460" xlink:href="#oa"/><use x="120" y="460" xlink:href="#oa"/><use x="200" y="460" xlink:href="#oa"/><use x="260" y="460" xlink:href="#oa"/><use x="280" y="460" xlink:href="#oa"/><use x="320" y="460" xlink:href="#oa"/><use x="380" y="460" xlink:href="#oa"/><use y="480" xlink:href="#oa"/><use x="20" y="480" xlink:href="#oa"/><use x="40" y="480" xlink:href="#oa"/><use x="60" y="480" xlink:href="#oa"/><use x="80" y="480" xlink:href="#oa"/><use x="100" y="480" xlink:href="#oa"/><use x="120" y="480" xlink:href="#oa"/><use x="240" y="480" xlink:href="#oa"/><use x="340" y="480" xlink:href="#oa"/><use x="420" y="480" xlink:href="#oa"/><use x="480" y="480" xlink:href="#oa"/></svg></svg>