<svg version="1.1" id="Слой_1" xmlns="http://www.w3.org/2000/svg" xmlns:xlink="http://www.w3.org/1999/xlink" x="0px" y="0px"
	 width="1920px" height="1080px" viewBox="0 0 1920 1080" style="enable-background:new 0 0 1920 1080;" xml:space="preserve">
<g style="opacity:0.19;">
	<defs>
		<filter id="Adobe_OpacityMaskFilter" filterUnits="userSpaceOnUse" x="-1365.7" y="-551.8" width="3657.1" height="2198.9">
			<feColorMatrix  type="matrix" values="1 0 0 0 0  0 1 0 0 0  0 0 1 0 0  0 0 0 1 0"/>
		</filter>
	</defs>
	
		<mask maskUnits="userSpaceOnUse" x="-1365.7" y="-551.8" width="3657.1" height="2198.9" id="mask0_160_3_00000106864985984084179920000002251369130859289475_">
		<path style="fill:#FFFFFF;filter:url(#Adobe_OpacityMaskFilter);" d="M1920,0H0v1080h1920V0z"/>
	</mask>
	<g style="mask:url(#mask0_160_3_00000106864985984084179920000002251369130859289475_);">
		
			<linearGradient id="SVGID_1_" gradientUnits="userSpaceOnUse" x1="1169.6193" y1="275.7623" x2="2262.0662" y2="856.4571" gradientTransform="matrix(1 0 0 -1 0 1077.8899)">
			<stop  offset="0" style="stop-color:#184592"/>
			<stop  offset="0.1951" style="stop-color:#1D539C"/>
			<stop  offset="0.5668" style="stop-color:#2C79B7"/>
			<stop  offset="1" style="stop-color:#41ADDD"/>
		</linearGradient>
		<path style="fill:url(#SVGID_1_);" d="M1690.7,1278.4c-1.4-0.9-137.1-88.1-268.4-194.6c-77.1-62.6-137.6-119.5-179.8-169.1
			c-52.8-62.1-77-113-71.9-151.3c4.4-32.6,30.1-56.5,76.4-71c169.3-53.1,186.5-162.2,200.3-249.9c10.7-68,19.2-121.8,97.2-121.8
			c0.2,0,0.3,0,0.4,0c57.7,0.2,93.5,45.1,131.4,92.7c46.2,58,98.6,123.8,201.4,119.4c50.7-2.2,89.2-20.4,114.6-54
			c35.2-46.8,46.6-123.9,34.6-235.7c-10.4-97.4-36.9-207.4-60.3-304.5c-32.5-134.9-60.6-251.4-35.5-290.1
			c4.7-7.2,11.2-11.7,19.4-13.2l0.1,0.7c-8,1.5-14.3,5.8-18.9,12.9c-24.9,38.4,3.2,154.8,35.6,289.5
			c23.4,97.1,49.9,207.2,60.3,304.6c11.9,112,0.6,189.3-34.8,236.2c-25.5,33.8-64.2,52.1-115.1,54.3c-46.1,2-86.1-9.8-122.1-36
			c-31.7-23.1-56.2-53.9-80-83.7c-37.8-47.4-73.5-92.3-130.8-92.4c-0.1,0-0.3,0-0.4,0c-77.4,0-85.8,53.5-96.5,121.1
			c-6.8,43.4-14.6,92.7-41.8,137.8c-31.5,52.2-83.5,89-158.9,112.7c-46.1,14.4-71.6,38.1-75.9,70.4c-5.1,38.1,19,88.8,71.7,150.8
			c42.2,49.6,102.7,106.5,179.7,169c131.3,106.5,267,193.7,268.4,194.5L1690.7,1278.4z"/>
		
			<linearGradient id="SVGID_00000096023562973808277800000007407206073252874151_" gradientUnits="userSpaceOnUse" x1="1185.4988" y1="270.1661" x2="2277.9622" y2="850.8686" gradientTransform="matrix(1 0 0 -1 0 1077.8899)">
			<stop  offset="0" style="stop-color:#184592"/>
			<stop  offset="0.1951" style="stop-color:#1D539C"/>
			<stop  offset="0.5668" style="stop-color:#2C79B7"/>
			<stop  offset="1" style="stop-color:#41ADDD"/>
		</linearGradient>
		<path style="fill:url(#SVGID_00000096023562973808277800000007407206073252874151_);" d="M1656.1,1299.9l-0.7-0.1
			c-0.3-1.6-18-16.7-42.5-37.7c-64.6-55.2-184.9-158-280.9-261.1c-42.2-45.3-85.3-93.3-115-138.1c-31.9-48-43.8-85.7-36.4-115.3
			c6.9-27.9,30.5-48.4,72.1-62.8c156.6-54.1,179.8-152.3,198.4-231.1c15.2-64.6,27.3-115.7,107.5-117.5c18-0.4,34.9,3.6,53.3,12.6
			c31.5,15.5,55.2,43.7,80.3,73.5c43.3,51.6,88,104.9,178.7,98.1c40.4-3,71.9-18,96.1-45.7c37.3-42.6,52.8-114.8,47.5-221
			c-4.6-92.7-24.6-199.4-42.3-293.5c-29.4-157-54.8-292.6-1.6-311.6l0.3,0.7c-52.6,18.8-27.3,154.1,2.1,310.8
			c17.6,94.2,37.6,200.9,42.3,293.6c5.3,106.3-10.3,178.8-47.7,221.5c-24.4,27.8-56,42.9-96.6,45.9c-91,6.8-135.9-46.6-179.3-98.3
			c-25-29.8-48.6-57.9-80-73.4c-18.3-9-35.1-12.9-53-12.5c-79.6,1.8-91.6,52.6-106.7,116.9c-18.6,79.1-41.8,177.4-198.9,231.7
			c-41.3,14.3-64.8,34.6-71.6,62.3c-7.3,29.4,4.6,66.9,36.3,114.7c29.7,44.7,72.8,92.8,115,138c96,103.1,216.3,205.9,280.9,261.1
			C1645.3,1288.8,1656.4,1298.4,1656.1,1299.9z"/>
		
			<linearGradient id="SVGID_00000165955317519353101040000008779122803539419025_" gradientUnits="userSpaceOnUse" x1="1200.9664" y1="264.7457" x2="2293.7068" y2="845.5899" gradientTransform="matrix(1 0 0 -1 0 1077.8899)">
			<stop  offset="0" style="stop-color:#184592"/>
			<stop  offset="0.1951" style="stop-color:#1D539C"/>
			<stop  offset="0.5668" style="stop-color:#2C79B7"/>
			<stop  offset="1" style="stop-color:#41ADDD"/>
		</linearGradient>
		<path style="fill:url(#SVGID_00000165955317519353101040000008779122803539419025_);" d="M1621,1321.6l-0.7-0.1
			c0.6-3.8-30.2-37.3-73-83.6c-58.1-63-137.7-149.2-205.2-232.8c-9.2-11.4-18.6-22.8-27.6-33.9c-37.3-45.6-72.5-88.6-96.7-128
			c-27.1-44.2-36.4-77.5-29.1-104.6c7.1-26.3,29.8-46.4,69.5-61.4c144-54.3,172.8-141.9,195.8-212.3c20-61.1,35.8-109.4,118-113.4
			c21.3-1,39.2,4.9,52.5,10.1c34.3,13.6,59.1,41.5,83,68.4c38,42.7,77.3,86.9,156.2,77.8c35.3-4,62.8-19.2,86.2-47.6
			c76.1-92.1,49.5-298.1,26.1-479.7c-20.1-155.9-37.5-290.6,14.4-318.7l0.4,0.7c-51.4,27.9-34.1,162.3-14,318
			c23.4,181.8,50,387.9-26.3,480.3c-23.6,28.6-51.2,43.8-86.7,47.9c-79.3,9.1-118.7-35.2-156.9-78.1c-23.9-26.9-48.6-54.6-82.7-68.2
			c-13.2-5.2-31-11.1-52.2-10.1c-81.6,4-97.4,52.1-117.3,112.9c-23.1,70.5-51.9,158.3-196.3,212.7c-39.5,14.9-62.1,34.8-69.1,60.9
			c-7.2,26.9,2,60,29,104c24.1,39.3,59.3,82.3,96.6,127.9c9,11.1,18.4,22.5,27.6,33.9c67.5,83.6,147,169.8,205.1,232.7
			C1597.7,1291.4,1621.6,1317.5,1621,1321.6z"/>
		
			<linearGradient id="SVGID_00000080174170627826451770000008094516485423920523_" gradientUnits="userSpaceOnUse" x1="1216.1818" y1="259.3906" x2="2309.4551" y2="840.5206" gradientTransform="matrix(1 0 0 -1 0 1077.8899)">
			<stop  offset="0" style="stop-color:#184592"/>
			<stop  offset="0.1951" style="stop-color:#1D539C"/>
			<stop  offset="0.5668" style="stop-color:#2C79B7"/>
			<stop  offset="1" style="stop-color:#41ADDD"/>
		</linearGradient>
		<path style="fill:url(#SVGID_00000080174170627826451770000008094516485423920523_);" d="M1585.8,1343.3l-0.7-0.1
			c1.4-8.6-52.7-83.2-115.2-169.5c-37.3-51.5-79.7-109.9-117.6-164.4c-19-27.2-38.8-53.4-58-78.7c-60.2-79.3-112.2-147.8-98-199.8
			c6.9-25.3,29.1-45.3,67.6-61c131.5-53.7,165.2-131,192.4-193.2c25.1-57.6,44.9-103.1,129.4-109.5c19.7-1.5,37,3.2,51.7,7.7
			c37.4,11.4,61.8,37.1,85.4,62c34.1,36,66.4,70,134.1,58.8c30.1-4.9,53.6-20.2,76.4-49.6c68.7-88.8,56.4-278.7,45.6-446.3
			c-4.9-75.6-9.5-147.1-6.7-204.6c3.2-64.6,15.4-102.7,38.4-119.9l0.4,0.6c-22.8,17.1-34.9,55-38.1,119.3
			c-2.9,57.5,1.8,128.9,6.7,204.5c10.9,167.7,23.2,357.8-45.7,446.8c-22.9,29.5-46.6,44.9-76.8,49.9
			c-68.1,11.2-100.5-22.9-134.7-59.1c-23.5-24.8-47.8-50.4-85-61.8c-15.3-4.7-31.8-9.1-51.4-7.6c-84,6.3-103.7,51.7-128.8,109
			c-27.2,62.3-61,139.8-192.8,193.6c-38.3,15.6-60.3,35.4-67.2,60.6c-14.1,51.7,37.7,120.1,97.8,199.2
			c19.2,25.3,39.1,51.5,58.1,78.7c37.9,54.5,80.3,112.9,117.6,164.4C1535.7,1263.2,1587.2,1334.4,1585.8,1343.3z"/>
		
			<linearGradient id="SVGID_00000182525924099679235820000000228887650281830028_" gradientUnits="userSpaceOnUse" x1="1231.2222" y1="253.9399" x2="2325.2056" y2="835.4443" gradientTransform="matrix(1 0 0 -1 0 1077.8899)">
			<stop  offset="0" style="stop-color:#184592"/>
			<stop  offset="0.1951" style="stop-color:#1D539C"/>
			<stop  offset="0.5668" style="stop-color:#2C79B7"/>
			<stop  offset="1" style="stop-color:#41ADDD"/>
		</linearGradient>
		<path style="fill:url(#SVGID_00000182525924099679235820000000228887650281830028_);" d="M1550.6,1365l-0.7-0.1
			c2.9-17.8-95.1-196.3-187.5-351.4c-23.9-40.2-50.6-76.7-76.5-112.1c-25.6-35.1-49.8-68.2-65.5-97.8c-17.5-32.9-22.9-58.3-17-80
			c6.7-24.7,28.3-44.8,66.2-61.4c119-52.2,157.1-119.7,187.8-173.9c30.6-54.1,54.7-96.8,141.9-105.8c18.4-1.9,34.3,1.6,49.6,4.9
			l1.3,0.3c40.8,8.9,64.4,32,87.2,54.3c29.7,29.1,55.4,54.2,112.4,41.2c30.8-7,50.1-28.9,66.5-51.5c27.6-38.2,45.5-97,54.6-179.8
			c8.1-73.1,8.6-155.1,9.1-234.4c0.9-144.8,1.8-281.5,50.5-328.9l0.5,0.5c-48.5,47.2-49.3,183.8-50.2,328.4
			c-0.5,79.3-1,161.3-9.1,234.5c-9.2,82.9-27.1,141.9-54.8,180.2c-16.4,22.7-35.9,44.7-66.9,51.8c-26.2,6-47.6,4.4-67.1-5
			c-17.5-8.4-31.3-22-46-36.3c-22.7-22.2-46.3-45.2-86.9-54.1l-1.3-0.3c-15.3-3.3-31.1-6.8-49.4-4.9
			c-86.8,8.9-110.9,51.5-141.3,105.4c-15.4,27.3-32.9,58.1-61.1,88.3c-32.4,34.6-74,62.7-127,86c-37.7,16.5-59.2,36.4-65.8,60.9
			c-12.6,46.9,31.4,107.3,82.5,177.2c25.8,35.4,52.6,72,76.5,112.2C1455.5,1168.3,1553.6,1347,1550.6,1365z"/>
		
			<linearGradient id="SVGID_00000147206406811772352580000011193026764540290433_" gradientUnits="userSpaceOnUse" x1="1224.6866" y1="237.016" x2="2340.9519" y2="830.3656" gradientTransform="matrix(1 0 0 -1 0 1077.8899)">
			<stop  offset="0" style="stop-color:#184592"/>
			<stop  offset="0.1951" style="stop-color:#1D539C"/>
			<stop  offset="0.5668" style="stop-color:#2C79B7"/>
			<stop  offset="1" style="stop-color:#41ADDD"/>
		</linearGradient>
		<path style="fill:url(#SVGID_00000147206406811772352580000011193026764540290433_);" d="M1515.5,1386.7l-0.7-0.1
			c2-12.1-9.6-73.3-32.9-145.5c-20.8-64.3-56.6-155.3-109.3-223.5l-0.1-0.1c-20.8-72.9-64.5-133.1-99.6-181.5
			c-36.9-50.9-66.1-91.2-57.1-126.1c5.4-21,24.8-39.1,59.3-55.3c106.2-49.9,148-107.8,181.6-154.3c36.5-50.6,65.4-90.6,156-102.4
			c15.8-2.1,29.9-0.1,43.5,1.8c2.2,0.3,4.4,0.6,6.6,0.9c44.5,5.9,67.9,26.7,88.5,45.1c23.9,21.4,44.6,39.8,91.5,25
			c24.4-7.7,39.5-27.9,56.6-53.5c55-82.2,68.1-235.5,80.8-383.8c12.1-141.1,23.4-274.3,70.3-331.7l0.6,0.5
			c-46.7,57.3-58.1,190.4-70.1,331.3c-12.7,148.3-25.8,301.7-80.9,384.1c-17.2,25.7-32.3,46-57,53.8c-47.2,15-68.1-3.6-92.2-25.1
			c-20.5-18.3-43.8-39-88-44.9c-2.2-0.3-4.4-0.6-6.6-0.9c-13.5-1.9-27.5-3.9-43.3-1.8c-90.3,11.8-119.1,51.6-155.5,102.1
			c-16.9,23.4-36.1,50-64,76.5c-31.9,30.3-70.5,55.9-117.9,78.1c-34.3,16.1-53.6,34-58.9,54.8c-8.9,34.6,20.2,74.7,57,125.5
			c35.1,48.4,78.8,108.7,99.6,181.7c52.7,68.2,88.5,159.3,109.3,223.6C1505.9,1313.1,1517.5,1374.5,1515.5,1386.7z"/>
		
			<linearGradient id="SVGID_00000010270444787984249780000000272754711157109909_" gradientUnits="userSpaceOnUse" x1="1193.8499" y1="207.1719" x2="2356.6858" y2="825.2768" gradientTransform="matrix(1 0 0 -1 0 1077.8899)">
			<stop  offset="0" style="stop-color:#184592"/>
			<stop  offset="0.1951" style="stop-color:#1D539C"/>
			<stop  offset="0.5668" style="stop-color:#2C79B7"/>
			<stop  offset="1" style="stop-color:#41ADDD"/>
		</linearGradient>
		<path style="fill:url(#SVGID_00000010270444787984249780000000272754711157109909_);" d="M1480.3,1408.4l-0.7-0.1
			c2.3-14.3-0.5-81-14.2-157.3c-12.2-68.3-36.5-163.5-82.7-229.2l-0.1-0.1c-15.8-84.3-64.8-149.4-104.2-201.7
			c-35.3-46.8-63.1-83.7-55.3-117c4.8-20.6,23.7-38.9,57.6-55.9c92.9-46.5,135.4-93,172.9-134c43.3-47.3,77.4-84.7,172.7-99.8
			c13.9-2.2,26.5-1.3,38.7-0.4c3.6,0.3,7.1,0.5,10.6,0.7c48.4,2.3,70.8,20,88.9,34.3c19.8,15.6,34,26.8,71.3,10.4
			c17.9-7.9,28.4-25.3,41.8-47.3c1.6-2.7,3.3-5.4,5-8.1c48.8-79.3,73.3-219.7,97-355.6c23.8-136.2,46.2-264.8,91-332.3l0.6,0.4
			c-44.7,67.4-67.1,195.9-90.9,332c-23.7,135.9-48.2,276.4-97.1,355.8c-1.7,2.8-3.3,5.5-5,8.1c-13.4,22.1-24,39.6-42.1,47.6
			c-37.6,16.6-52.1,5.2-72-10.5c-17.9-14.2-40.3-31.8-88.4-34.1c-3.5-0.2-6.9-0.4-10.6-0.7c-12.2-0.9-24.7-1.8-38.6,0.4
			c-95,15-129.1,52.3-172.2,99.6c-37.5,41.1-80,87.6-173.1,134.2c-33.7,16.9-52.5,35-57.2,55.4c-7.7,32.9,20,69.8,55.2,116.4
			c39.4,52.3,88.5,117.5,104.3,201.9c46.2,65.8,70.5,161.1,82.8,229.4C1479.8,1327.3,1482.6,1394,1480.3,1408.4z"/>
		
			<linearGradient id="SVGID_00000148623330371856822330000001958378979469065603_" gradientUnits="userSpaceOnUse" x1="1163.016" y1="177.3303" x2="2372.4207" y2="820.1919" gradientTransform="matrix(1 0 0 -1 0 1077.8899)">
			<stop  offset="0" style="stop-color:#184592"/>
			<stop  offset="0.1951" style="stop-color:#1D539C"/>
			<stop  offset="0.5668" style="stop-color:#2C79B7"/>
			<stop  offset="1" style="stop-color:#41ADDD"/>
		</linearGradient>
		<path style="fill:url(#SVGID_00000148623330371856822330000001958378979469065603_);" d="M1445.2,1430.1l-0.7-0.1
			c5.4-33.6,24.1-283.9-51.6-404l-0.1-0.2c-9.6-95.1-63.9-163.8-107.6-219.1c-34.5-43.7-61.8-78.2-55-110.4
			c4.3-20.4,22.7-39,56.2-56.9c78-41.5,121.2-78.9,159.2-111.9c51.4-44.5,91.9-79.7,194.3-98.9c12.4-2.3,23.8-2.2,34.9-2.1
			c4.7,0,9.2,0.1,13.6-0.1c52.1-1.7,73,11.8,88.3,21.7c14.9,9.7,23.9,15.5,52.1-2.4c11.5-7.3,18.1-20.5,26.4-37.3
			c3.2-6.4,6.5-13.1,10.5-20.1c43.2-77.2,78.9-206.8,113.5-332.2c34-123.4,69.2-251,111.4-328l0.7,0.4
			c-42.1,76.9-77.3,204.5-111.3,327.9c-34.6,125.4-70.3,255.1-113.5,332.4c-3.9,7-7.2,13.7-10.4,20.1c-8.4,16.9-15.1,30.2-26.7,37.6
			c-28.6,18.2-37.8,12.2-52.9,2.4c-15.2-9.8-35.9-23.3-87.8-21.6c-4.4,0.1-8.9,0.1-13.6,0.1c-11-0.1-22.4-0.2-34.7,2.1
			c-102.2,19.1-142.7,54.2-193.9,98.7c-38.1,33-81.3,70.5-159.4,112c-33.3,17.7-51.5,36.2-55.8,56.4c-6.7,31.8,20.5,66.2,54.9,109.7
			c43.7,55.3,98,124.1,107.7,219.4C1469.3,1146,1450.6,1396.4,1445.2,1430.1z"/>
		
			<linearGradient id="SVGID_00000085973063553215579200000015116576337188122041_" gradientUnits="userSpaceOnUse" x1="1132.1825" y1="147.4905" x2="2388.1511" y2="815.103" gradientTransform="matrix(1 0 0 -1 0 1077.8899)">
			<stop  offset="0" style="stop-color:#184592"/>
			<stop  offset="0.1951" style="stop-color:#1D539C"/>
			<stop  offset="0.5668" style="stop-color:#2C79B7"/>
			<stop  offset="1" style="stop-color:#41ADDD"/>
		</linearGradient>
		<path style="fill:url(#SVGID_00000085973063553215579200000015116576337188122041_);" d="M1410,1451.8l-0.7-0.1
			c0.4-2.4,1-5.9,1.7-10.2c5.5-31.8,18.4-106.3,22.6-187.8c5.3-102.1-5-177.3-30.6-223.6l0-0.2c-2.6-105.3-62.2-176.9-110.1-234.5
			c-34.4-41.3-61.5-73.9-55.8-105.5c3.7-20.4,21.7-39.4,54.9-58.1c57.8-32.6,97.3-60,132.1-84.2c68.1-47.2,113-78.4,229.3-103.7
			c11.1-2.4,21.5-2.9,31.5-3.5c5.6-0.3,10.9-0.6,16.2-1.2c54.6-6.2,74.3,2.2,86.1,7.2c11.3,4.8,14.4,6.1,34.4-13.3
			c6.9-6.7,10.5-16.9,15-29.8c3.1-8.9,6.7-19,12-29.7c40.9-81.4,92.3-212.6,141.9-339.5c41.2-105.2,83.7-214.1,119.9-293.1l0.7,0.3
			c-36.1,79-78.7,187.8-119.8,293c-49.6,126.9-101,258.1-141.9,339.6c-5.3,10.6-8.9,20.7-12,29.6c-4.4,12.5-8.2,23.2-15.2,30.1
			c-20.4,19.7-23.8,18.3-35.2,13.4c-11.7-5-31.3-13.3-85.7-7.2c-5.2,0.6-10.6,0.9-16.2,1.2c-10,0.5-20.4,1.1-31.4,3.5
			c-116.2,25.2-161.1,56.3-229.1,103.5c-34.8,24.2-74.3,51.6-132.2,84.2c-33,18.6-50.8,37.5-54.5,57.6
			c-5.7,31.2,21.3,63.7,55.6,104.8c47.9,57.6,107.6,129.3,110.2,234.8c25.6,46.4,36,121.7,30.7,223.9
			c-4.2,81.6-17.1,156.1-22.6,187.9C1411,1445.9,1410.4,1449.3,1410,1451.8z"/>
		
			<linearGradient id="SVGID_00000094594361344510416310000006841262804850955662_" gradientUnits="userSpaceOnUse" x1="1101.3477" y1="117.6546" x2="2403.8687" y2="810.0101" gradientTransform="matrix(1 0 0 -1 0 1077.8899)">
			<stop  offset="0" style="stop-color:#184592"/>
			<stop  offset="0.1951" style="stop-color:#1D539C"/>
			<stop  offset="0.5668" style="stop-color:#2C79B7"/>
			<stop  offset="1" style="stop-color:#41ADDD"/>
		</linearGradient>
		<path style="fill:url(#SVGID_00000094594361344510416310000006841262804850955662_);" d="M1374.8,1473.5l-0.7-0.1
			c1.1-7.1,4.5-21,9.2-40.2c22.2-91.2,74.3-304.7,29.8-398.9l0-0.1l0-0.1c5-115.2-59.8-189-111.9-248.3
			c-34.7-39.5-62.1-70.6-57.2-101.8c3.2-20.7,20.3-39.7,53.7-59.6c12.8-7.6,24.7-14.8,36-21.6c125.2-75.3,172-103.4,333.3-143.3
			c9.9-2.4,19.3-3.5,28.4-4.5c6.5-0.7,12.6-1.4,18.5-2.6c46-8.9,65.9-9.7,75.4-10.1c8.8-0.4,8.8-0.4,13.1-6.2
			c2.3-3.1,5.7-7.9,12.3-15.1c2-5.5,3.3-11.8,4.8-19.2c2.4-11.7,5.3-26.2,12.5-42.3c25.7-57.7,67.1-136,111-218.9
			c67-126.6,143-270,187.6-386.1l0.7,0.3c-44.6,116.1-120.6,259.6-187.6,386.1c-43.9,82.9-85.3,161.2-111,218.8
			c-7.1,16-9.9,29.9-12.4,42.1c-1.5,7.4-2.8,13.8-4.8,19.4l-0.1,0.1c-6.5,7.3-10,12-12.3,15.1c-4.4,6-4.5,6.1-13.7,6.5
			c-9.5,0.4-29.3,1.2-75.3,10.1c-5.9,1.1-12.1,1.8-18.5,2.6c-9.1,1-18.5,2.1-28.3,4.5c-161.2,39.8-208,67.9-333.1,143.2
			c-11.3,6.8-23.3,14-36,21.6c-32.7,19.6-50.1,38.9-53.3,59.1c-4.8,30.8,22.5,61.9,57,101.2c25.7,29.3,54.9,62.4,77.1,102.9
			c25.8,46.9,37.2,94.6,35,145.8c44.5,94.5-7.6,308.1-29.8,399.4C1379.4,1452.6,1376,1466.4,1374.8,1473.5z"/>
		
			<linearGradient id="SVGID_00000123431353409895739390000003115627760249600928_" gradientUnits="userSpaceOnUse" x1="1070.5151" y1="87.8178" x2="2419.5913" y2="804.9168" gradientTransform="matrix(1 0 0 -1 0 1077.8899)">
			<stop  offset="0" style="stop-color:#184592"/>
			<stop  offset="0.1951" style="stop-color:#1D539C"/>
			<stop  offset="0.5668" style="stop-color:#2C79B7"/>
			<stop  offset="1" style="stop-color:#41ADDD"/>
		</linearGradient>
		<path style="fill:url(#SVGID_00000123431353409895739390000003115627760249600928_);" d="M1339.7,1495.2l-0.7-0.1
			c1.8-10.8,9.5-35,20.1-68.5c33.8-106.2,96.7-303.8,64.2-388.2l0-0.1l0-0.1c13.1-124.8-57-200.2-113.3-260.9
			c-35.3-38-63.2-68-59.2-99.2c2.7-20.6,19.8-40.7,52.5-61.4c114.1-72.4,176.7-88.8,290.2-118.6c25.6-6.7,54.6-14.3,87.1-23.4
			c8.7-2.4,17.2-3.9,25.3-5.3c7.3-1.3,14.2-2.5,20.8-4.2c78.9-21.4,78.8-21.8,77.1-32.2c-0.8-4.8-2-12.1,3.8-24.5
			c0.1-3.4,0.1-7.2,0-11.1c-0.2-14.3-0.5-32.1,7.4-52.4c23.1-59.9,76.1-136.8,132.3-218.3c76.8-111.4,163.8-237.6,203.2-359l0.7,0.2
			c-39.5,121.5-126.5,247.8-203.3,359.2c-56.1,81.4-109.1,158.3-132.2,218.1c-7.8,20.2-7.5,37.9-7.3,52.1c0.1,4,0.1,7.7,0,11.2
			l0,0.1c-5.8,12.2-4.6,19.1-3.8,24.1c1.9,11.3,1.9,11.5-77.7,33c-6.6,1.8-13.5,3-20.8,4.3c-8.1,1.4-16.6,2.9-25.2,5.3
			c-32.5,9-61.5,16.6-87.1,23.4c-113.5,29.8-176,46.2-290,118.5c-32.5,20.6-49.5,40.5-52.2,60.8c-4,30.8,23.8,60.7,59,98.6
			c27.8,29.9,59.2,63.7,82.3,106c26.8,49,37,99.8,31.2,155.4c32.5,84.6-30.4,282.3-64.2,388.6
			C1349.1,1460.2,1341.4,1484.4,1339.7,1495.2z"/>
		
			<linearGradient id="SVGID_00000156584461142919858970000004659536246264285630_" gradientUnits="userSpaceOnUse" x1="1039.6804" y1="57.9761" x2="2435.3125" y2="799.8294" gradientTransform="matrix(1 0 0 -1 0 1077.8899)">
			<stop  offset="0" style="stop-color:#184592"/>
			<stop  offset="0.1951" style="stop-color:#1D539C"/>
			<stop  offset="0.5668" style="stop-color:#2C79B7"/>
			<stop  offset="1" style="stop-color:#41ADDD"/>
		</linearGradient>
		<path style="fill:url(#SVGID_00000156584461142919858970000004659536246264285630_);" d="M1304.5,1516.9l-0.7-0.1
			c2.4-14.5,16.6-51.1,34.7-97.3c23.3-59.6,52.2-133.7,73-203.8c24.6-82.9,31.8-139.5,22-173.1l0-0.1l0-0.1
			c21.6-134.1-53.8-210.8-114.3-272.4c-36.2-36.9-64.8-66-61.6-97.3c2.1-20.8,18.9-41.6,51.4-63.4c78.9-53.1,141.7-65,221.1-80
			c46.5-8.8,99.2-18.8,164.2-38.9c7.5-2.3,14.9-4,22-5.7c8.2-1.9,15.9-3.7,23.3-6.3c51.3-17.9,71.7-28.1,75.3-37.8
			c1.9-5.2-0.9-10.3-4.6-16.7c-3.9-6.9-8.8-15.5-9.6-27.5c-0.3-5.2-1.4-10.8-2.6-16.7c-2.8-14.3-5.9-30.4,0-48.9
			c18.7-57.6,76.3-122.8,143-198.3c90.4-102.4,193-218.5,229.5-351.3l0.7,0.2c-36.6,133-139.1,249.1-229.6,351.6
			c-66.6,75.4-124.1,140.6-142.8,198.1c-5.9,18.2-2.8,34.3,0,48.5c1.2,5.9,2.3,11.5,2.6,16.8c0.7,11.9,5.6,20.4,9.5,27.2
			c3.8,6.6,6.7,11.8,4.6,17.3c-3.7,9.9-24.2,20.2-75.8,38.2c-7.4,2.6-15.1,4.4-23.3,6.3c-7.1,1.7-14.5,3.4-22,5.7
			c-65,20.1-117.7,30.1-164.3,38.9c-79.3,15-142,26.9-220.8,79.9c-32.2,21.7-48.9,42.2-51,62.9c-3.1,31,25.3,60,61.4,96.7
			c29.8,30.3,63.5,64.7,87.5,108.6c27.8,50.9,36.6,104.7,27,164.3c9.9,33.8,2.7,90.5-22,173.5c-20.8,70.1-49.8,144.3-73,203.8
			C1321.1,1465.9,1306.9,1502.4,1304.5,1516.9z"/>
		
			<linearGradient id="SVGID_00000017478629318310071100000002763474371207087807_" gradientUnits="userSpaceOnUse" x1="1008.8425" y1="28.1361" x2="2451.0244" y2="794.728" gradientTransform="matrix(1 0 0 -1 0 1077.8899)">
			<stop  offset="0" style="stop-color:#184592"/>
			<stop  offset="0.1951" style="stop-color:#1D539C"/>
			<stop  offset="0.5668" style="stop-color:#2C79B7"/>
			<stop  offset="1" style="stop-color:#41ADDD"/>
		</linearGradient>
		<path style="fill:url(#SVGID_00000017478629318310071100000002763474371207087807_);" d="M1269.4,1538.6l-0.7-0.1
			c3-18.4,25.1-66.6,53.1-127.6c57.1-124.5,135.4-295,121.9-364.2l0-0.1l0-0.1c30.3-143.1-53.6-224-114.8-283
			c-37.3-36-66.7-64.3-64.4-96.1c1.5-21.2,17.9-42.7,50.1-65.7c62.1-44.4,123.8-50.5,195.3-57.6c56.7-5.6,120.9-12,197.9-38.3
			c6.2-2.1,12.3-3.9,18.3-5.7c9.3-2.7,18-5.3,26.2-8.8c45.8-19.5,67.8-34.4,71.5-48.3c2.6-10.1-4.4-19.3-12.6-29.8
			c-6.4-8.3-13.6-17.6-17.4-29.1c-1.3-4-2.9-8.1-4.6-12.3c-6.3-16.1-13.4-34.4-7.9-55.3c14.3-54.7,77.6-111.1,150.9-176.4
			c100.1-89.2,224.6-200.1,258.5-345.7l0.7,0.2c-15.1,64.9-49,128.2-103.6,193.4c-47.6,56.9-104.7,107.7-155.1,152.6
			c-73.2,65.2-136.4,121.5-150.6,176c-5.4,20.7,1.6,38.8,7.9,54.8c1.7,4.3,3.2,8.3,4.6,12.4c3.8,11.4,11,20.7,17.3,28.9
			c8.3,10.7,15.4,20,12.7,30.5c-3.7,14.2-25.9,29.2-71.9,48.8c-8.3,3.5-17,6.1-26.3,8.8c-5.9,1.7-12.1,3.5-18.3,5.7
			c-77.1,26.4-141.4,32.8-198.1,38.4c-71.4,7.1-133,13.2-194.9,57.5c-32,22.9-48.3,44.2-49.8,65.2c-2.3,31.4,27,59.7,64.2,95.5
			c31.8,30.7,67.8,65.4,92.5,110.8c28.6,52.6,36,109.2,22.5,172.9c13.5,69.5-64.8,240.1-121.9,364.6
			C1294.4,1472.2,1272.3,1520.3,1269.4,1538.6z"/>
		
			<linearGradient id="SVGID_00000086663029784390142550000008950384890010679951_" gradientUnits="userSpaceOnUse" x1="978.0074" y1="-1.7001" x2="2466.7407" y2="789.6368" gradientTransform="matrix(1 0 0 -1 0 1077.8899)">
			<stop  offset="0" style="stop-color:#184592"/>
			<stop  offset="0.1951" style="stop-color:#1D539C"/>
			<stop  offset="0.5668" style="stop-color:#2C79B7"/>
			<stop  offset="1" style="stop-color:#41ADDD"/>
		</linearGradient>
		<path style="fill:url(#SVGID_00000086663029784390142550000008950384890010679951_);" d="M1234.2,1560.3l-0.7-0.1
			c4-24.7,40.4-97.9,82.5-182.7c59.3-119.3,133-267.7,137.8-326.8c12.2-150.7-67.9-230.7-126.3-289.1c-35.2-35.2-63-63-60.9-94.6
			c1.5-22.9,18.5-46,53.6-72.9c50.1-38.4,109.6-39.1,178.5-39.8c64.9-0.7,138.5-1.5,222.7-33.2c4.6-1.7,9.2-3.3,13.7-4.9
			c10.6-3.7,20.7-7.2,30-12c43.5-21.9,65.2-40.3,68.5-57.9c3-16.1-9.9-30.2-23.6-45.2c-8.4-9.2-17-18.7-23.2-29.5
			c-1.4-2.4-2.8-4.9-4.3-7.4c-11.2-19.1-22.7-38.9-18.1-62.3c10.2-51.6,78.2-99.3,156.9-154.5c115-80.6,258.1-180.9,289.3-339.9
			l0.7,0.1C2180.1-33,2036.8,67.4,1921.7,148.1c-78.6,55.1-146.5,102.7-156.6,154c-4.6,23.1,6.9,42.7,18,61.7
			c1.4,2.5,2.9,4.9,4.3,7.4c6.1,10.8,14.7,20.2,23.1,29.4c13.8,15.2,26.8,29.5,23.8,45.9c-3.3,17.8-25.2,36.4-68.9,58.4
			c-9.4,4.8-19.5,8.3-30.1,12c-4.5,1.6-9.1,3.2-13.6,4.9c-84.3,31.7-158,32.5-222.9,33.2c-68.7,0.8-128.1,1.4-178,39.7
			c-34.9,26.7-51.8,49.7-53.3,72.4c-2.1,31.3,25.6,58.9,60.7,94c30.1,30.1,64.3,64.3,90.1,110.4c30,53.7,41.9,112.3,36.5,179.3
			c-4.8,59.2-78.6,207.7-137.9,327C1274.5,1462.5,1238.2,1535.7,1234.2,1560.3z"/>
		
			<linearGradient id="SVGID_00000114036357715972537980000010949939419521989282_" gradientUnits="userSpaceOnUse" x1="947.1714" y1="-31.5369" x2="2482.448" y2="784.5425" gradientTransform="matrix(1 0 0 -1 0 1077.8899)">
			<stop  offset="0" style="stop-color:#184592"/>
			<stop  offset="0.1951" style="stop-color:#1D539C"/>
			<stop  offset="0.5668" style="stop-color:#2C79B7"/>
			<stop  offset="1" style="stop-color:#41ADDD"/>
		</linearGradient>
		<path style="fill:url(#SVGID_00000114036357715972537980000010949939419521989282_);" d="M1199,1582l-0.7-0.1
			c4.7-29.2,56.9-121.2,112.2-218.6c68-119.9,145.1-255.8,153.4-308.3c25.5-161.8-61.1-242.1-124.4-300.7
			c-36.5-33.8-65.4-60.6-64.5-92.6c0.7-23.1,16.8-46.9,50.7-75c40.3-33.3,97.8-29.2,164.3-24.4c72.7,5.2,155.2,11.1,244.7-25.6
			c2.4-1,4.8-2,7.2-2.9c12.6-5.1,24.5-9.9,35.7-16.4c41.9-24.3,63.5-46.3,66.1-67.1c2.9-22.8-16.7-42-37.4-62.4
			c-9.3-9.1-18.9-18.6-26.7-28.6l-1.7-2.1c-16.7-21.5-34-43.7-30.7-69.5c2.9-22.3,19.2-43.8,51.3-67.5c28.9-21.4,68.4-43,110.2-65.9
			c130.6-71.4,293.2-160.3,321.6-333.4l0.7,0.1c-12.7,77.1-53,144.3-123.2,205.5c-60.8,52.9-134.1,93-198.8,128.4
			c-86.5,47.3-154.9,84.7-161.1,132.9c-3.3,25.4,13.9,47.5,30.5,68.9l1.7,2.1c7.7,10,17.3,19.4,26.6,28.5
			c20.9,20.5,40.6,39.8,37.6,63c-2.6,21-24.4,43.2-66.5,67.6c-11.2,6.5-23.1,11.3-35.8,16.4c-2.4,1-4.8,1.9-7.2,2.9
			c-89.7,36.8-172.3,30.9-245.1,25.6c-66.4-4.8-123.7-8.9-163.8,24.3c-33.8,27.9-49.8,51.6-50.4,74.4c-0.9,31.7,27.8,58.3,64.2,92
			c32.7,30.3,69.7,64.6,96,112.2c30.6,55.4,40,117.3,28.6,189.2c-8.3,52.7-85.4,188.6-153.5,308.6
			C1255.9,1461,1203.7,1552.9,1199,1582z"/>
		
			<linearGradient id="SVGID_00000056420312929515478970000013196785782482545308_" gradientUnits="userSpaceOnUse" x1="916.3446" y1="-61.3722" x2="2498.1631" y2="779.449" gradientTransform="matrix(1 0 0 -1 0 1077.8899)">
			<stop  offset="0" style="stop-color:#184592"/>
			<stop  offset="0.1951" style="stop-color:#1D539C"/>
			<stop  offset="0.5668" style="stop-color:#2C79B7"/>
			<stop  offset="1" style="stop-color:#41ADDD"/>
		</linearGradient>
		<path style="fill:url(#SVGID_00000056420312929515478970000013196785782482545308_);" d="M1163.9,1603.7l-0.7-0.1
			c5.5-33.8,73.6-141.1,145.7-254.7c75.7-119.3,154.1-242.7,165.2-289.8c40.8-171.6-52.4-251.6-120.5-310.1
			c-37-31.8-69-59.3-69.4-92.4c-0.3-23.5,14.7-48.2,47.2-77.5c31.9-28.8,84.4-20.9,151-10.9c76.6,11.5,171.9,25.8,266-16.1
			c14.7-6.6,29-13.2,42.1-21.8c41.4-27.2,62.4-52.2,64.2-76.3c2.3-30.3-26.5-56.1-54.3-81.1c-9.4-8.4-19.1-17.2-27.6-26
			c-24.9-25.9-43.8-47.8-42.2-73.6c2.8-45.6,74.2-75.5,164.7-113.4C2034.4,101.5,2225,21.7,2250.6-166l0.7,0.1
			c-11.4,83.5-55.3,152.6-134.1,211.3c-67.9,50.6-149.6,84.8-221.7,115c-90.3,37.8-161.5,67.7-164.3,112.8
			c-1.5,25.4,17.3,47.2,42,73c8.5,8.8,18.2,17.5,27.6,26c27.9,25.1,56.8,51,54.5,81.7c-1.8,24.4-22.9,49.5-64.5,76.9
			c-13.1,8.6-27.5,15.3-42.2,21.8c-94.3,42-189.8,27.7-266.5,16.2c-66.3-10-118.8-17.8-150.4,10.7c-31.9,28.8-47.2,54-46.9,77
			c0.4,32.8,32.3,60.2,69.1,91.9c35.3,30.3,75.2,64.6,101.8,113.4c30.8,56.5,37,121.1,18.9,197.5c-11.2,47.2-89.6,170.7-165.3,290
			C1237.4,1462.8,1169.3,1570,1163.9,1603.7z"/>
		
			<linearGradient id="SVGID_00000103956363764740515030000006959906666170276485_" gradientUnits="userSpaceOnUse" x1="885.5099" y1="-91.2043" x2="2513.8767" y2="774.3528" gradientTransform="matrix(1 0 0 -1 0 1077.8899)">
			<stop  offset="0" style="stop-color:#184592"/>
			<stop  offset="0.1951" style="stop-color:#1D539C"/>
			<stop  offset="0.5668" style="stop-color:#2C79B7"/>
			<stop  offset="1" style="stop-color:#41ADDD"/>
		</linearGradient>
		<path style="fill:url(#SVGID_00000103956363764740515030000006959906666170276485_);" d="M1128.7,1625.4l-0.7-0.1
			c6.3-38.6,95.9-166.8,182.6-290.8c78.7-112.5,160-228.8,173.7-271.3c57.7-179.5-37.6-255.7-114.2-316.9
			c-39.6-31.6-73.8-59-75.8-94c-1.4-23.9,12.6-50.4,42.8-80.8c24.5-24.7,74.4-13.4,137.6,0.8c84.2,19,189,42.6,287.4-4.9
			c16.6-8,29.7-15.7,41.3-24.2c41.2-30.3,61.6-58.3,62.4-85.8c1.1-38.8-37.3-70.6-74.4-101.5c-8.5-7.1-17.3-14.4-25.4-21.6
			c-27.3-24.3-51.8-48.4-52.2-75.5c-0.5-42.7,73.3-65.7,166.7-94.7c155.1-48.2,367.5-114.2,390.2-316.9l0.7,0.1
			c-22.8,203.2-235.5,269.3-390.7,317.5c-93.1,28.9-166.7,51.8-166.2,94c0.3,26.8,24.7,50.8,51.9,75c8.1,7.2,16.9,14.5,25.4,21.6
			c37.3,30.9,75.9,62.9,74.7,102.1c-0.8,27.7-21.3,55.9-62.7,86.3c-11.6,8.6-24.8,16.3-41.5,24.3c-98.6,47.6-203.6,23.9-287.9,4.9
			c-63-14.2-112.7-25.4-136.9-1c-30,30.3-43.9,56.5-42.6,80.2c2,34.7,36.1,61.9,75.5,93.5c37.9,30.3,80.8,64.6,107.2,113.9
			c30.6,57.2,33,123.8,7.3,203.8c-13.7,42.6-91.4,153.8-173.8,271.5C1224.5,1458.8,1135,1586.9,1128.7,1625.4z"/>
		
			<linearGradient id="SVGID_00000016035873019237413210000010814880639170994597_" gradientUnits="userSpaceOnUse" x1="854.6732" y1="-121.0367" x2="2529.5803" y2="769.2561" gradientTransform="matrix(1 0 0 -1 0 1077.8899)">
			<stop  offset="0" style="stop-color:#184592"/>
			<stop  offset="0.1951" style="stop-color:#1D539C"/>
			<stop  offset="0.5668" style="stop-color:#2C79B7"/>
			<stop  offset="1" style="stop-color:#41ADDD"/>
		</linearGradient>
		<path style="fill:url(#SVGID_00000016035873019237413210000010814880639170994597_);" d="M1093.6,1647.1l-0.7-0.1
			c7.1-43.6,116.7-187.5,222.6-326.7c83.9-110.2,163.1-214.3,178.9-252.9c75.7-185.5-24.6-260.6-105.1-320.9
			c-42.7-32-79.6-59.6-83.7-97.4c-2.7-25,9.4-52.8,37.1-85c18-21,64.8-7,123.9,10.6c100.8,30.1,239,71.2,349.5-18.4
			c41.3-33.5,61.2-64.7,60.8-95.6c-0.6-48.2-50.4-86.5-98.5-123.5c-40.5-31.1-78.7-60.6-81.5-92.6c-1.6-18.5,13.1-33.1,46.2-45.9
			c30.2-11.6,72.4-20.8,121.3-31.5c82.9-18,186-40.5,269-85.3c97.1-52.4,148.5-124.8,157.2-221.4l0.7,0.1
			c-4.6,51.3-21.9,96.8-51.3,135.2c-25.9,33.8-60.7,62.2-106.3,86.8c-83.1,44.9-186.3,67.3-269.2,85.4
			c-48.9,10.6-91.1,19.8-121.2,31.4c-32.8,12.7-47.4,27-45.8,45.1c2.8,31.7,40.9,61,81.2,92c48.3,37.2,98.2,75.6,98.8,124.1
			c0.4,31.1-19.6,62.5-61,96.2c-110.9,89.9-249.2,48.7-350.2,18.6c-58.9-17.6-105.5-31.4-123.2-10.9c-27.5,32.1-39.6,59.7-36.9,84.5
			c4.1,37.5,40.9,65,83.4,96.9c80.8,60.5,181.3,135.7,105.4,321.8c-15.8,38.8-95.1,142.9-179,253.1
			C1210.1,1459.8,1100.6,1603.7,1093.6,1647.1z"/>
		
			<linearGradient id="SVGID_00000029008680286015400980000007768879421441477505_" gradientUnits="userSpaceOnUse" x1="-28.6988" y1="1421.4703" x2="703.6158" y2="103.9283" gradientTransform="matrix(1 0 0 -1 0 1077.8899)">
			<stop  offset="0" style="stop-color:#184592"/>
			<stop  offset="0.1951" style="stop-color:#1D539C"/>
			<stop  offset="0.5668" style="stop-color:#2C79B7"/>
			<stop  offset="1" style="stop-color:#41ADDD"/>
		</linearGradient>
		<path style="fill:url(#SVGID_00000029008680286015400980000007768879421441477505_);" d="M847.4,892c-5,0-9.7-1.6-14.1-4.8
			c-32.8-23.6-48-132.9-65.7-259.4c-12.8-91.7-27.3-195.5-50.8-282.7c-27-100.1-61.7-161.9-105.9-188.9
			c-29.7-18.1-64.5-20.4-103.3-6.8c-82.5,28.9-102.8,101.6-120.7,165.8c-14.7,52.7-28.6,102.4-74,120.9c-12.4,5-23.3,7.3-33,7.3
			c-38.7,0-58.8-36.4-83-80.2c-38.9-70.4-87.3-158-237.8-149.4c-3.3,0.2-6.6,0.3-9.7,0.3c-34.9,0-59.2-11.6-72.2-34.5
			c-17.3-30.4-15.1-81.3,6.3-151.1c17.2-55.8,46.7-123.9,87.7-202.3C40.9-307.3,121-426,121.8-427.2l0.6,0.4
			c-0.8,1.2-80.8,119.9-150.6,253.3c-41,78.3-70.4,146.3-87.6,202.1c-21.4,69.7-23.6,120.3-6.4,150.5c14,24.7,41.4,36.1,81.2,33.9
			c67.1-3.8,119.9,11.1,161.4,45.6c35.9,29.8,57.8,69.3,77.1,104.2c30.1,54.4,53.8,97.4,115.1,72.5c45.1-18.3,59-67.9,73.6-120.4
			c9.2-33,18.7-67,36.3-96.8c20-33.8,47.8-56.6,84.9-69.5c39-13.7,74-11.3,103.9,6.9c44.4,27.1,79.2,89,106.3,189.4
			c23.5,87.2,38,191.1,50.8,282.8C786,754,801.2,863.2,833.8,886.6c5.6,4,11.6,5.4,18,4.2l0.1,0.7C850.4,891.8,848.9,892,847.4,892z
			"/>
		
			<linearGradient id="SVGID_00000057847301846185058940000005627226834968259505_" gradientUnits="userSpaceOnUse" x1="-38.2101" y1="1442.5188" x2="700.5084" y2="113.4544" gradientTransform="matrix(1 0 0 -1 0 1077.8899)">
			<stop  offset="0" style="stop-color:#184592"/>
			<stop  offset="0.1951" style="stop-color:#1D539C"/>
			<stop  offset="0.5668" style="stop-color:#2C79B7"/>
			<stop  offset="1" style="stop-color:#41ADDD"/>
		</linearGradient>
		<path style="fill:url(#SVGID_00000057847301846185058940000005627226834968259505_);" d="M863.4,873.9
			c-51.9-1.6-78.4-135.6-109.1-290.8c-19-96-38.6-195.2-66.6-277.4c-21.6-63.5-42.3-103.2-67.2-128.5
			c-30.3-30.8-67.1-39.3-112.5-25.8c-22.1,6.6-41,16.6-57.8,30.7c-38.3,32.2-53.9,79.8-69,125.7c-16.5,50.3-32.2,97.9-76.4,116.8
			c-21.7,9.3-39.8,10.9-55.5,4.9c-13.4-5.2-25.1-15.6-38.1-33.9c-10.6-14.9-20-32.2-29.8-50.6C144.1,276,102,197.9-32.3,199.6
			c-30.3,0.4-53.4-7.6-68.7-23.6c-17.5-18.4-25-47.8-22.5-87.4c3.9-61.5,31.6-150.8,82.4-265.5C0.3-270.2,46-356,70.5-402
			c9.6-18,16.6-31.1,16.6-32.2l0.2,0l0.5-0.3c0.4,0.8-2.5,6.5-16.6,32.9c-24.5,46-70.2,131.8-111.5,225.1
			C-91.1-62-118.8,27.2-122.7,88.6c-2.5,39.4,5,68.6,22.3,86.8c15.1,15.9,38,23.8,68.1,23.4c60.1-0.7,107.1,14.5,143.8,46.6
			c32.1,28.1,51.5,64.2,70.3,99c9.9,18.3,19.2,35.6,29.8,50.5c22.5,31.6,46.8,48.5,92.7,28.8c44-18.8,59.5-66.1,76-116.3
			c15.1-46.1,30.8-93.7,69.3-126.1c16.8-14.2,35.8-24.2,58.1-30.8c45.7-13.5,82.7-5,113.3,26c25,25.4,45.8,65.1,67.4,128.8
			C716.4,387.7,736,487,755,583c30.6,154.8,57.1,288.6,108.4,290.2L863.4,873.9z"/>
		
			<linearGradient id="SVGID_00000111154022449722403560000013661744874567223975_" gradientUnits="userSpaceOnUse" x1="-47.4118" y1="1463.8901" x2="697.7706" y2="123.1971" gradientTransform="matrix(1 0 0 -1 0 1077.8899)">
			<stop  offset="0" style="stop-color:#184592"/>
			<stop  offset="0.1951" style="stop-color:#1D539C"/>
			<stop  offset="0.5668" style="stop-color:#2C79B7"/>
			<stop  offset="1" style="stop-color:#41ADDD"/>
		</linearGradient>
		<path style="fill:url(#SVGID_00000111154022449722403560000013661744874567223975_);" d="M874.9,856.2
			c-59.7-13.9-99.3-166.5-141.1-328c-18.9-72.9-38.4-148.2-60.5-213.4c-16.3-48.2-34.3-97.9-60-129c-27.2-32.8-60.5-43.1-105-32.5
			c-21.5,5.2-40.5,13.8-58,26.6c-40.4,29.2-58.1,75.7-75.3,120.7c-18.3,47.9-35.6,93.1-78.5,112.4c-46.8,21.1-71.4,5.6-93.9-24
			c-14-18.4-25-39.8-36.6-62.5c-34.5-67.2-70.2-136.7-189.5-141.2c-61.6-2.3-91.9-40.6-90-113.9c3.3-127,97.6-348.4,142.9-454.8
			c14-32.8,24-56.5,23.1-58.2l0.7-0.4c1.1,1.9-6.3,19.4-23.1,58.9C-15.3-276.6-109.5-55.3-112.8,71.5
			c-1.9,72.8,28.1,110.9,89.3,113.2c53.5,2,95.2,17.6,127.3,47.8c28.3,26.6,45.9,60.8,62.9,93.8c11.6,22.6,22.6,44,36.6,62.3
			c22.3,29.4,46.7,44.6,93,23.8c42.6-19.2,59.8-64.3,78.1-112c17.2-45.1,35-91.6,75.5-121c17.6-12.8,36.7-21.5,58.3-26.7
			c44.8-10.8,78.4-0.4,105.8,32.7c25.8,31.2,43.9,80.9,60.2,129.2c22.1,65.2,41.6,140.5,60.5,213.4
			c41.8,161.3,81.3,313.7,140.6,327.5L874.9,856.2z"/>
		
			<linearGradient id="SVGID_00000118375989942561172010000013542066867959390654_" gradientUnits="userSpaceOnUse" x1="-56.0402" y1="1485.6954" x2="695.6534" y2="133.2879" gradientTransform="matrix(1 0 0 -1 0 1077.8899)">
			<stop  offset="0" style="stop-color:#184592"/>
			<stop  offset="0.1951" style="stop-color:#1D539C"/>
			<stop  offset="0.5668" style="stop-color:#2C79B7"/>
			<stop  offset="1" style="stop-color:#41ADDD"/>
		</linearGradient>
		<path style="fill:url(#SVGID_00000118375989942561172010000013542066867959390654_);" d="M886.4,838.6
			c-32.8-13.8-66-60.9-101.3-143.9c-31.2-73.4-60.4-165.3-88.6-254.2c-13-40.9-25.2-79.5-37.7-116.4c-1.9-5.7-3.8-11.4-5.6-17
			c-15.9-48-29.7-89.5-50.8-117.6c-23.1-30.7-52.9-41.5-93.9-34c-20.8,3.8-39.9,11.1-58.2,22.4c-42.5,26.2-62.5,71.8-81.8,115.9
			c-19.9,45.4-38.7,88.3-80.2,107.9c-47.3,22.4-71.9,8.6-94.2-19c-17.8-21.9-30.5-48.6-42.8-74.3c-29.9-62.5-60.8-127.1-166.2-137.1
			c-58-5.5-87.9-44.8-88.8-116.9c-1.4-113.4,63.1-313.6,97.8-421.2c14.8-45.8,25.4-78.9,23.7-82.1l0.7-0.4
			c1.9,3.5-7.7,33.3-23.6,82.7C-39.9-259-104.4-58.8-103,54.4c0.9,71.6,30.5,110.7,88.1,116.1C91,180.6,122,245.3,152,308
			c12.3,25.7,25,52.3,42.7,74.2c22.1,27.3,46.4,40.9,93.3,18.8c41.2-19.5,60-62.2,79.8-107.5c19.4-44.2,39.4-89.9,82.1-116.2
			c18.4-11.4,37.5-18.7,58.5-22.5c41.3-7.5,71.4,3.4,94.6,34.3c21.2,28.2,35,69.7,50.9,117.8c1.9,5.6,3.7,11.2,5.6,17
			c12.5,37,24.7,75.6,37.7,116.5c28.2,88.9,57.4,180.8,88.6,254.1c35.2,82.8,68.2,129.7,100.9,143.5L886.4,838.6z"/>
		
			<linearGradient id="SVGID_00000147941020298623410360000017982670729369974188_" gradientUnits="userSpaceOnUse" x1="-64.0356" y1="1507.8531" x2="694.1716" y2="143.727" gradientTransform="matrix(1 0 0 -1 0 1077.8899)">
			<stop  offset="0" style="stop-color:#184592"/>
			<stop  offset="0.1951" style="stop-color:#1D539C"/>
			<stop  offset="0.5668" style="stop-color:#2C79B7"/>
			<stop  offset="1" style="stop-color:#41ADDD"/>
		</linearGradient>
		<path style="fill:url(#SVGID_00000147941020298623410360000017982670729369974188_);" d="M897.9,820.9
			c-93.1-55.4-189.2-295.8-253.5-487.7c-5-15.1-9.4-29.7-13.7-43.9c-12.3-40.5-22.9-75.6-40.4-99.7c-19.2-26.3-45.1-36.5-81.5-32.1
			c-20.2,2.4-39.3,8.4-58.4,18.3c-44.7,23.1-67.1,68-88.8,111.3c-21.4,42.8-41.6,83.3-81.5,103c-21.9,10.9-40.1,14.7-55.5,11.8
			c-13.8-2.6-26.2-10.8-39-25.7c-22-25.6-35.3-56.3-48.1-86.1C111.2,229.4,86.4,172-6.3,157.1c-54.4-8.7-83.9-49-87.6-119.8
			c-5.3-101.2,32.6-273.8,57.7-388.1c12.8-58.3,22.1-100.4,19.3-105.4l0.7-0.4c2.9,5.2-5.9,45.3-19.2,105.9
			c-25.1,114.2-63,286.8-57.7,387.9c3.7,70.3,33,110.4,87,119.1c41.8,6.7,73.7,23,97.4,49.9c21.2,24,33.7,53,47,83.6
			c12.8,29.7,26.1,60.4,48,85.9c21.7,25.3,46,37.3,93.6,13.8c39.7-19.6,59.8-60,81.1-102.7c21.7-43.5,44.2-88.4,89.1-111.6
			c19.2-9.9,38.4-15.9,58.7-18.4c36.7-4.4,62.8,5.8,82.2,32.4c17.6,24.2,28.3,59.3,40.5,99.9c4.3,14.2,8.7,28.9,13.7,43.9
			c64.2,191.8,160.3,431.9,253.1,487.3L897.9,820.9z"/>
		
			<linearGradient id="SVGID_00000101797509020429217600000003296076860384642944_" gradientUnits="userSpaceOnUse" x1="-71.3728" y1="1530.3756" x2="693.3499" y2="154.5273" gradientTransform="matrix(1 0 0 -1 0 1077.8899)">
			<stop  offset="0" style="stop-color:#184592"/>
			<stop  offset="0.1951" style="stop-color:#1D539C"/>
			<stop  offset="0.5668" style="stop-color:#2C79B7"/>
			<stop  offset="1" style="stop-color:#41ADDD"/>
		</linearGradient>
		<path style="fill:url(#SVGID_00000101797509020429217600000003296076860384642944_);" d="M909.5,803.2
			C863.2,768.1,809,701.4,757,615.5c-51.7-85.5-96.8-182.5-127-273.1c-7.1-21.5-12.4-42.4-17.5-62.5c-9.1-35.7-16.9-66.4-31.6-88.2
			c-16-23.8-38.8-34-71.8-32.1c-19.6,1.1-38.7,5.8-58.6,14.2c-47.2,20-72.2,64.2-96.3,107.1c-22.7,40.2-44.1,78.1-82.2,97.9
			c-22.1,11.4-40.2,16.1-55.5,14.1c-14.1-1.8-26.6-9.1-39.3-23c-26.5-29.2-39.6-64-52.3-97.6C103.6,215.6,83.4,162.2,2.4,142.9
			c-50.8-12-79.8-53.3-86.4-122.7c-8.4-89.7,9.2-242.4,22.2-353.9c7.9-68.6,14.2-122.7,10.3-129.8l0.7-0.4
			c4.1,7.3-1.9,58.9-10.2,130.3C-74-222.1-91.7-69.4-83.3,20.2c6.5,69,35.4,110.1,85.8,122c81.4,19.3,101.6,73,123,129.7
			c12.6,33.5,25.7,68.2,52.1,97.4c25.5,28.1,51.8,30.5,93.9,8.7c38-19.7,59.3-57.5,81.9-97.6c24.2-42.9,49.3-87.3,96.7-107.4
			c20-8.5,39.2-13.1,58.9-14.3c33.3-1.9,56.3,8.4,72.5,32.4c14.7,21.9,22.6,52.7,31.7,88.5c5.1,20.1,10.4,41,17.5,62.5
			c30.2,90.6,75.2,187.5,126.9,272.9c52,85.9,106,152.5,152.3,187.5L909.5,803.2z"/>
		
			<linearGradient id="SVGID_00000049944797076980613640000000631821698277612672_" gradientUnits="userSpaceOnUse" x1="-70.8297" y1="1557.2791" x2="700.4115" y2="169.7019" gradientTransform="matrix(1 0 0 -1 0 1077.8899)">
			<stop  offset="0" style="stop-color:#184592"/>
			<stop  offset="0.1951" style="stop-color:#1D539C"/>
			<stop  offset="0.5668" style="stop-color:#2C79B7"/>
			<stop  offset="1" style="stop-color:#41ADDD"/>
		</linearGradient>
		<path style="fill:url(#SVGID_00000049944797076980613640000000631821698277612672_);" d="M921,785.6
			c-34.6-31.5-102.4-97.3-167.7-183.7C688.5,516.2,642.2,432,615.6,351.6c-8.5-26.1-13.7-52.6-18.2-76c-12.3-63.4-22-113.4-88-114
			c-18.9-0.2-38.2,3.1-58.8,10.1c-49.8,16.7-77.6,60.7-104.5,103.1c-22.6,35.8-46,72.7-82.4,92.4c-22.5,12.2-40.2,17.5-55.6,16.5
			c-14.5-0.9-27-7.4-39.5-20.4c-31.4-32.8-43.5-71.4-55.1-108.6C97.1,201.8,81.5,151.8,11,128.8C-36.2,113.3-64.8,71.1-74.2,3.2
			c-10.7-78.1-9.4-210-8.3-316c0.9-82.8,1.5-148.3-3.9-157.9l0.7-0.4c5.5,9.9,4.8,75.4,4,158.3c-1.1,106-2.5,237.9,8.2,315.9
			c9.3,67.6,37.8,109.7,84.7,125c70.8,23.2,86.5,73.4,103.1,126.5c11.6,37.2,23.6,75.6,54.9,108.3c24.8,25.9,51.2,27,94.2,3.7
			c36.2-19.6,59.5-56.5,82.1-92.2c26.9-42.6,54.8-86.6,104.9-103.4c20.7-7,40.1-10.3,59.1-10.1c66.7,0.5,76.4,50.9,88.8,114.6
			c4.5,23.4,9.7,49.8,18.2,75.9C684.7,558,867.2,735.5,921.5,785L921,785.6z"/>
		
			<linearGradient id="SVGID_00000138541492939494040220000010137207846717523644_" gradientUnits="userSpaceOnUse" x1="-65.7317" y1="1586.7144" x2="712.0306" y2="187.4051" gradientTransform="matrix(1 0 0 -1 0 1077.8899)">
			<stop  offset="0" style="stop-color:#184592"/>
			<stop  offset="0.1951" style="stop-color:#1D539C"/>
			<stop  offset="0.5668" style="stop-color:#2C79B7"/>
			<stop  offset="1" style="stop-color:#41ADDD"/>
		</linearGradient>
		<path style="fill:url(#SVGID_00000138541492939494040220000010137207846717523644_);" d="M932.6,767.9
			c-23.9-25.2-51.5-51.3-80.7-79c-97.2-92.1-207.4-196.5-250.6-328.1c-9.5-29.2-13.2-59.3-16.6-85.9c-7.4-59.5-13.3-106.4-75-111.2
			c-18.4-1.4-37.7,0.5-59,6c-52.7,13.4-83.6,57.2-113.4,99.5c-23.3,33.1-47.4,67.2-81.7,86.6c-22.8,12.9-40.4,18.9-55.7,18.9
			c-0.1,0-0.1,0-0.2,0c-14.7,0-27.3-5.6-39.5-17.7c-36.6-36.3-46.7-78.4-56.4-119c-11.9-49.8-23.2-96.8-84.2-123.4
			c-43.6-19-71.8-62.2-83.9-128.5c-11.9-64.9-22.3-172.6-31.5-267.6c-9.6-98.5-17.8-183.5-25.1-196.6l0.7-0.4
			c7.4,13.2,15.6,98.3,25.2,196.9c9.2,95,19.7,202.7,31.5,267.6C-51.5,52-23.4,95.1,20,113.9c61.3,26.7,72.6,73.9,84.6,123.9
			c9.7,40.5,19.7,82.5,56.2,118.6c24.1,23.9,50.6,23.5,94.4-1.3c34.2-19.3,58.2-53.4,81.5-86.4c29.9-42.4,60.9-86.3,113.8-99.8
			c21.4-5.4,40.8-7.4,59.3-6c62.3,4.8,68.2,52,75.6,111.8c3.3,26.5,7.1,56.6,16.5,85.8C645.1,492,755.2,596.3,852.4,688.4
			c29.2,27.7,56.9,53.8,80.7,79L932.6,767.9z"/>
		
			<linearGradient id="SVGID_00000063604094972575140650000006595290277309567908_" gradientUnits="userSpaceOnUse" x1="-61.0291" y1="1615.9301" x2="723.2571" y2="204.8834" gradientTransform="matrix(1 0 0 -1 0 1077.8899)">
			<stop  offset="0" style="stop-color:#184592"/>
			<stop  offset="0.1951" style="stop-color:#1D539C"/>
			<stop  offset="0.5668" style="stop-color:#2C79B7"/>
			<stop  offset="1" style="stop-color:#41ADDD"/>
		</linearGradient>
		<path style="fill:url(#SVGID_00000063604094972575140650000006595290277309567908_);" d="M944.1,750.2
			c-38.6-45.8-88.5-86.1-141.3-128.8c-89.6-72.4-182.3-147.2-216-251.5c-10.1-31.4-11.9-64.4-13.4-93.5c-1.4-27.6-2.8-53.6-11-73.2
			c-9.1-21.6-25.7-33.5-52.4-37.5c-17.8-2.7-37.2-2.1-59.2,1.8c-55.9,9.9-90.1,53.8-123.2,96.2c-23.6,30.3-48,61.6-80.1,80.5
			c-24.5,14.4-43.5,21.6-59.6,21.6c-13.7,0-25.2-5.1-36-15.4c-42-39.6-49.2-84.8-56.2-128.5c-7.6-47.3-14.7-91.9-67.2-121.7
			C-11.7,77.8-39.6,33.6-54.4-31C-64.5-74.7-77.8-139.7-92-208.5c-26-126.8-53-257.9-63.6-277l0.7-0.4
			c10.7,19.2,37.7,150.4,63.7,277.2c14.1,68.8,27.5,133.7,37.5,177.4C-38.9,33.2-11.2,77.2,28.7,99.8c52.9,29.9,60,74.8,67.6,122.2
			c7,43.6,14.2,88.6,56,128c23.3,21.9,49.8,20.2,94.7-6.3c32-18.9,56.4-50.1,79.9-80.3c33.2-42.6,67.5-86.6,123.7-96.5
			c22.1-3.9,41.5-4.5,59.5-1.8c27,4,43.8,16.1,53,37.9c8.3,19.7,9.7,45.8,11.1,73.5c1.5,29.1,3.2,62.1,13.3,93.3
			c33.6,104,126.2,178.8,215.8,251.1c52.9,42.7,102.8,83,141.4,128.9L944.1,750.2z"/>
		
			<linearGradient id="SVGID_00000104695610576600115590000016171104869143940239_" gradientUnits="userSpaceOnUse" x1="-66.5101" y1="1639.4832" x2="724.3005" y2="216.698" gradientTransform="matrix(1 0 0 -1 0 1077.8899)">
			<stop  offset="0" style="stop-color:#184592"/>
			<stop  offset="0.1951" style="stop-color:#1D539C"/>
			<stop  offset="0.5668" style="stop-color:#2C79B7"/>
			<stop  offset="1" style="stop-color:#41ADDD"/>
		</linearGradient>
		<path style="fill:url(#SVGID_00000104695610576600115590000016171104869143940239_);" d="M955.7,732.6
			c-46.9-61.7-115.7-107-182.2-150.7c-88.8-58.4-172.6-113.6-201.1-202.7c-10.4-32.6-9.6-67.8-8.9-99c1.2-53.6,2.3-99.9-53.2-112.4
			c-17.3-3.9-36.8-4.6-59.4-2.3c-59.5,6.2-97.4,50.5-134.1,93.4c-23.5,27.4-47.8,55.8-77.5,74c-46.3,28.4-73.2,31.6-95.9,11.2
			c-47.5-42.6-51.1-90.5-54.6-136.9c-3.4-45.4-6.7-88.2-51.7-121.1C0.4,59.6-27,14.4-44.6-48.1c-33.4-119-127.2-411.6-145.7-444.7
			l0.7-0.4C-171.1-460-77.2-167.3-43.8-48.3C-26.3,14.1,1,59.1,37.4,85.6c45.3,33,48.6,76,52,121.6c3.5,46.2,7.1,94,54.4,136.4
			c22.4,20.1,49,16.9,95-11.3c29.7-18.2,53.9-46.5,77.3-73.9c36.8-42.9,74.8-87.3,134.6-93.6c22.7-2.4,42.3-1.6,59.7,2.3
			c56.1,12.6,55,59.2,53.8,113.1c-0.7,31.1-1.5,66.3,8.9,98.7c28.5,88.8,112.2,143.9,200.8,202.3c66.5,43.8,135.3,89.1,182.4,150.9
			L955.7,732.6z"/>
		
			<linearGradient id="SVGID_00000064319706226320604790000017129714106798916249_" gradientUnits="userSpaceOnUse" x1="-72.0241" y1="1663.0198" x2="725.3136" y2="228.4925" gradientTransform="matrix(1 0 0 -1 0 1077.8899)">
			<stop  offset="0" style="stop-color:#184592"/>
			<stop  offset="0.1951" style="stop-color:#1D539C"/>
			<stop  offset="0.5668" style="stop-color:#2C79B7"/>
			<stop  offset="1" style="stop-color:#41ADDD"/>
		</linearGradient>
		<path style="fill:url(#SVGID_00000064319706226320604790000017129714106798916249_);" d="M967.2,714.9
			C914,638.6,830.9,595.5,750.6,553.8C664.3,509,582.8,466.6,558,388.4c-10.5-33.2-7.1-68.6-3.7-102.9c5.2-53.3,9.7-99.4-43.7-115.6
			c-16.9-5.1-36.4-7.2-59.6-6.4c-63.5,2.3-105.6,47.3-146.2,90.8c-22.9,24.5-46.5,49.8-73.7,67.1c-47.4,30.3-74.4,34.9-96.2,16.3
			c-53-45.2-52.4-95.5-51.9-144.1c0.5-44.1,1-85.7-37.4-121.6C12.8,41.4-15-6.1-34.7-65.2C-70.2-171.5-203.1-461-225-500.1l0.7-0.4
			C-202.4-461.3-69.5-171.8-34-65.4c19.7,59,47.4,106.3,80.1,136.9c38.6,36.1,38.1,77.9,37.6,122.2c-0.5,48.4-1.1,98.5,51.6,143.5
			c21.5,18.3,48.2,13.7,95.3-16.3c27.1-17.3,50.7-42.6,73.5-67c40.8-43.6,82.9-88.8,146.8-91.1c23.3-0.8,42.9,1.3,59.9,6.4
			c53.9,16.4,49.4,62.8,44.2,116.4c-3.3,34.2-6.8,69.6,3.7,102.6c24.7,78,106.1,120.2,192.3,165c80.4,41.8,163.6,84.9,216.9,161.4
			L967.2,714.9z"/>
		
			<linearGradient id="SVGID_00000065778018454365302930000010551629525335898758_" gradientUnits="userSpaceOnUse" x1="-77.5723" y1="1686.5378" x2="726.2929" y2="240.2658" gradientTransform="matrix(1 0 0 -1 0 1077.8899)">
			<stop  offset="0" style="stop-color:#184592"/>
			<stop  offset="0.1951" style="stop-color:#1D539C"/>
			<stop  offset="0.5668" style="stop-color:#2C79B7"/>
			<stop  offset="1" style="stop-color:#41ADDD"/>
		</linearGradient>
		<path style="fill:url(#SVGID_00000065778018454365302930000010551629525335898758_);" d="M978.8,697.3
			c-58.5-90.5-159.5-130.2-248.6-165.2c-43.6-17.1-84.7-33.3-117.8-53.9c-37-23.1-59-48.7-68.9-80.6c-10.4-33.2-4.2-70,1.9-105.5
			c4.5-26.4,8.8-51.4,5.4-72.4c-3.7-23.4-16.4-38.6-40-47.7c-16.4-6.4-36-9.8-59.8-10.5c-68.1-2-114.7,44.2-159.7,88.8
			c-21.7,21.5-44.1,43.7-68.5,59.8c-41.7,27.7-72.3,40.9-96.5,21.3c-58.5-47.4-53.3-99.7-48.3-150.2c4.1-41.5,8.3-84.3-23.8-123.3
			C23.7,20.9-2.9-26.2-24.8-82.3C-56.5-163.1-173.3-360.9-229.5-456c-14.8-25.1-25.5-43.2-30.1-51.5l0.7-0.4
			c4.6,8.3,15.3,26.4,30.1,51.5c56.2,95.1,173,292.9,204.7,373.8c21.9,56,48.5,103,78.9,139.9c32.4,39.2,28.1,82.2,24,123.8
			c-5,50.3-10.1,102.4,48,149.5c23.8,19.3,54.2,6.1,95.6-21.4c24.3-16.1,46.7-38.3,68.3-59.8c45.2-44.7,91.8-91,160.3-89
			c23.9,0.7,43.6,4.1,60.1,10.6c23.9,9.3,36.7,24.6,40.5,48.3c3.4,21.1-0.9,46.1-5.4,72.6c-6,35.4-12.3,72.1-1.9,105.2
			c21.7,69.4,98,99.3,186.3,134c89.2,35.1,190.3,74.8,248.9,165.5L978.8,697.3z"/>
		
			<linearGradient id="SVGID_00000089531953720289719880000013398706914689896623_" gradientUnits="userSpaceOnUse" x1="-83.197" y1="1710.0132" x2="727.1967" y2="251.9952" gradientTransform="matrix(1 0 0 -1 0 1077.8899)">
			<stop  offset="0" style="stop-color:#184592"/>
			<stop  offset="0.1951" style="stop-color:#1D539C"/>
			<stop  offset="0.5668" style="stop-color:#2C79B7"/>
			<stop  offset="1" style="stop-color:#41ADDD"/>
		</linearGradient>
		<path style="fill:url(#SVGID_00000089531953720289719880000013398706914689896623_);" d="M990.4,679.6
			C927.1,575,812.3,542.9,711,514.6c-87.2-24.4-162.5-45.4-181.9-107.8c-10.2-32.9-1.1-70.7,7.7-107.1
			c12.6-52.3,24.5-101.6-25.7-125.6c-16-7.6-35.6-12.4-60-14.6c-73.3-6.6-124.9,41.1-174.8,87.2c-19.9,18.4-40.4,37.4-61.7,52.1
			c-30.5,21-54.3,34.2-73.7,34.2c-8.4,0-16-2.5-23-7.9c-28.7-22.1-44.9-47-49.7-76c-4.3-26,0.7-53,5.6-79.2
			c7.7-41.3,15.6-83.9-10.9-126C46.6,17.7,16.2-30.5-15-99.3C-42.9-160.9-142.7-300-215.6-401.6c-39.2-54.6-70.1-97.7-78.7-113.2
			l0.7-0.4c8.6,15.4,39.5,58.6,78.7,113.1C-142.1-300.4-42.2-161.3-14.3-99.7c31.2,68.8,61.5,117,77.8,142.9
			c26.6,42.3,18.6,85.1,11,126.5c-10.1,54.3-19.6,105.6,43.9,154.5c22.8,17.5,52.4,3.6,95.9-26.4c21.2-14.6,41.8-33.6,61.6-52
			c50-46.2,101.7-94,175.3-87.4c24.5,2.2,44.2,7,60.3,14.7c50.8,24.3,38.8,73.9,26.1,126.5c-8.8,36.4-17.8,74-7.7,106.7
			c19.2,62,94.4,83,181.4,107.3c101.4,28.3,216.3,60.5,279.8,165.4L990.4,679.6z"/>
		
			<linearGradient id="SVGID_00000003066631354511752130000006584265272897910437_" gradientUnits="userSpaceOnUse" x1="-88.913" y1="1733.4379" x2="728.0094" y2="263.6749" gradientTransform="matrix(1 0 0 -1 0 1077.8899)">
			<stop  offset="0" style="stop-color:#184592"/>
			<stop  offset="0.1951" style="stop-color:#1D539C"/>
			<stop  offset="0.5668" style="stop-color:#2C79B7"/>
			<stop  offset="1" style="stop-color:#41ADDD"/>
		</linearGradient>
		<path style="fill:url(#SVGID_00000003066631354511752130000006584265272897910437_);" d="M1001.9,662
			c-67.9-119-202-142.7-309.8-161.8c-86-15.2-160.3-28.3-177.4-84.3c-9.9-32.3,2-70.8,13.5-107.9c16.6-53.5,32.2-104-16.8-132
			c-15.6-8.9-35.3-15-60.2-18.7c-79.2-11.8-136.3,38-191.5,86.2c-18.2,15.9-35.4,30.9-53.2,43.7c-33.1,23.7-57.5,38-76.8,38
			c-7.4,0-14.1-2.1-20.2-6.6C40.3,267.9,54.6,215,69.7,159.1c11.2-41.5,22.8-84.3,1.8-129.6C61.6,8.1,48.2-16.8,31.2-48.3
			c-10.8-20-23.1-42.7-36.3-68.1c-26.8-51.4-126.4-167.8-206.4-261.4c-57.1-66.8-106.4-124.4-117.5-144.3l0.7-0.4
			c11.1,19.8,60.3,77.4,117.4,144.2c80,93.6,179.6,210.1,206.5,261.6C8.8-91.4,21-68.7,31.8-48.7c17,31.6,30.5,56.5,40.4,77.8
			c21.1,45.5,9.5,88.5-1.8,130.1C55.4,215,41.1,267.6,109.8,317.9c21.7,15.9,50.6,1.2,96.2-31.4c17.8-12.8,35-27.7,53.2-43.6
			c55.3-48.3,112.5-98.2,192.1-86.4c25.1,3.7,44.9,9.9,60.5,18.8c49.5,28.3,33.8,79.1,17.2,132.9c-11.5,37-23.3,75.3-13.5,107.5
			c17,55.5,91,68.6,176.8,83.8c54.2,9.6,115.6,20.4,170.9,43.6c63.5,26.6,109.1,65.4,139.4,118.5L1001.9,662z"/>
		
			<linearGradient id="SVGID_00000048473287963457109630000004074366214589466518_" gradientUnits="userSpaceOnUse" x1="-94.6625" y1="1756.8422" x2="728.7952" y2="275.3203" gradientTransform="matrix(1 0 0 -1 0 1077.8899)">
			<stop  offset="0" style="stop-color:#184592"/>
			<stop  offset="0.1951" style="stop-color:#1D539C"/>
			<stop  offset="0.5668" style="stop-color:#2C79B7"/>
			<stop  offset="1" style="stop-color:#41ADDD"/>
		</linearGradient>
		<path style="fill:url(#SVGID_00000048473287963457109630000004074366214589466518_);" d="M1013.5,644.3
			c-72.2-133.6-220.9-146-340.3-155.9c-42.5-3.5-82.7-6.9-113.2-15.5c-33.8-9.6-52.8-24.8-59.7-47.8c-9.5-31.5,5.1-70.4,19.2-107.9
			c9.9-26.4,20.1-53.7,21.6-77.7c1.7-27.2-7.7-46.7-29.5-61.4c-15.1-10.2-34.9-17.6-60.4-22.9c-86.1-17.6-152,37.4-210.2,86
			c-14.8,12.3-28.7,24-42.8,34.4c-41,30.4-74.2,52.4-97.3,36.4c-34-23.5-50.9-48.6-53.2-78.9c-2.1-27,7.7-54.7,18-84
			c14.8-42,30.1-85.4,14.4-133.9C69-19.2,46.5-63.7,4.8-133.5c-26.2-43.9-125.4-142.9-212.9-230.2c-73.2-73-142.3-142-155.5-165.7
			l0.7-0.4c13.2,23.6,82.3,92.6,155.4,165.6c87.5,87.4,186.8,186.4,213,230.4C47.1-64,69.7-19.5,80.9,15
			c15.8,48.7,0.4,92.2-14.4,134.3c-10.3,29.3-20,56.9-18,83.7c2.3,30.1,19.1,55,52.9,78.4c22.7,15.7,55.7-6.2,96.4-36.4
			c14.1-10.5,28-22.1,42.8-34.4c29.9-25,60.8-50.8,95.3-68.3c39.1-19.9,76.9-25.8,115.6-17.9c25.7,5.2,45.5,12.8,60.7,23
			c21.7,14.6,31.5,34.9,29.8,62c-1.5,24.2-11.8,51.5-21.7,77.9c-14.1,37.5-28.6,76.2-19.2,107.5c6.9,22.8,25.7,37.8,59.2,47.3
			c30.4,8.6,70.5,11.9,113,15.5c119.6,10,268.5,22.3,340.9,156.3L1013.5,644.3z"/>
		
			<linearGradient id="SVGID_00000163031759031845260620000002224137581164523949_" gradientUnits="userSpaceOnUse" x1="-101.2182" y1="1779.8" x2="728.776" y2="286.5177" gradientTransform="matrix(1 0 0 -1 0 1077.8899)">
			<stop  offset="0" style="stop-color:#184592"/>
			<stop  offset="0.1951" style="stop-color:#1D539C"/>
			<stop  offset="0.5668" style="stop-color:#2C79B7"/>
			<stop  offset="1" style="stop-color:#41ADDD"/>
		</linearGradient>
		<path style="fill:url(#SVGID_00000163031759031845260620000002224137581164523949_);" d="M1025.1,626.7
			C948.5,478.1,785.2,478.4,654,478.7c-86.5,0.2-154.8,0.4-168.1-44.5c-9-30.5,7.4-67.8,24.7-107.3c23.8-54.2,48.3-110.3,1.4-146.8
			c-14.7-11.4-34.5-20.2-60.6-27c-94.1-24.2-166.9,34.9-231.1,87c-10.5,8.5-20.3,16.5-30.2,24.1c-44.7,34.4-75.6,55.8-97.6,41.5
			c-79.5-52.1-56.8-104.9-30.6-165.9C79.5,98.9,99.4,52.6,88.9,1.1c-8.4-41.1-32.7-90.7-74.2-151.6
			c-25.7-37.7-123.5-122.1-218-203.7c-92.4-79.7-179.6-155-194.9-182.5l0.7-0.4c15.2,27.3,102.4,102.6,194.7,182.3
			C-108.3-273.2-10.5-188.8,15.3-151C56.9-90,81.2-40.3,89.6,0.9c10.6,51.8-9.4,98.2-27,139.1c-26.1,60.8-48.7,113.2,30.3,165
			c21.5,14.1,52.3-7.2,96.7-41.4c9.8-7.6,19.7-15.6,30.2-24.1c64.4-52.3,137.3-111.5,231.8-87.2c26.2,6.8,46.2,15.6,60.9,27.1
			c47.4,36.9,22.7,93.2-1.2,147.7c-17.3,39.4-33.6,76.6-24.7,106.8c13.2,44.3,81.2,44.1,167.4,43.9c64.6-0.1,137.9-0.3,205.2,18.2
			c78,21.4,132.5,64,166.6,130.2L1025.1,626.7z"/>
		
			<linearGradient id="SVGID_00000028318006347115214530000009887987700223847834_" gradientUnits="userSpaceOnUse" x1="-115.9458" y1="1798.2156" x2="720.5858" y2="293.1723" gradientTransform="matrix(1 0 0 -1 0 1077.8899)">
			<stop  offset="0" style="stop-color:#184592"/>
			<stop  offset="0.1951" style="stop-color:#1D539C"/>
			<stop  offset="0.5668" style="stop-color:#2C79B7"/>
			<stop  offset="1" style="stop-color:#41ADDD"/>
		</linearGradient>
		<path style="fill:url(#SVGID_00000028318006347115214530000009887987700223847834_);" d="M1036.7,609
			C955.8,445,770,460.1,634.3,471.1c-84.5,6.9-151.2,12.3-162.8-27.7c-8.5-29.4,10.1-66.8,29.9-106.3c28-56.1,56.9-114,10.9-155
			c-14-12.5-34.5-23-60.8-31.1c-103.5-31.9-187.1,35.4-254.3,89.4c-5.3,4.3-10.3,8.3-15.3,12.3c-33.2,26.5-62.8,50.1-84.6,50.1
			c-4.8,0-9.2-1.1-13.2-3.6c-38.8-24-56.8-49.4-56.7-80.1c0.1-27.7,14.9-57.1,30.7-88.3c21.1-41.8,45-89.3,39.5-144
			c-4.7-46.9-28.6-97.4-73-154.5C-0.8-200.2-95.9-271.9-196.6-347.9C-304.3-429-415.6-513-433-544.1l0.7-0.4
			c17.3,31,128.6,114.9,236.1,196c100.8,76,196,147.8,221.3,180.3C69.6-110.9,93.5-60.2,98.3-13.2c5.5,54.9-18.4,102.5-39.6,144.4
			c-15.7,31.1-30.5,60.5-30.6,88c-0.1,30.4,17.8,55.7,56.3,79.5c21.9,13.5,56.7-14.3,97-46.4c5-4,10-8,15.3-12.3
			c67.3-54.2,151-121.6,254.9-89.6c26.4,8.2,47,18.7,61.1,31.3c46.4,41.4,17.3,99.6-10.8,155.9c-19.7,39.4-38.2,76.6-29.8,105.8
			c11.5,39.3,77.9,33.9,162,27.1c69.8-5.7,148.9-12.1,222.4,3.3c85.6,17.9,144.8,62.1,180.7,135L1036.7,609z"/>
		
			<linearGradient id="SVGID_00000170267593498234342830000017146101440666336434_" gradientUnits="userSpaceOnUse" x1="-130.6537" y1="1816.6427" x2="712.4144" y2="299.8386" gradientTransform="matrix(1 0 0 -1 0 1077.8899)">
			<stop  offset="0" style="stop-color:#184592"/>
			<stop  offset="0.1951" style="stop-color:#1D539C"/>
			<stop  offset="0.5668" style="stop-color:#2C79B7"/>
			<stop  offset="1" style="stop-color:#41ADDD"/>
		</linearGradient>
		<path style="fill:url(#SVGID_00000170267593498234342830000017146101440666336434_);" d="M1048.2,591.3
			c-37.7-79.6-101.4-125-194.7-138.8c-79.8-11.8-168.3,1.8-239.5,12.8c-42,6.5-78.2,12.1-105.8,11.7c-30.3-0.4-46.6-8.1-51.2-24.4
			c-8-28.2,12.7-65.4,34.7-104.9c26.3-47.2,53.5-96.1,37.9-137.5c-9.8-26-35.4-46.1-78.1-61.3c-115.8-41.3-211.6,37.7-281.6,95.4
			c-34.2,28.2-62.4,51.5-83,51.5c-4.1,0-8-0.9-11.5-3c-41.1-23.9-59.7-49.4-58.5-80.2c1.1-27.9,17.7-56.8,37-90.3
			c44.3-77.1,99.4-173-19.6-307.1c-24.8-28-120.6-91.5-222-158.8c-128.1-85-260.5-172.9-280.1-207.9l0.7-0.4
			c19.4,34.8,151.8,122.6,279.8,207.6c101.4,67.3,197.3,130.9,222.1,159c119.4,134.6,64.1,230.7,19.7,308
			C16.8,188.5-13,240.5,75.9,292.2c20.5,11.9,52.7-14.7,93.6-48.4c70.1-57.8,166-137,282.3-95.5c43,15.3,68.7,35.5,78.6,61.8
			c15.7,41.8-11.6,90.8-38,138.1c-21.9,39.3-42.6,76.4-34.6,104.3c9.9,34.7,74.4,24.8,156.1,12.2c71.2-11,159.8-24.6,239.7-12.8
			c43.9,6.5,80.4,19.7,111.6,40.2c35.5,23.4,63.6,56.7,83.7,99L1048.2,591.3z"/>
		
			<linearGradient id="SVGID_00000124853068912829266580000013454193236759970733_" gradientUnits="userSpaceOnUse" x1="-727.8088" y1="-122.2862" x2="900.4701" y2="917.9311" gradientTransform="matrix(1 0 0 -1 0 1077.8899)">
			<stop  offset="0" style="stop-color:#184592"/>
			<stop  offset="0.1951" style="stop-color:#1D539C"/>
			<stop  offset="0.5668" style="stop-color:#2C79B7"/>
			<stop  offset="1" style="stop-color:#41ADDD"/>
		</linearGradient>
		<path style="fill:url(#SVGID_00000124853068912829266580000013454193236759970733_);" d="M-641.5,1335.2
			c0-1.8-4.3-185.8,12.7-378.7c10-113.3,25.3-207.4,45.4-279.7c25.2-90.5,58.1-147,97.9-167.9c32.7-17.2,70.5-10.5,112.3,19.8
			c157,113.7,270.2,52.5,361.1,3.3c70.6-38.2,126.4-68.4,175.9,1.6c36.4,51.5,16.9,114.9-3.7,182.1
			c-25.1,81.9-53.6,174.8,15.7,263.3c32.6,41.7,71.8,63.3,116.6,64.3c1.1,0,2.2,0,3.3,0c66,0,145.3-42.9,242.4-131.1
			c85.9-78,173.7-180.4,251-270.7C896,516.9,988.2,409.2,1040,406.4c9-0.5,16.8,2.3,23.1,8.1l-0.5,0.5c-6.1-5.7-13.7-8.4-22.5-7.9
			c-51.5,2.8-143.7,110.4-250.4,234.9c-77.4,90.3-165.2,192.8-251.1,270.8c-97.2,88.3-176.7,131.2-242.9,131.2c-1.1,0-2.2,0-3.4,0
			c-45-1-84.4-22.7-117.2-64.6c-31.1-39.7-45.3-83.6-43.6-134.1c1.5-44.4,14.9-87.9,27.8-129.9c20.6-67,40-130.2,3.8-181.4
			c-49.1-69.5-104.6-39.5-175-1.4c-45,24.4-96.1,52-155.6,59.3c-10,1.2-20.1,1.9-30.1,1.9c-58.5,0-116.5-21.3-176.2-64.5
			c-41.6-30.1-79.1-36.8-111.5-19.7c-39.6,20.8-72.4,77.2-97.5,167.4c-20.1,72.3-35.4,166.3-45.4,279.5
			c-17,192.8-12.7,376.8-12.7,378.6L-641.5,1335.2z"/>
		
			<linearGradient id="SVGID_00000097462681836212522680000007102612541941485732_" gradientUnits="userSpaceOnUse" x1="-749.1675" y1="-138.9713" x2="889.7241" y2="908.0243" gradientTransform="matrix(1 0 0 -1 0 1077.8899)">
			<stop  offset="0" style="stop-color:#184592"/>
			<stop  offset="0.1951" style="stop-color:#1D539C"/>
			<stop  offset="0.5668" style="stop-color:#2C79B7"/>
			<stop  offset="1" style="stop-color:#41ADDD"/>
		</linearGradient>
		<path style="fill:url(#SVGID_00000097462681836212522680000007102612541941485732_);" d="M-683.6,1319.4l-0.4-0.7l0.2,0.3
			l-0.3-0.3c0.7-1.1,1.8-17,3.5-41.2c5.2-74,16-228.1,41.8-378.9c32.1-187.1,76.4-304.5,131.8-348.9c18-14.5,37.7-21.7,58.5-21.5
			c22,0.2,45.9,8.9,71,25.6c153.3,102.1,259.9,37.5,345.6-14.4c68.3-41.4,122.2-74.1,174.7-6.4c36.8,47.5,20.1,110.9,2.5,178
			c-22.1,84.1-47.2,179.4,26,265.5c3.3,3.9,5.9,6.8,8.4,9.4c47.1,48.6,100.5,60.9,163.1,37.8c60.6-22.4,123.5-75,182.5-128.4
			c67.8-61.4,136.7-133.2,203.4-202.6c72.6-75.6,141.2-147,199.1-195.2c64.9-54,108-71.8,135.4-55.9l-0.4,0.6
			c-27.2-15.7-69.9,2-134.6,55.9c-57.9,48.2-126.5,119.6-199.1,195.1c-66.7,69.4-135.7,141.2-203.5,202.7
			c-59,53.5-122,106-182.8,128.5c-30.6,11.3-58.2,14.2-84.4,8.9c-28.5-5.8-54.6-21.1-79.5-46.9c-2.5-2.6-5.2-5.5-8.5-9.5
			c-32.9-38.6-48.9-82.3-49.1-133.6c-0.2-45.1,11.6-89.6,22.9-132.6c17.6-66.9,34.3-130.1-2.3-177.3C90.2,466.4,36.5,499-31.5,540.2
			c-42.6,25.8-90.8,55-147.5,65c-13.4,2.3-26.7,3.5-40.1,3.5c-52.1,0-104.4-17.9-158.8-54.1c-48.5-32.3-91.8-33.7-128.6-4.2
			C-561.7,594.7-605.9,712-638,898.9c-25.9,150.8-36.6,304.8-41.8,378.9C-682.2,1311.7-682.7,1319-683.6,1319.4z"/>
		
			<linearGradient id="SVGID_00000135672147493361851960000011168154461885330584_" gradientUnits="userSpaceOnUse" x1="-770.2985" y1="-156.387" x2="879.3591" y2="897.4824" gradientTransform="matrix(1 0 0 -1 0 1077.8899)">
			<stop  offset="0" style="stop-color:#184592"/>
			<stop  offset="0.1951" style="stop-color:#1D539C"/>
			<stop  offset="0.5668" style="stop-color:#2C79B7"/>
			<stop  offset="1" style="stop-color:#41ADDD"/>
		</linearGradient>
		<path style="fill:url(#SVGID_00000135672147493361851960000011168154461885330584_);" d="M-726.2,1303.3l-0.4-0.7
			c1.8-1,6-29.4,11.9-68.7c12.4-83,33-222,66-353.9c40-160.3,86.4-261.7,137.9-301.3c18.3-14.1,38.2-21.4,59-21.7
			c21.8-0.3,45.4,7.1,70.1,22.1c149.6,90.7,249.6,22.7,330-31.9c33.3-22.6,62.1-42.2,90.4-48.5c31.2-7,57.7,3.8,83.3,33.8
			c17,19.9,24.6,44.6,23.8,77.7c-0.6,29.4-7.8,61.8-15.3,96.1c-19,86.2-40.5,183.9,36.6,267.8c2.9,3.2,5.8,6.3,8.8,9.1
			c50,46.7,100.9,56.3,160.3,30.2c53.8-23.6,110.2-74.7,170-128.9l7.2-6.6c39.3-35.6,80.2-74,119.8-111.2
			c85.3-80.1,173.6-163,248.9-220.5c40.6-31,74.3-52.4,103.2-65.5c32.5-14.7,58.1-18.7,78.3-12l-0.2,0.7c-20-6.6-45.4-2.6-77.7,12
			c-28.9,13.1-62.6,34.5-103.1,65.4c-75.3,57.5-163.5,140.3-248.9,220.4c-39.6,37.2-80.6,75.6-119.9,111.2l-7.2,6.6
			c-59.8,54.2-116.3,105.4-170.2,129c-59.7,26.2-110.9,16.6-161.1-30.3c-3-2.8-5.9-5.9-8.8-9.1c-77.3-84.2-55.8-182.1-36.7-268.5
			c15.3-69.6,28.6-129.7-8.3-173.1c-55.3-64.9-107.1-29.7-172.6,14.9c-52.1,35.4-112.3,76.3-189,76.3c-41.9,0-88.8-12.3-141.8-44.4
			c-47.8-29-90.9-29.1-128.2-0.5C-561.7,618.8-608,720-648,880.2c-32.9,131.9-53.6,270.8-65.9,353.8
			C-720.9,1281.3-724.1,1302.2-726.2,1303.3z"/>
		
			<linearGradient id="SVGID_00000054986308317224079810000005601022414483868308_" gradientUnits="userSpaceOnUse" x1="-790.9539" y1="-174.6299" x2="869.5089" y2="886.1452" gradientTransform="matrix(1 0 0 -1 0 1077.8899)">
			<stop  offset="0" style="stop-color:#184592"/>
			<stop  offset="0.1951" style="stop-color:#1D539C"/>
			<stop  offset="0.5668" style="stop-color:#2C79B7"/>
			<stop  offset="1" style="stop-color:#41ADDD"/>
		</linearGradient>
		<path style="fill:url(#SVGID_00000054986308317224079810000005601022414483868308_);" d="M-768.8,1287.2l-0.4-0.7
			c3.4-1.8,11.9-38.3,23.7-88.9c38.4-164.7,118.4-507.3,230.9-590c18.7-13.7,38.7-21.1,59.5-21.9c21.6-0.8,44.9,5.4,69.1,18.6
			c145.9,79.3,239.3,8.1,314.3-49.1c30.6-23.4,59.6-45.5,87.5-53.2c30.9-8.6,58,0.9,85.1,29.9c17.1,18.2,25.2,41.7,25.7,74
			c0.4,28.8-5.4,61.1-11.5,95.4C99.3,789.8,81.4,890,162.5,971.6l0.2,0.3c3,3,5.8,5.8,8.9,8.4c105.6,89.6,185.4,14.7,286.5-80
			c13.9-13,28.2-26.5,43-39.9c128.1-115.9,227.3-197.6,312.2-257.1c53.4-37.4,100.6-65.5,140.6-83.4c44.7-20.1,81.6-28.2,109.9-24
			l-0.1,0.7c-28.1-4.1-64.9,4-109.5,24c-39.9,17.9-87.1,46-140.4,83.3c-84.9,59.5-184,141.2-312.1,257.1
			c-14.8,13.4-29.2,26.8-43,39.8c-51.4,48.2-95.7,89.8-141.7,109.2c-17.6,7.4-34.6,11.2-51.4,11.2c-31.7,0-62.5-13.3-94.3-40.3
			c-3.1-2.6-5.9-5.5-8.9-8.5l-0.2-0.3c-81.4-81.8-63.4-182.3-47.6-270.9c12.4-69.4,23.1-129.3-14-168.8
			c-27-28.8-53.8-38.2-84.4-29.7c-27.8,7.7-56.7,29.8-87.3,53.1C-146.4,613.2-240,684.6-386.3,605c-47.7-26-89.6-24.9-127.8,3.2
			c-112.3,82.5-192.2,425-230.6,589.6C-757.5,1252.3-765.1,1285.2-768.8,1287.2z"/>
		
			<linearGradient id="SVGID_00000153692413490443099580000000341556203953384584_" gradientUnits="userSpaceOnUse" x1="-810.6852" y1="-194.319" x2="860.5823" y2="873.3546" gradientTransform="matrix(1 0 0 -1 0 1077.8899)">
			<stop  offset="0" style="stop-color:#184592"/>
			<stop  offset="0.1951" style="stop-color:#1D539C"/>
			<stop  offset="0.5668" style="stop-color:#2C79B7"/>
			<stop  offset="1" style="stop-color:#41ADDD"/>
		</linearGradient>
		<path style="fill:url(#SVGID_00000153692413490443099580000000341556203953384584_);" d="M-811.4,1271.1l-0.4-0.7
			c5.1-2.7,19-45,38.1-103.6c52.1-159.3,149.1-455.8,255.2-530.3c19-13.3,39.2-20.8,60.1-22.1c21.5-1.3,44.4,3.7,68.1,15.1
			c142.3,68.1,228.9-6.2,298.5-66c29.3-25.1,57-48.9,84.5-58.1c30.6-10.3,58.3-2.1,87.2,25.9c37.3,36,29.1,95.8,19.5,165
			C87.1,787.1,72.9,890,158.1,969.1l0.7,0.7c2.9,2.7,5.7,5.3,8.7,7.6c105,81.2,172.6,13,258.3-73.3c20-20.1,40.7-41,63.1-61.2
			c96.7-87.4,206.6-167.7,309.6-226c52.5-29.8,101.6-53,145.8-68.9c46.5-16.8,86.8-25.2,119.5-25l0,0.8c-0.4,0-0.7,0-1.1,0
			c-127.3,0-368.1,134.2-573.4,319.8c-22.4,20.3-43.1,41.1-63.1,61.2c-85.9,86.6-153.8,155-259.3,73.3c-3-2.4-6-5.1-8.8-7.7
			l-0.7-0.7c-85.5-79.4-71.3-182.5-58.8-273.4c9.5-69,17.7-128.6-19.3-164.4C50.8,504.2,23.3,496-6.9,506.2
			c-27.4,9.2-55,32.9-84.3,58c-34.9,29.9-74.5,63.9-122.6,81.4c-55.4,20.1-113.2,15.1-176.7-15.3c-47-22.5-88.7-20.2-127.4,6.9
			c-105.9,74.4-202.9,370.7-255,529.9C-792.9,1228-806,1268.2-811.4,1271.1z"/>
		
			<linearGradient id="SVGID_00000014615959898868014860000015700616322800376740_" gradientUnits="userSpaceOnUse" x1="-821.3992" y1="-228.1242" x2="860.6812" y2="846.4614" gradientTransform="matrix(1 0 0 -1 0 1077.8899)">
			<stop  offset="0" style="stop-color:#184592"/>
			<stop  offset="0.1951" style="stop-color:#1D539C"/>
			<stop  offset="0.5668" style="stop-color:#2C79B7"/>
			<stop  offset="1" style="stop-color:#41ADDD"/>
		</linearGradient>
		<path style="fill:url(#SVGID_00000014615959898868014860000015700616322800376740_);" d="M-854,1255l-0.4-0.7
			c7.1-3.8,27.1-49.9,54.8-113.8c66.1-152.5,176.9-407.8,277.4-475c39.3-26.3,81.1-29.8,127.7-10.7c138.7,57,218.6-20.4,282.8-82.5
			c27.9-27,54.2-52.4,81.4-63.3c30.2-12.1,58.6-5.1,89.4,21.8c37.1,32.4,31.3,91.8,24.6,160.6c-9.1,93-19.4,198.5,70,275.2l1,0.9
			c2.8,2.4,5.7,4.9,8.8,7.1c106.1,74.9,164.8,9.9,239.1-72.5c23.1-25.6,46.9-52,74.3-76.7C661.1,659,910.5,566.1,1064.3,550.1
			l0.1,0.7c-153.6,16-402.8,108.9-586.9,275.2c-27.3,24.7-51.2,51.1-74.2,76.6c-37.7,41.8-70.3,77.9-107.8,95.3
			c-41.3,19.1-83.4,11.9-132.3-22.7c-3.1-2.2-6-4.7-8.8-7.1l-1-0.9c-40-34.3-63.6-77.6-72.2-132.4c-7.5-47.9-2.5-98.6,1.9-143.4
			c6.7-68.6,12.5-127.8-24.4-160C28,504.6-0.2,497.7-30.1,509.7c-27.1,10.8-53.3,36.2-81.1,63.1c-32.3,31.2-68.9,66.7-114.2,86.5
			c-52,22.8-107.5,21.6-169.4-3.9c-46.4-19-87.9-15.6-127,10.6c-100.3,67.1-211,322.3-277.1,474.7
			C-827.7,1207.2-846.7,1251.1-854,1255z"/>
		
			<linearGradient id="SVGID_00000150788787985973139170000005269523784760916900_" gradientUnits="userSpaceOnUse" x1="-832.135" y1="-261.8955" x2="860.76" y2="819.5962" gradientTransform="matrix(1 0 0 -1 0 1077.8899)">
			<stop  offset="0" style="stop-color:#184592"/>
			<stop  offset="0.1951" style="stop-color:#1D539C"/>
			<stop  offset="0.5668" style="stop-color:#2C79B7"/>
			<stop  offset="1" style="stop-color:#41ADDD"/>
		</linearGradient>
		<path style="fill:url(#SVGID_00000150788787985973139170000005269523784760916900_);" d="M-896.6,1238.8l-0.4-0.7
			c9.2-4.9,36.1-53.2,73.3-120.1c40-71.8,89.8-161.2,142.5-241.9c62.3-95.5,113.1-155,155.1-181.8c39.7-25.3,81.4-30,127.3-14.4
			c135.2,46,208.3-34.2,267.2-98.7c26.3-28.9,51.2-56.1,77.9-68.6c29.7-13.9,58.9-8.3,91.8,17.6c36.8,29,33.4,87.9,29.4,156.2
			c-5.6,95.4-11.9,203.5,81.8,277.7l1.2,0.9c2.9,2.3,5.9,4.7,9,6.7c49.7,32.1,90.7,38.1,129.1,18.7c34.8-17.5,64.7-54.6,96.3-93.8
			c24.3-30.1,49.4-61.2,79.9-88.7c165.3-149.2,393.3-192,559.9-223.2c13.9-2.6,27-5.1,39.8-7.5l0.1,0.7c-12.8,2.5-25.9,4.9-39.8,7.5
			c-166.4,31.2-394.4,74-559.5,223c-30.5,27.5-55.6,58.5-79.8,88.6c-31.7,39.3-61.7,76.4-96.6,94c-38.6,19.5-79.9,13.5-129.8-18.7
			c-3.1-2-6.1-4.4-9-6.7l-1.2-0.9c-41.9-33.2-67.5-76.4-78.4-132.2c-9.4-48.6-6.4-100.5-3.7-146.2c4-68.1,7.4-126.9-29.1-155.6
			c-32.6-25.7-61.5-31.2-91-17.5C-80,525.8-104.8,553-131,581.8c-29.7,32.5-63.3,69.4-105.7,91.6c-48.7,25.5-101.8,27.9-162.2,7.3
			c-45.7-15.6-87.1-10.9-126.7,14.3c-42,26.7-92.6,86.1-154.9,181.6c-52.6,80.7-102.4,170.1-142.4,241.9
			C-860.3,1185.4-887.3,1233.8-896.6,1238.8z"/>
		
			<linearGradient id="SVGID_00000105423539959453210580000017121294242624412094_" gradientUnits="userSpaceOnUse" x1="-842.8929" y1="-295.6322" x2="860.8243" y2="792.7776" gradientTransform="matrix(1 0 0 -1 0 1077.8899)">
			<stop  offset="0" style="stop-color:#184592"/>
			<stop  offset="0.1951" style="stop-color:#1D539C"/>
			<stop  offset="0.5668" style="stop-color:#2C79B7"/>
			<stop  offset="1" style="stop-color:#41ADDD"/>
		</linearGradient>
		<path style="fill:url(#SVGID_00000105423539959453210580000017121294242624412094_);" d="M-939.2,1222.7l-0.4-0.7
			c11.4-6.1,47.6-57.6,93.4-122.8c89.9-127.9,225.7-321.1,316.4-376c40.1-24.3,81.6-30.2,126.9-18.1
			c131.8,35.2,195.5-44.4,251.7-114.6c24.7-30.8,47.9-59.9,74.2-74.1c29.2-15.8,59.2-11.6,94.3,13.1c36.4,25.6,35.2,84.1,33.8,151.8
			c-1.9,92.9-4.2,208.6,93.9,280.2l1.2,0.9c3,2.2,6,4.4,9.2,6.3c51.1,30.2,91.8,34.8,128.2,14.6c32.9-18.3,59.3-55.4,87.3-94.6
			c24.2-34,49.3-69.1,81.8-98.4c54.1-48.8,121.8-84.8,207-110c75-22.2,153.2-33.4,228.8-44.3c63.1-9,122.7-17.6,176.3-31.9l0.2,0.7
			c-53.7,14.3-113.3,22.8-176.4,31.9C741.2,658,574.2,682,453.2,791c-32.5,29.2-57.5,64.3-81.7,98.2c-28.1,39.3-54.6,76.5-87.6,94.9
			c-36.6,20.4-77.6,15.8-128.9-14.6c-3.2-1.9-6.3-4.2-9.3-6.4l-1.2-0.9c-43.8-32-71.5-75.1-84.7-131.9
			c-11.5-49.4-10.4-102.3-9.5-149c1.4-67.5,2.5-125.8-33.5-151.2c-34.8-24.5-64.5-28.7-93.5-13.1c-26.2,14.1-49.4,43.1-74,73.9
			c-27,33.7-57.6,71.9-97.3,96.5c-45.5,28.1-96.3,34.1-155.2,18.4c-45.1-12-86.4-6.1-126.3,18c-90.6,54.8-226.3,248-316.1,375.8
			C-893.3,1167.5-927.7,1216.5-939.2,1222.7z"/>
		
			<linearGradient id="SVGID_00000124162561461747573710000017318796220211819141_" gradientUnits="userSpaceOnUse" x1="-853.6942" y1="-329.3015" x2="860.8507" y2="766.0262" gradientTransform="matrix(1 0 0 -1 0 1077.8899)">
			<stop  offset="0" style="stop-color:#184592"/>
			<stop  offset="0.1951" style="stop-color:#1D539C"/>
			<stop  offset="0.5668" style="stop-color:#2C79B7"/>
			<stop  offset="1" style="stop-color:#41ADDD"/>
		</linearGradient>
		<path style="fill:url(#SVGID_00000124162561461747573710000017318796220211819141_);" d="M-981.8,1206.6l-0.4-0.7
			c13.6-7.3,58-57.8,114.2-121.8c104.6-119.1,247.8-282.3,334.3-332c40.4-23.2,81.7-30.3,126.4-21.8
			c128.6,24.5,185.9-57.7,236.5-130.2c22.9-32.8,44.5-63.7,70.2-79.6c28.6-17.7,59.4-15,96.8,8.5c35.8,22.5,36.9,80.4,38,147.5
			c1.7,95.2,3.7,213.6,106.3,282.6l1.3,0.9c3.1,2.1,6.2,4.2,9.5,6c52.7,28.6,93.5,31.8,128.4,10.2c31.4-19.4,54.8-57.1,79.7-96.9
			c23.3-37.4,47.5-76.1,81.1-106.4c45.3-40.8,102.5-68.5,174.7-84.5c64.4-14.3,134.4-18.3,202.1-22.2c84.3-4.8,171.4-9.8,247.6-34.8
			l0.2,0.7c-76.3,25-163.5,30-247.8,34.8c-135.5,7.7-275.5,15.7-376.4,106.5c-33.6,30.2-57.7,68.8-81,106.2
			c-50.1,80.3-93.3,149.6-209.1,86.9c-3.3-1.8-6.5-4-9.6-6l-1.3-0.9C94.3,929,64.5,886,48.9,828.3c-13.6-50.1-14.5-104.1-15.3-151.7
			C32.4,609.7,31.3,552-4.2,529.7c-37.1-23.3-67.6-26-96-8.5c-25.6,15.8-47.2,46.7-70,79.4c-24.3,34.9-51.9,74.4-88.9,101.2
			c-31.1,22.5-65.5,33.6-104.4,33.7c-14.1,0-28.7-1.5-44-4.4c-44.5-8.5-85.7-1.4-125.9,21.7c-86.4,49.6-229.6,212.7-334.1,331.8
			C-923.7,1148.6-968.1,1199.2-981.8,1206.6z"/>
		
			<linearGradient id="SVGID_00000037690162708737347470000013327834187328064152_" gradientUnits="userSpaceOnUse" x1="-864.5977" y1="-362.8181" x2="860.7798" y2="739.4203" gradientTransform="matrix(1 0 0 -1 0 1077.8899)">
			<stop  offset="0" style="stop-color:#184592"/>
			<stop  offset="0.1951" style="stop-color:#1D539C"/>
			<stop  offset="0.5668" style="stop-color:#2C79B7"/>
			<stop  offset="1" style="stop-color:#41ADDD"/>
		</linearGradient>
		<path style="fill:url(#SVGID_00000037690162708737347470000013327834187328064152_);" d="M-1024.5,1190.5l-0.4-0.7
			c15.8-8.5,68.1-56.3,134.3-116.8c114-104.2,270-246.9,353-292c40.6-22,81.8-30.4,126-25.5c125.6,13.8,176.6-70.8,221.6-145.5
			c20.9-34.7,40.7-67.5,65.8-85.1c28-19.6,59.5-18.5,99.4,3.6c35.2,19.5,38.3,76.9,41.9,143.3c5.3,97.4,11.8,218.6,118.9,284.9
			l1.2,0.8c3.2,2,6.5,4.1,10,5.8c119.4,59.2,157.9-12,202.5-94.6c21.9-40.5,44.5-82.4,78.7-113.1c87.8-79,209.4-74.2,338.2-69.1
			c100.5,4,204.5,8,298.6-27.8l0.3,0.7c-94.3,35.9-198.3,31.8-298.9,27.8c-128.6-5.1-250.1-9.8-337.7,68.9
			c-34.1,30.6-56.7,72.5-78.5,112.9c-22.1,41-43,79.6-73.3,100.5c-15.7,10.8-33,16.3-52.5,16.3c-22.6,0-48.2-7.3-77.6-21.9
			c-3.5-1.7-6.8-3.8-10-5.8l-1.2-0.8c-107.4-66.5-114-188-119.3-285.5c-3.6-66.2-6.7-123.4-41.5-142.7
			c-39.6-21.9-70.9-23.1-98.6-3.6c-25,17.5-44.7,50.3-65.6,84.9c-22.8,37.8-46.3,76.8-80.6,105.8c-39.2,33.2-85.6,46.3-141.8,40.1
			c-44-4.9-85.1,3.5-125.5,25.4c-82.9,45-239,187.7-352.9,291.9C-956.2,1134.1-1008.5,1181.9-1024.5,1190.5z"/>
		
			<linearGradient id="SVGID_00000014605040335736903870000012794570161666780076_" gradientUnits="userSpaceOnUse" x1="-881.8159" y1="-386.4295" x2="854.3876" y2="722.7274" gradientTransform="matrix(1 0 0 -1 0 1077.8899)">
			<stop  offset="0" style="stop-color:#184592"/>
			<stop  offset="0.1951" style="stop-color:#1D539C"/>
			<stop  offset="0.5668" style="stop-color:#2C79B7"/>
			<stop  offset="1" style="stop-color:#41ADDD"/>
		</linearGradient>
		<path style="fill:url(#SVGID_00000014605040335736903870000012794570161666780076_);" d="M-1067.1,1174.4l-0.4-0.7
			c17.6-9.4,75.5-51.8,148.8-105.4c125.1-91.5,296.3-216.9,377.3-258.3c40.7-20.8,81.7-30.3,125.5-29.2
			c122.7,3.2,167.5-83.8,207-160.7c18.9-36.6,36.7-71.3,61.1-90.6c27.2-21.6,59.6-22.1,102-1.6c15.9,7.7,26.5,23.8,33.5,50.8
			C-5.8,603-3,634.1,0,667.1c9,99.6,20.1,223.6,131.8,287.1l1.1,0.6c3.4,1.9,6.9,3.9,10.5,5.5c56.8,25.8,98.4,26.1,131.1,1
			c29.2-22.4,47.6-62.3,67.1-104.5c20-43.3,40.7-88.1,75-118.8c35.5-31.9,79.5-48.2,138.4-51.2c52.4-2.7,109.8,5.3,170.5,13.8
			c113.1,15.8,230,32.1,340.3-14.8l0.3,0.7c-48.8,20.8-103.6,30.9-167.7,30.9c-0.8,0-1.7,0-2.5,0c-57.5-0.2-114.9-8.3-170.5-16
			c-118.8-16.6-230.9-32.3-308.4,37.3c-34.1,30.6-54.8,75.3-74.8,118.6c-19.5,42.3-38,82.3-67.3,104.8
			c-16.3,12.5-34.7,18.8-56.1,18.8c-21.9,0-46.9-6.5-75.7-19.6c-3.6-1.6-7.1-3.6-10.5-5.6l-1.1-0.6C19.4,891.1,8.2,767-0.8,667.2
			C-6.9,599-11.8,545.1-46,528.6c-42.1-20.4-74.3-19.9-101.2,1.5c-24.3,19.3-42.1,53.8-60.9,90.4c-20,38.9-40.7,79.1-72.3,110.2
			c-36.2,35.6-80.5,52.3-135.4,50.8c-43.7-1.2-84.6,8.4-125.2,29.1c-80.9,41.4-252.2,166.7-377.2,258.2
			C-991.5,1122.5-1049.4,1164.9-1067.1,1174.4z"/>
		
			<linearGradient id="SVGID_00000139989141017773346830000014828654260203910550_" gradientUnits="userSpaceOnUse" x1="-901.0506" y1="-406.8971" x2="845.9783" y2="709.1804" gradientTransform="matrix(1 0 0 -1 0 1077.8899)">
			<stop  offset="0" style="stop-color:#184592"/>
			<stop  offset="0.1951" style="stop-color:#1D539C"/>
			<stop  offset="0.5668" style="stop-color:#2C79B7"/>
			<stop  offset="1" style="stop-color:#41ADDD"/>
		</linearGradient>
		<path style="fill:url(#SVGID_00000139989141017773346830000014828654260203910550_);" d="M-1109.7,1158.2l-0.4-0.7
			c16.1-8.6,63.7-36.3,124.1-71.4c141-81.9,354.2-205.8,440.8-247.4c40.5-19.4,81.4-30.2,125.1-32.9
			c119.9-7.4,158.6-96.8,192.8-175.7c16.7-38.5,32.4-74.9,56.1-96c26.3-23.5,59.6-25.7,104.6-7c33.9,14.1,40.6,67.6,49.1,135.3
			c12.7,101.8,28.6,228.4,144.8,289.1l0.8,0.4c3.6,1.9,7.3,3.8,11.1,5.4c45.8,19,82,22.4,110.4,10.3c43.2-18.4,63.1-69.5,84.3-123.7
			c17.9-45.8,36.4-93.2,70.3-123.6c31.7-28.5,71.7-40.8,125.7-38.8c48.2,1.8,102.1,14.8,159.1,28.6c117.8,28.5,251.3,60.8,376.9,2.5
			l0.3,0.7c-125.7,58.5-259.4,26.1-377.3-2.4c-57-13.8-110.8-26.8-158.9-28.6c-53.8-2-93.5,10.2-125.1,38.6
			c-33.8,30.3-52.3,77.6-70.1,123.3c-21.2,54.3-41.2,105.6-84.7,124.1c-28.7,12.2-65,8.9-111-10.3c-3.8-1.6-7.5-3.5-11.1-5.4
			l-0.8-0.4c-51.8-27-88.3-69.6-111.6-130C-4.8,770.1-12,713.1-18.3,662.7c-8.5-67.5-15.1-120.8-48.6-134.7
			c-44.8-18.6-77.8-16.4-103.8,6.9c-23.5,21-39.2,57.3-55.9,95.7c-17.3,39.9-35.2,81.2-64.2,114.6c-33.2,38.1-75.5,58.2-129.2,61.6
			c-43.6,2.7-84.4,13.4-124.8,32.8c-86.6,41.6-299.7,165.4-440.8,247.3C-1045.9,1121.9-1093.6,1149.6-1109.7,1158.2z"/>
		
			<linearGradient id="SVGID_00000057123339101829201070000011602422818297597086_" gradientUnits="userSpaceOnUse" x1="-922.0096" y1="-424.6688" x2="835.8583" y2="698.3317" gradientTransform="matrix(1 0 0 -1 0 1077.8899)">
			<stop  offset="0" style="stop-color:#184592"/>
			<stop  offset="0.1951" style="stop-color:#1D539C"/>
			<stop  offset="0.5668" style="stop-color:#2C79B7"/>
			<stop  offset="1" style="stop-color:#41ADDD"/>
		</linearGradient>
		<path style="fill:url(#SVGID_00000057123339101829201070000011602422818297597086_);" d="M-1152.3,1142.1l-0.4-0.7
			c47.3-25.3,338.4-155.2,512.3-232.9c37.3-16.7,69.5-31,91.4-40.8c39.7-17.8,80.5-29.8,124.6-36.6c117.2-18,150-109.7,178.8-190.6
			c14.4-40.3,28-78.3,50.8-101.1c25.4-25.4,59.4-29.4,107.2-12.7c33.2,11.6,41.7,64.6,52.4,131.6c16.6,103.9,37.2,233.1,158.1,290.8
			l0.3,0.2c3.8,1.8,7.8,3.7,11.9,5.3c47.7,18.1,84.7,20.2,113.1,6.6c43.1-20.7,60.5-74.1,78.8-130.7c15.6-48,31.7-97.7,65.1-127.5
			c62.2-55.7,155.5-23.5,263.6,13.9c126.5,43.7,269.9,93.3,410.4,23.1l0.3,0.7c-62.8,31.4-131.9,41.5-211.4,31.1
			c-69.5-9.2-135.6-32-199.5-54.1c-107.8-37.3-201-69.5-262.9-14c-33.2,29.7-49.3,79.3-64.9,127.2c-18.4,56.7-35.8,110.3-79.2,131.1
			c-28.6,13.7-65.8,11.6-113.7-6.6c-4.1-1.6-8.1-3.5-11.9-5.3l-0.3-0.2C68.8,924.2,30,881.9,4,820.6
			c-22.4-52.9-31.7-110.9-39.9-162.1C-46.6,591.7-55,539-87.8,527.5c-47.5-16.6-81.3-12.6-106.4,12.5
			c-22.7,22.7-36.2,60.7-50.6,100.9c-14.6,40.9-29.7,83.3-56.3,118.8c-30.4,40.6-70.6,64.2-123.1,72.3
			c-44.1,6.8-84.8,18.7-124.4,36.5c-21.9,9.8-54.1,24.2-91.4,40.8C-814,986.9-1105,1116.8-1152.3,1142.1z"/>
		
			<linearGradient id="SVGID_00000106830822284084266720000003099739346962924168_" gradientUnits="userSpaceOnUse" x1="-948.5927" y1="-433.6357" x2="820.104" y2="696.2867" gradientTransform="matrix(1 0 0 -1 0 1077.8899)">
			<stop  offset="0" style="stop-color:#184592"/>
			<stop  offset="0.1951" style="stop-color:#1D539C"/>
			<stop  offset="0.5668" style="stop-color:#2C79B7"/>
			<stop  offset="1" style="stop-color:#41ADDD"/>
		</linearGradient>
		<path style="fill:url(#SVGID_00000106830822284084266720000003099739346962924168_);" d="M-1194.9,1126l-0.4-0.7
			c33.6-18,185.2-69.4,331.8-119.1c126-42.7,256.3-86.9,310.7-109.5c48.6-20.2,91.9-32.1,124.2-40.3
			c114.5-28.8,141.4-122.6,165.1-205.4c12-41.9,23.4-81.6,45.3-106.1c24.3-27.2,59.2-33.2,109.7-18.7c32.6,9.3,42.7,61.8,55.6,128.3
			c19.4,100.3,46,237.7,171.4,292.3c4.6,2,8.4,3.6,12.6,5.1c49.5,17.1,87.4,18,115.8,2.9c43.3-23.1,58.8-81.7,73.7-138.4
			c13.2-50,26.8-101.7,59.4-130.8c25.6-22.9,58.9-28.8,104.8-18.5c41.3,9.2,89.1,30.7,139.7,53.5c127.6,57.5,286.5,129,441.9,46.6
			l0.4,0.7c-69.3,36.8-144.9,46.5-231,29.6c-74.9-14.6-147.5-47.3-211.6-76.2c-50.6-22.8-98.3-44.3-139.5-53.5
			c-45.6-10.2-78.7-4.4-104.1,18.3c-32.4,28.9-46,80.5-59.2,130.4c-15,56.8-30.5,115.6-74.1,138.9c-28.6,15.3-66.7,14.3-116.4-2.8
			c-4.2-1.4-8-3.1-12.6-5.1C62.4,923.2,21.3,881.1-7.4,819c-24.7-53.5-36.1-112.4-46.2-164.4c-12.8-66.2-22.9-118.5-55.1-127.7
			c-50.2-14.3-84.8-8.5-109,18.5c-21.8,24.4-33.1,63.9-45.1,105.8c-12,41.9-24.4,85.2-48.5,122.8c-27.6,43-65.9,70.2-117.2,83.1
			c-32.2,8.1-75.5,20-124.1,40.2c-54.4,22.6-184.7,66.8-310.7,109.6C-1009.8,1056.6-1161.3,1108-1194.9,1126z"/>
		
			<linearGradient id="SVGID_00000165203579612505307910000011624414691392905889_" gradientUnits="userSpaceOnUse" x1="-975.1787" y1="-442.6006" x2="804.3636" y2="694.2427" gradientTransform="matrix(1 0 0 -1 0 1077.8899)">
			<stop  offset="0" style="stop-color:#184592"/>
			<stop  offset="0.1951" style="stop-color:#1D539C"/>
			<stop  offset="0.5668" style="stop-color:#2C79B7"/>
			<stop  offset="1" style="stop-color:#41ADDD"/>
		</linearGradient>
		<path style="fill:url(#SVGID_00000165203579612505307910000011624414691392905889_);" d="M-1237.5,1109.9l-0.4-0.7
			c35.4-19,193.1-57.3,345.6-94.4c138.4-33.7,281.5-68.5,335.6-89.2c33.4-12.8,63.7-23.2,90.5-32.4c11.7-4,22.8-7.8,33.2-11.5
			c111.8-39.6,132.9-135.5,151.6-220.2c12.5-56.6,23.3-105.5,58.9-128.1c22.2-14.2,52.7-16.7,93-7.7c32,7.2,43.8,59.2,58.8,125.2
			c23.1,102.1,54.8,242,184.8,293.5c3.9,1.5,8.4,3.3,12.9,4.7c51.3,16.1,90.1,15.9,118.6-0.8c43.7-25.7,56.5-87.2,68.8-146.7
			c10.7-51.7,21.8-105.2,53.4-133.3c23-20.5,53.4-23.7,95.8-10.2c38.2,12.2,83.3,37.2,130.9,63.7c134.4,74.7,301.6,167.7,472.1,72.6
			l0.4,0.7c-170.8,95.2-338.2,2.2-472.8-72.6c-47.6-26.5-92.6-51.5-130.8-63.7c-42.1-13.5-72.3-10.3-95.1,10
			c-31.4,28-42.5,81.3-53.2,132.9C302.8,861.3,290,923,246,948.8c-28.6,16.8-67.6,17.1-119.2,0.9c-4.6-1.4-9.1-3.2-13-4.7
			C56,922.1,12.6,880.4-18.9,817.5C-45.9,763.5-59.5,703.7-71.4,651c-14.9-65.7-26.6-117.5-58.2-124.6c-40.1-9-70.3-6.5-92.4,7.6
			c-35.3,22.5-46.1,71.2-58.5,127.7c-9.4,42.8-19.2,87.1-40.9,126.8c-24.8,45.5-61.2,76.2-111.2,93.9c-10.5,3.7-21.5,7.5-33.2,11.5
			c-26.7,9.2-57.1,19.6-90.5,32.4c-54.2,20.8-197.3,55.6-335.7,89.3C-1044.5,1052.6-1202.2,1091-1237.5,1109.9z"/>
		
			<linearGradient id="SVGID_00000005951670073553285990000006857880378476093864_" gradientUnits="userSpaceOnUse" x1="-1001.7611" y1="-451.5691" x2="788.6208" y2="692.2007" gradientTransform="matrix(1 0 0 -1 0 1077.8899)">
			<stop  offset="0" style="stop-color:#184592"/>
			<stop  offset="0.1951" style="stop-color:#1D539C"/>
			<stop  offset="0.5668" style="stop-color:#2C79B7"/>
			<stop  offset="1" style="stop-color:#41ADDD"/>
		</linearGradient>
		<path style="fill:url(#SVGID_00000005951670073553285990000006857880378476093864_);" d="M-1280.1,1093.8l-0.4-0.7
			c38.3-20.5,209.3-47.6,374.6-73.8c144.3-22.9,293.6-46.6,345.5-64.8c50.5-17.7,90.8-32.6,123.3-47.6
			c108.9-50.4,124.5-148.4,138.2-234.9c9.2-58.1,17.2-108.3,52.1-133.4c22.1-16,53.7-20.4,96.4-13.5c31.6,5.1,45,56.9,61.9,122.4
			c26.9,103.9,63.7,246.1,198.2,294.4c3.8,1.4,8.4,3,13.3,4.3c53.2,15.2,92.9,13.7,121.4-4.6c44.3-28.3,54.3-93.1,64-155.7
			c8.6-55.6,16.8-108.1,47.4-135.3c44.8-39.8,117.7,8.5,210,69.7c140.6,93.2,315.5,209.2,501.2,101.1l0.4,0.6
			c-82.6,48.1-170.7,56-269.4,24.2c-85.1-27.5-163.5-79.4-232.6-125.3c-92-61-164.7-109.2-209.1-69.7c-30.4,27-38.5,79.4-47.1,134.8
			c-9.7,62.8-19.8,127.7-64.4,156.2c-28.7,18.4-68.6,19.9-122,4.7c-4.8-1.4-9.4-3-13.3-4.4C-25.4,894.2-62.3,751.7-89.2,647.7
			c-16.9-65.3-30.2-116.8-61.3-121.8c-42.6-6.9-73.9-2.5-95.9,13.3c-34.6,25-42.5,75-51.8,133c-6.6,41.6-14.1,88.8-33.4,130.7
			c-22.1,47.9-56.5,82.2-105.2,104.7c-32.5,15-72.8,29.9-123.3,47.7c-52,18.2-194.6,40.9-345.6,64.8
			C-1071,1046.2-1241.9,1073.3-1280.1,1093.8z"/>
		
			<linearGradient id="SVGID_00000176036995250365540990000012649387227206799761_" gradientUnits="userSpaceOnUse" x1="-1028.3344" y1="-460.5327" x2="772.8691" y2="690.1555" gradientTransform="matrix(1 0 0 -1 0 1077.8899)">
			<stop  offset="0" style="stop-color:#184592"/>
			<stop  offset="0.1951" style="stop-color:#1D539C"/>
			<stop  offset="0.5668" style="stop-color:#2C79B7"/>
			<stop  offset="1" style="stop-color:#41ADDD"/>
		</linearGradient>
		<path style="fill:url(#SVGID_00000176036995250365540990000012649387227206799761_);" d="M-1322.7,1077.6l-0.4-0.7
			c41.7-22.3,228.5-37.9,409.2-53c154.6-12.9,300.5-25,349.7-40.6c50.7-16.1,90.9-32.9,122.8-51.3c105.8-61.1,116-161.2,125-249.4
			c4.7-46.3,9.2-90,28.3-119.3c21.1-32.5,58.2-44.8,116.8-38.8c31.2,3.2,46.2,54.7,65.1,120c30.6,105.6,72.6,250.1,211.5,294.8
			c4.9,1.6,9.4,2.9,13.6,4c55.1,14.2,95.7,11.4,124.3-8.4c44.9-31.1,52.2-99.3,59.2-165.2c6.1-56.9,11.8-110.6,41.2-136.7
			c39.9-35.4,107.9,17.1,194,83.5c138.6,107,328.4,253.4,529.6,131.9l0.4,0.6c-89.4,54-183.7,60.6-288.5,20.1
			c-89.9-34.7-170.7-97-241.9-152c-85.8-66.2-153.6-118.5-193-83.6c-29.2,25.9-34.9,79.5-41,136.2c-7.1,66.1-14.4,134.4-59.6,165.7
			c-28.8,19.9-69.6,22.7-124.9,8.5c-4.3-1.1-8.7-2.4-13.6-4c-139.3-44.8-181.3-189.6-212-295.4c-18.9-65-33.8-116.3-64.5-119.5
			c-58.2-6-95.1,6.3-116.1,38.5c-19,29.2-23.4,72.8-28.2,119c-4.3,42.4-9.2,90.5-26.2,134.5c-19.4,50.4-51.9,88.2-99.2,115.5
			c-32,18.5-72.2,35.3-123,51.4c-49.2,15.6-195.3,27.8-349.8,40.7C-1094.4,1039.8-1281.2,1055.4-1322.7,1077.6z"/>
		
			<linearGradient id="SVGID_00000170961303030748295560000004600131433695332253_" gradientUnits="userSpaceOnUse" x1="-1054.9208" y1="-469.498" x2="757.1304" y2="688.1135" gradientTransform="matrix(1 0 0 -1 0 1077.8899)">
			<stop  offset="0" style="stop-color:#184592"/>
			<stop  offset="0.1951" style="stop-color:#1D539C"/>
			<stop  offset="0.5668" style="stop-color:#2C79B7"/>
			<stop  offset="1" style="stop-color:#41ADDD"/>
		</linearGradient>
		<path style="fill:url(#SVGID_00000170961303030748295560000004600131433695332253_);" d="M-1365.3,1061.5l-0.4-0.7
			c45.3-24.3,249.6-27.5,447.2-30.7c156.4-2.5,304.2-4.8,350.4-17.9c221.9-62.7,228.8-204.7,234.3-318.9
			c2.4-49.6,4.5-92.4,22.6-123.3c20-34.2,57.8-48.8,118.8-46.2c31,1.4,47.6,52.8,68.5,117.9c35.7,111,84.6,263,238.6,298.6
			c56.9,13.2,98.5,9.2,127.2-12.2c45.7-34.1,50.1-105.8,54.4-175.2c3.6-57.9,6.9-112.6,35.1-137.5c16.3-14.4,39.2-11.5,72.2,9.1
			c30,18.7,65.4,49.9,106.3,86.1c69.4,61.2,155.7,137.4,250.3,180c110.6,49.8,211.1,44.8,307.1-15.1l0.4,0.6
			c-51,31.9-104.6,48.4-159.2,49c-48.1,0.6-96.7-10.5-148.6-33.9C665.4,848.8,579,772.6,509.6,711.3c-40.9-36.1-76.3-67.3-106.2-86
			C370.7,605,348,602,332,616.2c-28,24.7-31.3,79.2-34.9,137c-4.3,69.6-8.7,141.5-54.7,175.7c-28.9,21.5-70.7,25.5-127.8,12.3
			C46.3,925.4-7.5,885.6-49.6,819.6c-36-56.5-57.6-123.6-74.9-177.5c-20.9-64.8-37.3-116.1-67.8-117.4
			C-324.5,518.9-328.2,596-333,693.5c-5.5,114.4-12.4,256.7-234.9,319.5c-46.4,13.1-194.2,15.4-350.6,17.9
			C-1115.9,1034.1-1320.2,1037.3-1365.3,1061.5z"/>
	</g>
</g>
</svg>
