<svg viewBox="0 0 1920 1080" fill="none" xmlns="http://www.w3.org/2000/svg">
<g opacity="0.19">
<mask id="mask0_160_3" style="mask-type:luminance" maskUnits="userSpaceOnUse" x="0" y="0" width="1920" height="1080">
<path d="M1920 0H0V1080H1920V0Z" fill="white"/>
</mask>
<g mask="url(#mask0_160_3)">
<path d="M1950.59 -364.302C1809.86 -337.966 2251.44 516.971 1877.71 533.153C1690.86 541.243 1673.04 321.417 1544.88 321.083C1367.29 320.619 1549.83 597.756 1247.09 692.69C931.276 791.729 1690.91 1278.11 1690.91 1278.11" stroke="url(#paint0_linear_160_3)" stroke-width="0.75" stroke-miterlimit="10"/>
<path d="M1970.61 -351.077C1853.27 -309.23 2119.82 300.536 1967.11 474.91C1944.44 500.794 1913.8 517.472 1870.73 520.711C1727.52 531.482 1697.62 391.309 1611.59 349.064C1595.64 341.235 1578.46 336.038 1558.46 336.497C1381.17 340.57 1538.18 586.53 1252.73 685.13C1102.66 736.968 1207.44 866.755 1332.2 1000.68C1468.62 1147.13 1656.5 1295.18 1655.75 1299.81" stroke="url(#paint1_linear_160_3)" stroke-width="0.75" stroke-miterlimit="10"/>
<path d="M1990.64 -337.853C1878.69 -277.127 2091.61 289.259 1950.24 460.505C1928.95 486.295 1902.14 503.873 1863.76 508.27C1734.51 523.073 1712.65 397.075 1624.38 362.023C1608.49 355.711 1591.65 350.951 1572.04 351.912C1395.01 360.59 1526.69 576.452 1258.36 677.57C1105.74 735.086 1227.13 862.214 1342.36 1004.86C1461.71 1152.62 1622.09 1312.26 1620.59 1321.51" stroke="url(#paint2_linear_160_3)" stroke-width="0.75" stroke-miterlimit="10"/>
<path d="M2010.66 -324.628C1904.11 -245.024 2063.45 278.125 1933.38 446.1C1913.46 471.816 1890.52 490.289 1856.79 495.828C1741.6 514.742 1728.08 402.802 1637.18 374.983C1621.4 370.153 1604.84 365.875 1585.62 367.327C1408.82 380.686 1515.4 567.453 1264 670.011C1108.65 733.386 1246.23 856.394 1352.52 1009.03C1455.33 1156.67 1587.68 1329.34 1585.43 1343.21" stroke="url(#paint3_linear_160_3)" stroke-width="0.75" stroke-miterlimit="10"/>
<path d="M2030.69 -311.403C1929.53 -212.921 2035.35 267.145 1916.51 431.696C1897.97 457.358 1878.93 476.72 1849.81 483.386C1748.82 506.503 1743.88 408.39 1649.97 387.942C1634.37 384.544 1618.02 380.81 1599.19 382.742C1422.6 400.865 1504.33 559.457 1269.64 662.451C1111.41 731.884 1264.99 849.276 1362.68 1013.21C1449.74 1159.32 1553.26 1346.42 1550.27 1364.91" stroke="url(#paint4_linear_160_3)" stroke-width="0.75" stroke-miterlimit="10"/>
<path d="M2050.72 -298.178C1954.95 -180.819 2007.33 256.329 1899.64 417.291C1882.49 442.922 1867.43 463.161 1842.84 470.945C1756.26 498.352 1760 413.737 1662.77 400.902C1647.39 398.872 1631.2 395.757 1612.77 398.157C1436.36 421.131 1493.51 552.389 1275.27 654.891C1114.07 730.601 1318.65 827.25 1372.83 1017.38C1470.91 1144.42 1518.85 1363.5 1515.11 1386.61" stroke="url(#paint5_linear_160_3)" stroke-width="0.75" stroke-miterlimit="10"/>
<path d="M2070.74 -284.954C1980.37 -148.716 1979.42 245.686 1882.77 402.886C1867.02 428.512 1856.03 449.591 1835.86 458.504C1764.05 490.236 1776.37 418.75 1675.57 413.861C1660.45 413.128 1644.38 410.715 1626.35 413.572C1450.11 441.491 1482.96 546.171 1280.91 647.331C1116.67 729.558 1344.99 818.679 1382.99 1021.55C1469.95 1145.23 1484.44 1380.58 1479.95 1408.32" stroke="url(#paint6_linear_160_3)" stroke-width="0.75" stroke-miterlimit="10"/>
<path d="M2090.77 -271.729C2005.8 -116.613 1951.65 235.219 1865.9 388.481C1851.56 414.127 1844.81 435.954 1828.89 446.062C1772.34 481.96 1792.87 423.356 1688.36 426.82C1673.53 427.312 1657.56 425.685 1639.93 428.987C1463.86 461.951 1472.68 540.725 1286.54 639.771C1119.26 728.786 1371.33 810.109 1393.15 1025.73C1468.99 1146.05 1450.03 1397.65 1444.79 1430.02" stroke="url(#paint7_linear_160_3)" stroke-width="0.75" stroke-miterlimit="10"/>
<path d="M2110.8 -258.504C2031.22 -84.5105 1924.05 224.929 1849.04 374.076C1836.11 399.77 1833.8 422.122 1821.91 433.62C1781.16 473.035 1809.4 427.51 1701.16 439.78C1686.62 441.428 1670.74 440.666 1653.5 444.401C1477.61 482.514 1462.67 535.98 1292.18 632.211C1121.88 728.327 1397.67 801.539 1403.31 1029.9C1468.02 1146.87 1415.62 1414.73 1409.63 1451.72" stroke="url(#paint8_linear_160_3)" stroke-width="0.75" stroke-miterlimit="10"/>
<path d="M2130.82 -245.28C2056.64 -52.4078 1896.64 214.808 1832.17 359.672C1820.7 385.439 1820.22 406.62 1814.94 421.179C1782.53 457.189 1825.85 431.201 1713.95 452.739C1699.69 455.484 1683.93 455.658 1667.08 459.816C1491.38 503.187 1452.96 531.864 1297.81 624.651C1124.62 728.232 1424.01 792.969 1413.47 1034.08C1467.06 1147.69 1381.21 1431.81 1374.47 1473.42" stroke="url(#paint9_linear_160_3)" stroke-width="0.75" stroke-miterlimit="10"/>
<path d="M2150.85 -232.055C2082.06 -20.3052 1869.47 204.84 1815.3 345.267C1805.32 371.133 1808.53 392.79 1807.97 408.737C1789.41 447.993 1842.1 434.449 1726.75 465.698C1712.74 469.493 1697.11 470.66 1680.66 475.231C1505.19 523.971 1443.52 528.309 1303.45 617.091C1127.56 728.573 1450.35 784.398 1423.63 1038.25C1466.1 1148.5 1346.8 1448.89 1339.31 1495.12" stroke="url(#paint10_linear_160_3)" stroke-width="0.75" stroke-miterlimit="10"/>
<path d="M2170.88 -218.83C2107.48 11.7975 1842.57 194.997 1798.43 330.862C1789.99 356.85 1799.88 378.504 1800.99 396.296C1803.67 438.972 1858.1 437.302 1739.54 478.658C1725.76 483.466 1710.3 485.673 1694.23 490.646C1519.03 544.869 1434.39 525.248 1309.08 609.532C1130.8 729.449 1476.69 775.828 1433.79 1042.43C1465.13 1149.32 1312.39 1465.97 1304.15 1516.82" stroke="url(#paint11_linear_160_3)" stroke-width="0.75" stroke-miterlimit="10"/>
<path d="M2190.9 -205.605C2132.9 43.9003 1815.96 185.239 1781.57 316.457C1774.72 342.583 1787.5 364.186 1794.02 383.854C1808.7 428.136 1873.79 439.826 1752.34 491.617C1738.74 497.415 1723.5 500.696 1707.81 506.061C1532.92 565.884 1425.55 522.615 1314.72 601.972C1134.52 730.996 1503.03 767.258 1443.95 1046.6C1464.17 1150.14 1277.98 1483.05 1268.99 1538.53" stroke="url(#paint12_linear_160_3)" stroke-width="0.75" stroke-miterlimit="10"/>
<path d="M2210.93 -192.381C2158.32 76.003 1789.66 175.512 1764.7 302.052C1759.51 328.325 1775.05 350.307 1787.04 371.413C1813.79 418.469 1889.15 442.096 1765.13 504.576C1751.69 511.351 1736.7 515.727 1721.39 521.476C1546.87 587.014 1417.03 520.34 1320.35 594.412C1138.94 733.408 1478.46 750.13 1454.11 1050.77C1445.99 1151.04 1243.57 1500.12 1233.83 1560.23" stroke="url(#paint13_linear_160_3)" stroke-width="0.75" stroke-miterlimit="10"/>
<path d="M2230.95 -179.156C2183.74 108.106 1763.7 165.746 1747.83 287.647C1744.39 314.062 1762.75 336.661 1780.07 358.971C1819.28 409.474 1904.17 444.19 1777.93 517.536C1764.6 525.281 1749.9 530.767 1734.97 536.891C1560.9 608.26 1408.85 518.341 1325.99 586.852C1144.43 736.961 1513.77 740.57 1464.27 1054.95C1449.21 1150.61 1209.16 1517.2 1198.67 1581.93" stroke="url(#paint14_linear_160_3)" stroke-width="0.75" stroke-miterlimit="10"/>
<path d="M2250.98 -165.931C2209.16 140.208 1738.05 155.86 1730.96 273.243C1729.36 299.781 1750.61 323.096 1773.09 346.53C1825.14 400.775 1918.88 446.175 1790.72 530.495C1777.47 539.213 1763.11 545.814 1748.54 552.306C1575.02 629.619 1401.07 516.518 1331.62 579.292C1151.55 742.059 1551.94 732.887 1474.43 1059.12C1452.61 1150.95 1174.75 1534.28 1163.52 1603.63" stroke="url(#paint15_linear_160_3)" stroke-width="0.75" stroke-miterlimit="10"/>
<path d="M2271.01 -152.707C2234.58 172.311 1712.71 145.766 1714.09 258.838C1714.42 285.463 1738.6 309.545 1766.12 334.088C1831.27 392.184 1933.3 448.112 1803.52 543.454C1790.32 553.151 1776.33 560.867 1762.12 567.72C1589.23 651.087 1393.77 514.728 1337.26 571.732C1161.25 749.276 1592.49 727.446 1484.59 1063.3C1456.05 1152.14 1140.34 1551.36 1128.36 1625.33" stroke="url(#paint16_linear_160_3)" stroke-width="0.75" stroke-miterlimit="10"/>
<path d="M2291.03 -139.482C2260 204.414 1687.62 135.373 1697.23 244.433C1705.24 335.452 2001.79 406 1816.31 556.414C1639.53 699.786 1390.64 508.599 1342.89 564.172C1175.18 759.382 1634.73 724.407 1494.75 1067.47C1459.35 1154.22 1105.93 1568.44 1093.2 1647.03" stroke="url(#paint17_linear_160_3)" stroke-width="0.75" stroke-miterlimit="10"/>
<path d="M851.837 891.17C732.406 913.45 807.535 43.9138 507.534 148.937C357.546 201.444 413.74 394.591 312.747 435.622C172.796 492.481 228.227 198.087 -40.9338 213.372C-321.73 229.319 122.095 -427.012 122.095 -427.012" stroke="url(#paint18_linear_160_3)" stroke-width="0.75" stroke-miterlimit="10"/>
<path d="M863.409 873.524C780.201 870.9 761.816 522.418 688.065 305.548C651.374 197.45 605.309 122.123 507.846 150.995C484.399 157.941 465.544 168.612 449.927 181.738C368.926 249.818 388.443 388.392 304.553 424.176C258.862 443.802 234.059 427.128 211.358 395.242C161.011 324.522 138.168 197.08 -32.2569 199.213C-103.539 200.105 -127.337 155.489 -123.075 88.6163C-111.874 -87.1089 89.4913 -430.637 87.4231 -434.342" stroke="url(#paint19_linear_160_3)" stroke-width="0.75" stroke-miterlimit="10"/>
<path d="M874.981 855.878C788.575 835.703 744.496 524.056 673.65 314.736C638.037 209.115 604.16 129.99 508.159 153.053C485.32 158.54 466.358 167.843 450.036 179.668C366.488 240.196 379.241 375.42 296.358 412.729C250.771 433.25 225.953 419.134 202.88 388.822C147.582 316.173 136.387 191.07 -23.5801 185.054C-90.4026 182.541 -114.963 137.963 -113.216 71.515C-108.78 -97.1794 56.8872 -434.262 52.7508 -441.672" stroke="url(#paint20_linear_160_3)" stroke-width="0.75" stroke-miterlimit="10"/>
<path d="M886.553 838.232C796.948 800.507 727.176 525.694 659.235 323.924C624.7 220.78 603.118 137.89 508.471 155.111C486.265 159.152 467.203 167.075 450.145 177.598C364.214 230.607 370.087 362.571 288.164 401.282C242.705 422.763 217.728 411.198 194.403 382.402C133.997 307.827 134.741 185.081 -14.9033 170.895C-77.2176 164.988 -102.535 120.526 -103.357 54.4139C-105.366 -107.09 24.283 -437.887 18.0785 -449.002" stroke="url(#paint21_linear_160_3)" stroke-width="0.75" stroke-miterlimit="10"/>
<path d="M898.125 820.586C805.322 765.311 709.857 527.331 644.82 333.112C611.363 232.445 602.182 145.844 508.784 157.169C487.232 159.783 468.079 166.315 450.253 175.528C362.1 221.086 360.937 349.737 279.969 389.835C234.642 412.283 209.402 403.32 185.925 375.982C120.259 299.515 133.25 179.142 -6.22627 156.736C-63.9766 147.459 -90.0369 103.173 -93.4985 37.3125C-101.602 -116.859 -8.32111 -441.512 -16.5938 -456.332" stroke="url(#paint22_linear_160_3)" stroke-width="0.75" stroke-miterlimit="10"/>
<path d="M909.697 802.94C813.696 730.114 692.537 528.969 630.405 342.3C598.026 244.11 601.348 153.878 509.097 159.227C488.222 160.438 468.984 165.572 450.362 173.458C360.132 211.668 351.793 336.918 271.775 378.389C226.581 401.812 200.99 395.497 177.447 369.562C106.369 291.262 131.931 173.294 2.45063 142.577C-50.6746 129.973 -77.4525 85.8961 -83.6397 20.2115C-97.4606 -126.512 -40.9252 -445.137 -51.266 -463.661" stroke="url(#paint23_linear_160_3)" stroke-width="0.75" stroke-miterlimit="10"/>
<path d="M921.269 785.294C822.069 694.918 675.217 530.607 615.989 351.489C584.689 255.774 600.604 162.018 509.409 161.285C489.23 161.123 469.913 164.852 450.471 171.388C358.284 202.379 342.653 324.112 263.58 366.942C218.523 391.348 192.506 387.725 168.969 363.142C92.329 283.096 130.79 167.595 11.1274 128.417C-37.312 112.558 -64.7629 68.6811 -73.7812 3.11024C-92.9246 -136.079 -73.5294 -448.762 -85.9384 -470.991" stroke="url(#paint24_linear_160_3)" stroke-width="0.75" stroke-miterlimit="10"/>
<path d="M932.841 767.648C830.443 659.722 657.897 532.245 601.574 360.677C571.352 267.439 599.93 170.293 509.722 163.343C490.253 161.844 470.86 164.161 450.58 169.318C356.524 193.237 333.52 311.321 255.386 355.495C210.468 380.891 183.963 380.002 160.491 356.722C78.1377 275.041 129.809 162.118 19.8043 114.258C-23.8981 95.2445 -51.9476 51.5115 -63.9226 -13.991C-87.9824 -145.597 -106.133 -452.386 -120.611 -478.321" stroke="url(#paint25_linear_160_3)" stroke-width="0.75" stroke-miterlimit="10"/>
<path d="M944.413 750.002C838.816 624.525 640.237 533.994 587.159 369.865C557.828 279.164 599.296 178.726 510.035 165.401C491.283 162.602 471.817 163.501 450.688 167.248C354.815 184.248 324.393 298.542 247.192 344.049C202.416 370.442 175.37 372.324 152.014 350.302C63.795 267.123 128.93 156.943 28.4812 100.099C-10.4571 78.0639 -38.9845 34.3652 -54.0638 -31.0921C-82.632 -155.103 -138.737 -456.011 -155.283 -485.651" stroke="url(#paint26_linear_160_3)" stroke-width="0.75" stroke-miterlimit="10"/>
<path d="M955.985 732.356C847.19 589.329 622.907 535.634 572.744 379.053C544.481 290.832 598.664 187.338 510.347 167.46C492.313 163.4 472.778 162.876 450.797 165.178C353.121 175.408 315.273 285.776 238.997 332.602C194.369 360 166.736 364.689 143.536 343.882C49.2992 259.367 128.047 152.139 37.1579 85.9402C2.97016 61.0396 -25.851 17.2149 -44.2052 -48.1933C-76.8817 -164.641 -171.342 -459.636 -189.955 -492.98" stroke="url(#paint27_linear_160_3)" stroke-width="0.75" stroke-miterlimit="10"/>
<path d="M967.557 714.71C855.563 554.133 605.587 537.271 558.329 388.241C531.14 302.497 597.993 196.137 510.66 169.518C493.335 164.237 473.737 162.283 450.906 163.108C351.411 166.704 306.161 273.021 230.803 321.155C186.326 349.565 158.071 357.095 135.058 337.462C34.6494 251.799 127.004 147.733 45.8348 71.7809C16.3303 44.1728 -12.5234 0.0269542 -34.3465 -65.2946C-70.7498 -174.258 -203.946 -463.261 -224.627 -500.31" stroke="url(#paint28_linear_160_3)" stroke-width="0.75" stroke-miterlimit="10"/>
<path d="M979.129 697.064C863.937 518.936 588.277 538.905 543.914 397.429C517.804 314.161 597.238 205.12 510.973 171.576C494.341 165.108 474.686 161.72 451.015 161.038C349.659 158.119 297.056 260.277 222.608 309.709C178.288 339.136 149.38 349.539 126.58 331.042C19.8441 244.447 125.624 143.683 54.5117 57.6218C29.5685 27.4354 1.02106 -17.2385 -24.4879 -82.3958C-64.2657 -184 -236.55 -466.886 -259.3 -507.64" stroke="url(#paint29_linear_160_3)" stroke-width="0.75" stroke-miterlimit="10"/>
<path d="M990.701 679.418C872.311 483.74 570.978 540.535 529.499 406.617C504.475 325.823 596.357 214.274 511.286 173.634C495.324 166.008 475.621 161.183 451.123 158.968C347.847 149.631 287.961 247.544 214.414 298.262C170.256 328.714 140.67 342.019 118.102 324.622C4.88207 237.34 123.762 139.862 63.1886 43.4626C42.646 10.7698 14.8033 -34.6286 -14.6293 -99.497C-57.47 -193.916 -269.154 -470.511 -293.972 -514.97" stroke="url(#paint30_linear_160_3)" stroke-width="0.75" stroke-miterlimit="10"/>
<path d="M1002.27 661.772C880.684 448.544 553.691 542.161 515.084 415.805C491.153 337.482 595.317 223.571 511.598 175.692C496.278 166.93 476.541 160.668 451.232 156.898C345.964 141.219 278.874 234.82 206.219 286.816C162.229 318.298 131.948 334.534 109.625 318.202C-10.2367 230.505 121.354 136.091 71.8655 29.3036C55.5534 -5.89519 28.8398 -52.197 -4.77047 -116.598C-50.4139 -204.056 -301.758 -474.135 -328.644 -522.3" stroke="url(#paint31_linear_160_3)" stroke-width="0.75" stroke-miterlimit="10"/>
<path d="M1013.85 644.126C889.058 413.347 536.419 543.784 500.669 424.993C477.841 349.139 594.096 232.977 511.911 177.75C497.2 167.864 477.443 160.17 451.341 154.828C344.004 132.863 269.796 222.104 198.025 275.369C154.207 307.888 123.218 327.083 101.147 311.782C-25.5117 223.975 118.445 132.187 80.5425 15.1444C68.3116 -22.624 43.1389 -70.0027 5.08823 -133.699C-43.1604 -214.467 -334.362 -477.76 -363.316 -529.629" stroke="url(#paint32_linear_160_3)" stroke-width="0.75" stroke-miterlimit="10"/>
<path d="M1025.42 626.479C897.431 378.151 519.339 545.349 486.254 434.181C464.657 360.757 592.685 242.45 512.223 179.808C498.09 168.804 478.328 159.684 451.449 152.758C341.966 124.546 260.727 209.397 189.83 263.922C146.192 297.483 114.487 319.663 92.6686 305.362C-40.9408 217.78 115.159 128.02 89.2191 0.985183C80.9608 -39.4577 57.6974 -88.1076 14.9466 -150.801C-35.7822 -225.193 -366.966 -481.385 -397.989 -536.959" stroke="url(#paint33_linear_160_3)" stroke-width="0.75" stroke-miterlimit="10"/>
<path d="M1036.99 608.833C905.805 342.955 502.019 546.987 471.839 443.369C451.321 372.422 591.088 251.952 512.536 181.866C498.948 169.742 479.195 159.208 451.558 150.688C339.854 116.252 251.732 196.779 181.636 252.475C138.223 287.135 105.759 312.275 84.191 298.942C-56.5187 211.954 111.648 123.533 97.8961 -13.174C93.5466 -56.4115 72.4968 -106.571 24.8054 -167.902C-28.3605 -236.273 -399.57 -485.01 -432.661 -544.289" stroke="url(#paint34_linear_160_3)" stroke-width="0.75" stroke-miterlimit="10"/>
<path d="M1048.56 591.188C914.178 307.758 484.699 548.625 457.424 452.558C434.66 372.382 646.052 217.931 451.667 148.618C266.382 82.5503 131.14 324.737 75.7131 292.522C-118.982 179.359 254.729 63.0775 34.6641 -185.003C-20.9835 -247.735 -432.174 -488.635 -467.333 -551.619" stroke="url(#paint35_linear_160_3)" stroke-width="0.75" stroke-miterlimit="10"/>
<path d="M1062.86 414.828C949.057 307.863 427.295 1301.06 175.452 979.276C49.5415 818.401 244.317 648.346 163.472 533.879C51.4412 375.256 -92.7459 732.324 -373.449 529.06C-666.288 317.009 -641.15 1335.23 -641.15 1335.23" stroke="url(#paint36_linear_160_3)" stroke-width="0.75" stroke-miterlimit="10"/>
<path d="M1063.15 441.953C976.168 391.671 742.182 699.432 525.625 895.642C397.526 1011.68 282.084 1091.96 179.508 986.237C176.626 983.267 173.842 980.093 171.061 976.803C38.9339 821.45 225.174 639.892 142.544 533.317C24.7483 381.387 -101.729 738.112 -377.686 554.269C-429.408 519.811 -471.775 522.054 -506.723 550.116C-659.798 673.026 -678.95 1316.53 -683.758 1319.11" stroke="url(#paint37_linear_160_3)" stroke-width="0.75" stroke-miterlimit="10"/>
<path d="M1063.43 469.079C960.514 435.285 722.542 688.896 513.511 878.159C388.402 991.376 286.839 1087.4 175.462 983.402C172.438 980.578 169.57 977.489 166.669 974.33C28.7185 824.137 205.73 631.463 121.615 532.754C-2.2864 387.355 -110.553 743.94 -381.922 579.478C-432.512 548.818 -474.768 551.525 -510.549 579.024C-661.389 694.954 -716.751 1297.84 -726.367 1302.99" stroke="url(#paint38_linear_160_3)" stroke-width="0.75" stroke-miterlimit="10"/>
<path d="M1063.72 496.204C944.86 478.898 702.903 678.361 501.396 860.676C379.279 971.078 291.828 1082.77 171.416 980.566C168.257 977.884 165.293 974.889 162.278 971.857C18.2487 827.018 185.966 623.097 100.687 532.192C-29.693 393.21 -119.193 749.79 -386.158 604.687C-435.583 577.823 -477.735 581.007 -514.374 607.933C-662.814 717.02 -754.551 1279.14 -768.975 1286.87" stroke="url(#paint39_linear_160_3)" stroke-width="0.75" stroke-miterlimit="10"/>
<path d="M1064 523.33C929.206 522.511 683.263 667.825 489.282 843.193C370.156 950.779 297.028 1078.04 167.37 977.73C164.082 975.187 161.015 972.29 157.887 969.384C7.74142 829.913 165.876 614.835 79.7585 531.63C-57.496 399.016 -127.621 755.636 -390.394 629.896C-438.616 606.821 -480.673 610.504 -518.199 636.842C-664.084 739.228 -792.352 1260.45 -811.583 1270.75" stroke="url(#paint40_linear_160_3)" stroke-width="0.75" stroke-miterlimit="10"/>
<path d="M1064.29 550.455C913.552 566.125 663.623 657.29 477.168 825.71C361.033 930.48 302.414 1073.16 163.323 974.894C159.912 972.485 156.736 969.691 153.495 966.911C-2.8012 832.829 145.461 606.715 58.83 531.067C-85.7127 404.85 -135.813 761.442 -394.63 655.105C-441.606 635.805 -483.583 640.021 -522.024 665.75C-665.205 761.582 -830.152 1241.75 -854.192 1254.63" stroke="url(#paint41_linear_160_3)" stroke-width="0.75" stroke-miterlimit="10"/>
<path d="M1064.57 577.581C897.898 609.738 643.983 646.755 465.054 808.227C351.91 910.181 307.96 1068.13 159.277 972.059C155.747 969.778 152.456 967.093 149.104 964.438C-13.3764 835.767 124.735 598.776 37.9015 530.505C-114.351 410.8 -143.75 767.155 -398.866 680.315C-444.551 664.764 -486.464 669.561 -525.85 694.659C-666.187 784.087 -867.953 1223.06 -896.8 1238.51" stroke="url(#paint42_linear_160_3)" stroke-width="0.75" stroke-miterlimit="10"/>
<path d="M1064.86 604.706C882.244 653.351 624.343 636.219 452.94 790.744C342.787 889.883 313.639 1062.91 155.231 969.223C151.585 967.067 148.176 964.495 144.713 961.965C-23.9808 838.733 103.722 591.05 16.9732 529.942C-143.406 416.969 -151.424 772.708 -403.102 705.524C-447.448 693.685 -489.317 699.131 -529.675 723.567C-667.043 806.744 -905.753 1204.36 -939.409 1222.39" stroke="url(#paint43_linear_160_3)" stroke-width="0.75" stroke-miterlimit="10"/>
<path d="M1065.15 631.832C866.59 696.965 604.703 625.684 440.825 773.261C333.664 869.584 319.426 1057.51 151.185 966.387C147.426 964.351 143.895 961.897 140.321 959.492C-34.611 841.73 82.458 583.566 -3.95515 529.38C-172.862 423.466 -158.846 778.02 -407.338 730.733C-450.302 722.557 -492.141 728.735 -533.5 752.476C-667.782 829.556 -943.554 1185.67 -982.017 1206.27" stroke="url(#paint44_linear_160_3)" stroke-width="0.75" stroke-miterlimit="10"/>
<path d="M1065.43 658.957C850.936 740.578 585.063 615.148 428.711 755.778C324.54 849.285 325.299 1051.92 147.138 963.552C143.268 961.632 139.614 959.301 135.93 957.019C-45.263 844.758 60.986 576.344 -24.8836 528.818C-202.686 430.409 -166.055 782.998 -411.574 755.942C-453.118 751.364 -494.937 758.381 -537.325 781.385C-668.417 852.526 -981.354 1166.97 -1024.63 1190.15" stroke="url(#paint45_linear_160_3)" stroke-width="0.75" stroke-miterlimit="10"/>
<path d="M1065.72 686.082C835.282 784.191 565.424 604.613 416.597 738.295C315.417 828.986 331.235 1046.13 143.092 960.716C139.111 958.909 135.332 956.705 131.539 954.546C-55.9327 847.821 39.3579 569.397 -45.812 528.255C-232.829 437.916 -173.125 787.549 -415.81 781.151C-455.911 780.094 -497.705 788.077 -541.15 810.293C-668.963 875.653 -1019.15 1148.28 -1067.23 1174.03" stroke="url(#paint46_linear_160_3)" stroke-width="0.75" stroke-miterlimit="10"/>
<path d="M1066 713.208C819.628 827.805 545.784 594.078 404.482 720.813C306.294 808.688 337.215 1040.15 139.046 957.88C134.955 956.182 131.05 954.11 127.147 952.073C-66.6161 850.92 17.6299 562.729 -66.7407 527.693C-263.225 446.099 -180.165 791.593 -420.046 806.36C-458.699 808.74 -500.446 817.829 -544.976 839.202C-669.434 898.939 -1056.96 1129.58 -1109.84 1157.91" stroke="url(#paint47_linear_160_3)" stroke-width="0.75" stroke-miterlimit="10"/>
<path d="M1066.29 740.333C803.974 871.418 526.144 583.542 392.368 703.33C297.171 788.389 343.223 1033.99 134.999 955.044C130.799 953.452 126.768 951.515 122.756 949.599C-77.3087 854.053 -4.13754 556.337 -87.6691 527.13C-293.787 455.062 -187.317 795.085 -424.282 831.569C-461.504 837.3 -503.161 847.647 -548.801 868.11C-669.845 922.383 -1094.76 1110.89 -1152.45 1141.79" stroke="url(#paint48_linear_160_3)" stroke-width="0.75" stroke-miterlimit="10"/>
<path d="M1066.57 767.459C788.32 915.031 506.504 573.007 380.254 685.847C288.048 768.09 349.242 1027.65 130.953 952.209C126.643 950.719 122.486 948.922 118.364 947.126C-88.0068 857.222 -25.8839 550.208 -108.597 526.568C-324.414 464.888 -194.737 798.032 -428.518 856.779C-464.352 865.783 -505.851 877.541 -552.626 897.019C-670.213 945.985 -1132.56 1092.19 -1195.06 1125.67" stroke="url(#paint49_linear_160_3)" stroke-width="0.75" stroke-miterlimit="10"/>
<path d="M1066.86 794.584C772.666 958.645 486.864 562.472 368.14 668.364C278.924 747.791 355.261 1021.14 126.907 949.373C122.487 947.984 118.203 946.329 113.973 944.653C-98.707 860.425 -47.5515 544.322 -129.526 526.006C-354.992 475.629 -202.572 800.501 -432.754 881.988C-467.264 894.204 -508.519 907.522 -556.452 925.928C-670.558 969.744 -1170.36 1073.5 -1237.67 1109.55" stroke="url(#paint50_linear_160_3)" stroke-width="0.75" stroke-miterlimit="10"/>
<path d="M1067.15 821.71C757.012 1002.26 467.224 551.936 356.026 650.881C269.801 727.493 361.269 1014.47 122.861 946.537C118.33 945.246 113.921 943.736 109.582 942.18C-109.406 863.661 -69.0849 538.653 -150.454 525.443C-385.395 487.303 -210.928 802.613 -436.99 907.197C-470.254 922.586 -511.167 937.602 -560.277 954.836C-670.899 993.659 -1208.16 1054.8 -1280.28 1093.43" stroke="url(#paint51_linear_160_3)" stroke-width="0.75" stroke-miterlimit="10"/>
<path d="M1067.43 848.835C741.358 1045.87 447.584 541.401 343.911 633.398C260.678 707.194 367.257 1007.65 118.814 943.702C114.172 942.507 109.638 941.149 105.19 939.707C-120.18 867.176 -90.4375 533.169 -171.383 524.881C-415.502 499.886 -219.856 804.525 -441.226 932.406C-473.331 950.952 -513.801 967.794 -564.102 983.745C-671.259 1017.73 -1245.96 1036.11 -1322.88 1077.31" stroke="url(#paint52_linear_160_3)" stroke-width="0.75" stroke-miterlimit="10"/>
<path d="M1067.72 875.961C725.704 1089.48 427.945 530.866 331.797 615.915C251.555 686.895 373.219 1000.7 114.768 940.866C-131.583 883.834 -109.981 527.903 -192.311 524.318C-481.509 511.728 -157.699 896.826 -567.927 1012.65C-671.661 1041.94 -1283.76 1017.41 -1365.49 1061.19" stroke="url(#paint53_linear_160_3)" stroke-width="0.75" stroke-miterlimit="10"/>
</g>
</g>
<defs>
<linearGradient id="paint0_linear_160_3" x1="1169.62" y1="802.197" x2="2262.09" y2="221.49" gradientUnits="userSpaceOnUse">
<stop stop-color="#184592"/>
<stop offset="0.19508" stop-color="#1D539C"/>
<stop offset="0.56681" stop-color="#2C79B7"/>
<stop offset="1" stop-color="#41ADDD"/>
</linearGradient>
<linearGradient id="paint1_linear_160_3" x1="1185.52" y1="807.786" x2="2277.99" y2="227.08" gradientUnits="userSpaceOnUse">
<stop stop-color="#184592"/>
<stop offset="0.19508" stop-color="#1D539C"/>
<stop offset="0.56681" stop-color="#2C79B7"/>
<stop offset="1" stop-color="#41ADDD"/>
</linearGradient>
<linearGradient id="paint2_linear_160_3" x1="1201" y1="813.2" x2="2293.74" y2="232.356" gradientUnits="userSpaceOnUse">
<stop stop-color="#184592"/>
<stop offset="0.19508" stop-color="#1D539C"/>
<stop offset="0.56681" stop-color="#2C79B7"/>
<stop offset="1" stop-color="#41ADDD"/>
</linearGradient>
<linearGradient id="paint3_linear_160_3" x1="1216.2" y1="818.563" x2="2309.49" y2="237.424" gradientUnits="userSpaceOnUse">
<stop stop-color="#184592"/>
<stop offset="0.19508" stop-color="#1D539C"/>
<stop offset="0.56681" stop-color="#2C79B7"/>
<stop offset="1" stop-color="#41ADDD"/>
</linearGradient>
<linearGradient id="paint4_linear_160_3" x1="1231.25" y1="824.006" x2="2325.24" y2="242.498" gradientUnits="userSpaceOnUse">
<stop stop-color="#184592"/>
<stop offset="0.19508" stop-color="#1D539C"/>
<stop offset="0.56681" stop-color="#2C79B7"/>
<stop offset="1" stop-color="#41ADDD"/>
</linearGradient>
<linearGradient id="paint5_linear_160_3" x1="1224.71" y1="840.931" x2="2340.98" y2="247.579" gradientUnits="userSpaceOnUse">
<stop stop-color="#184592"/>
<stop offset="0.19508" stop-color="#1D539C"/>
<stop offset="0.56681" stop-color="#2C79B7"/>
<stop offset="1" stop-color="#41ADDD"/>
</linearGradient>
<linearGradient id="paint6_linear_160_3" x1="1193.88" y1="870.773" x2="2356.72" y2="252.666" gradientUnits="userSpaceOnUse">
<stop stop-color="#184592"/>
<stop offset="0.19508" stop-color="#1D539C"/>
<stop offset="0.56681" stop-color="#2C79B7"/>
<stop offset="1" stop-color="#41ADDD"/>
</linearGradient>
<linearGradient id="paint7_linear_160_3" x1="1163.05" y1="900.615" x2="2372.45" y2="257.756" gradientUnits="userSpaceOnUse">
<stop stop-color="#184592"/>
<stop offset="0.19508" stop-color="#1D539C"/>
<stop offset="0.56681" stop-color="#2C79B7"/>
<stop offset="1" stop-color="#41ADDD"/>
</linearGradient>
<linearGradient id="paint8_linear_160_3" x1="1132.22" y1="930.457" x2="2388.18" y2="262.849" gradientUnits="userSpaceOnUse">
<stop stop-color="#184592"/>
<stop offset="0.19508" stop-color="#1D539C"/>
<stop offset="0.56681" stop-color="#2C79B7"/>
<stop offset="1" stop-color="#41ADDD"/>
</linearGradient>
<linearGradient id="paint9_linear_160_3" x1="1101.38" y1="960.298" x2="2403.9" y2="267.943" gradientUnits="userSpaceOnUse">
<stop stop-color="#184592"/>
<stop offset="0.19508" stop-color="#1D539C"/>
<stop offset="0.56681" stop-color="#2C79B7"/>
<stop offset="1" stop-color="#41ADDD"/>
</linearGradient>
<linearGradient id="paint10_linear_160_3" x1="1070.55" y1="990.139" x2="2419.63" y2="273.038" gradientUnits="userSpaceOnUse">
<stop stop-color="#184592"/>
<stop offset="0.19508" stop-color="#1D539C"/>
<stop offset="0.56681" stop-color="#2C79B7"/>
<stop offset="1" stop-color="#41ADDD"/>
</linearGradient>
<linearGradient id="paint11_linear_160_3" x1="1039.72" y1="1019.98" x2="2435.34" y2="278.133" gradientUnits="userSpaceOnUse">
<stop stop-color="#184592"/>
<stop offset="0.19508" stop-color="#1D539C"/>
<stop offset="0.56681" stop-color="#2C79B7"/>
<stop offset="1" stop-color="#41ADDD"/>
</linearGradient>
<linearGradient id="paint12_linear_160_3" x1="1008.88" y1="1049.82" x2="2451.06" y2="283.229" gradientUnits="userSpaceOnUse">
<stop stop-color="#184592"/>
<stop offset="0.19508" stop-color="#1D539C"/>
<stop offset="0.56681" stop-color="#2C79B7"/>
<stop offset="1" stop-color="#41ADDD"/>
</linearGradient>
<linearGradient id="paint13_linear_160_3" x1="978.05" y1="1079.66" x2="2466.78" y2="288.325" gradientUnits="userSpaceOnUse">
<stop stop-color="#184592"/>
<stop offset="0.19508" stop-color="#1D539C"/>
<stop offset="0.56681" stop-color="#2C79B7"/>
<stop offset="1" stop-color="#41ADDD"/>
</linearGradient>
<linearGradient id="paint14_linear_160_3" x1="947.216" y1="1109.5" x2="2482.49" y2="293.422" gradientUnits="userSpaceOnUse">
<stop stop-color="#184592"/>
<stop offset="0.19508" stop-color="#1D539C"/>
<stop offset="0.56681" stop-color="#2C79B7"/>
<stop offset="1" stop-color="#41ADDD"/>
</linearGradient>
<linearGradient id="paint15_linear_160_3" x1="916.382" y1="1139.34" x2="2498.2" y2="298.519" gradientUnits="userSpaceOnUse">
<stop stop-color="#184592"/>
<stop offset="0.19508" stop-color="#1D539C"/>
<stop offset="0.56681" stop-color="#2C79B7"/>
<stop offset="1" stop-color="#41ADDD"/>
</linearGradient>
<linearGradient id="paint16_linear_160_3" x1="885.547" y1="1169.17" x2="2513.91" y2="303.615" gradientUnits="userSpaceOnUse">
<stop stop-color="#184592"/>
<stop offset="0.19508" stop-color="#1D539C"/>
<stop offset="0.56681" stop-color="#2C79B7"/>
<stop offset="1" stop-color="#41ADDD"/>
</linearGradient>
<linearGradient id="paint17_linear_160_3" x1="854.713" y1="1199.01" x2="2529.63" y2="308.712" gradientUnits="userSpaceOnUse">
<stop stop-color="#184592"/>
<stop offset="0.19508" stop-color="#1D539C"/>
<stop offset="0.56681" stop-color="#2C79B7"/>
<stop offset="1" stop-color="#41ADDD"/>
</linearGradient>
<linearGradient id="paint18_linear_160_3" x1="-28.6396" y1="-343.614" x2="703.675" y2="973.928" gradientUnits="userSpaceOnUse">
<stop stop-color="#184592"/>
<stop offset="0.19508" stop-color="#1D539C"/>
<stop offset="0.56681" stop-color="#2C79B7"/>
<stop offset="1" stop-color="#41ADDD"/>
</linearGradient>
<linearGradient id="paint19_linear_160_3" x1="-38.1304" y1="-364.558" x2="700.539" y2="964.418" gradientUnits="userSpaceOnUse">
<stop stop-color="#184592"/>
<stop offset="0.19508" stop-color="#1D539C"/>
<stop offset="0.56681" stop-color="#2C79B7"/>
<stop offset="1" stop-color="#41ADDD"/>
</linearGradient>
<linearGradient id="paint20_linear_160_3" x1="-47.3484" y1="-386.036" x2="697.834" y2="954.657" gradientUnits="userSpaceOnUse">
<stop stop-color="#184592"/>
<stop offset="0.19508" stop-color="#1D539C"/>
<stop offset="0.56681" stop-color="#2C79B7"/>
<stop offset="1" stop-color="#41ADDD"/>
</linearGradient>
<linearGradient id="paint21_linear_160_3" x1="-55.9939" y1="-407.832" x2="695.7" y2="944.576" gradientUnits="userSpaceOnUse">
<stop stop-color="#184592"/>
<stop offset="0.19508" stop-color="#1D539C"/>
<stop offset="0.56681" stop-color="#2C79B7"/>
<stop offset="1" stop-color="#41ADDD"/>
</linearGradient>
<linearGradient id="paint22_linear_160_3" x1="-63.9841" y1="-429.992" x2="694.223" y2="934.134" gradientUnits="userSpaceOnUse">
<stop stop-color="#184592"/>
<stop offset="0.19508" stop-color="#1D539C"/>
<stop offset="0.56681" stop-color="#2C79B7"/>
<stop offset="1" stop-color="#41ADDD"/>
</linearGradient>
<linearGradient id="paint23_linear_160_3" x1="-71.315" y1="-452.519" x2="693.408" y2="923.33" gradientUnits="userSpaceOnUse">
<stop stop-color="#184592"/>
<stop offset="0.19508" stop-color="#1D539C"/>
<stop offset="0.56681" stop-color="#2C79B7"/>
<stop offset="1" stop-color="#41ADDD"/>
</linearGradient>
<linearGradient id="paint24_linear_160_3" x1="-70.7321" y1="-479.444" x2="700.509" y2="908.133" gradientUnits="userSpaceOnUse">
<stop stop-color="#184592"/>
<stop offset="0.19508" stop-color="#1D539C"/>
<stop offset="0.56681" stop-color="#2C79B7"/>
<stop offset="1" stop-color="#41ADDD"/>
</linearGradient>
<linearGradient id="paint25_linear_160_3" x1="-65.6219" y1="-508.886" x2="712.141" y2="890.424" gradientUnits="userSpaceOnUse">
<stop stop-color="#184592"/>
<stop offset="0.19508" stop-color="#1D539C"/>
<stop offset="0.56681" stop-color="#2C79B7"/>
<stop offset="1" stop-color="#41ADDD"/>
</linearGradient>
<linearGradient id="paint26_linear_160_3" x1="-60.9068" y1="-538.107" x2="723.379" y2="872.939" gradientUnits="userSpaceOnUse">
<stop stop-color="#184592"/>
<stop offset="0.19508" stop-color="#1D539C"/>
<stop offset="0.56681" stop-color="#2C79B7"/>
<stop offset="1" stop-color="#41ADDD"/>
</linearGradient>
<linearGradient id="paint27_linear_160_3" x1="-66.3891" y1="-561.662" x2="724.422" y2="861.124" gradientUnits="userSpaceOnUse">
<stop stop-color="#184592"/>
<stop offset="0.19508" stop-color="#1D539C"/>
<stop offset="0.56681" stop-color="#2C79B7"/>
<stop offset="1" stop-color="#41ADDD"/>
</linearGradient>
<linearGradient id="paint28_linear_160_3" x1="-71.9136" y1="-585.192" x2="725.424" y2="849.335" gradientUnits="userSpaceOnUse">
<stop stop-color="#184592"/>
<stop offset="0.19508" stop-color="#1D539C"/>
<stop offset="0.56681" stop-color="#2C79B7"/>
<stop offset="1" stop-color="#41ADDD"/>
</linearGradient>
<linearGradient id="paint29_linear_160_3" x1="-77.4871" y1="-608.696" x2="726.378" y2="837.576" gradientUnits="userSpaceOnUse">
<stop stop-color="#184592"/>
<stop offset="0.19508" stop-color="#1D539C"/>
<stop offset="0.56681" stop-color="#2C79B7"/>
<stop offset="1" stop-color="#41ADDD"/>
</linearGradient>
<linearGradient id="paint30_linear_160_3" x1="-83.1148" y1="-632.169" x2="727.279" y2="825.849" gradientUnits="userSpaceOnUse">
<stop stop-color="#184592"/>
<stop offset="0.19508" stop-color="#1D539C"/>
<stop offset="0.56681" stop-color="#2C79B7"/>
<stop offset="1" stop-color="#41ADDD"/>
</linearGradient>
<linearGradient id="paint31_linear_160_3" x1="-88.7999" y1="-655.61" x2="728.123" y2="814.154" gradientUnits="userSpaceOnUse">
<stop stop-color="#184592"/>
<stop offset="0.19508" stop-color="#1D539C"/>
<stop offset="0.56681" stop-color="#2C79B7"/>
<stop offset="1" stop-color="#41ADDD"/>
</linearGradient>
<linearGradient id="paint32_linear_160_3" x1="-94.5346" y1="-679.024" x2="728.922" y2="802.496" gradientUnits="userSpaceOnUse">
<stop stop-color="#184592"/>
<stop offset="0.19508" stop-color="#1D539C"/>
<stop offset="0.56681" stop-color="#2C79B7"/>
<stop offset="1" stop-color="#41ADDD"/>
</linearGradient>
<linearGradient id="paint33_linear_160_3" x1="-101.147" y1="-701.95" x2="728.847" y2="791.332" gradientUnits="userSpaceOnUse">
<stop stop-color="#184592"/>
<stop offset="0.19508" stop-color="#1D539C"/>
<stop offset="0.56681" stop-color="#2C79B7"/>
<stop offset="1" stop-color="#41ADDD"/>
</linearGradient>
<linearGradient id="paint34_linear_160_3" x1="-115.875" y1="-720.366" x2="720.657" y2="784.678" gradientUnits="userSpaceOnUse">
<stop stop-color="#184592"/>
<stop offset="0.19508" stop-color="#1D539C"/>
<stop offset="0.56681" stop-color="#2C79B7"/>
<stop offset="1" stop-color="#41ADDD"/>
</linearGradient>
<linearGradient id="paint35_linear_160_3" x1="-130.575" y1="-738.796" x2="712.493" y2="778.008" gradientUnits="userSpaceOnUse">
<stop stop-color="#184592"/>
<stop offset="0.19508" stop-color="#1D539C"/>
<stop offset="0.56681" stop-color="#2C79B7"/>
<stop offset="1" stop-color="#41ADDD"/>
</linearGradient>
<linearGradient id="paint36_linear_160_3" x1="-727.755" y1="1200.26" x2="900.525" y2="160.042" gradientUnits="userSpaceOnUse">
<stop stop-color="#184592"/>
<stop offset="0.19508" stop-color="#1D539C"/>
<stop offset="0.56681" stop-color="#2C79B7"/>
<stop offset="1" stop-color="#41ADDD"/>
</linearGradient>
<linearGradient id="paint37_linear_160_3" x1="-749.094" y1="1216.89" x2="889.756" y2="169.921" gradientUnits="userSpaceOnUse">
<stop stop-color="#184592"/>
<stop offset="0.19508" stop-color="#1D539C"/>
<stop offset="0.56681" stop-color="#2C79B7"/>
<stop offset="1" stop-color="#41ADDD"/>
</linearGradient>
<linearGradient id="paint38_linear_160_3" x1="-770.242" y1="1234.36" x2="879.415" y2="180.491" gradientUnits="userSpaceOnUse">
<stop stop-color="#184592"/>
<stop offset="0.19508" stop-color="#1D539C"/>
<stop offset="0.56681" stop-color="#2C79B7"/>
<stop offset="1" stop-color="#41ADDD"/>
</linearGradient>
<linearGradient id="paint39_linear_160_3" x1="-790.914" y1="1252.58" x2="869.547" y2="191.806" gradientUnits="userSpaceOnUse">
<stop stop-color="#184592"/>
<stop offset="0.19508" stop-color="#1D539C"/>
<stop offset="0.56681" stop-color="#2C79B7"/>
<stop offset="1" stop-color="#41ADDD"/>
</linearGradient>
<linearGradient id="paint40_linear_160_3" x1="-810.611" y1="1272.32" x2="860.657" y2="204.646" gradientUnits="userSpaceOnUse">
<stop stop-color="#184592"/>
<stop offset="0.19508" stop-color="#1D539C"/>
<stop offset="0.56681" stop-color="#2C79B7"/>
<stop offset="1" stop-color="#41ADDD"/>
</linearGradient>
<linearGradient id="paint41_linear_160_3" x1="-821.326" y1="1306.13" x2="860.755" y2="231.544" gradientUnits="userSpaceOnUse">
<stop stop-color="#184592"/>
<stop offset="0.19508" stop-color="#1D539C"/>
<stop offset="0.56681" stop-color="#2C79B7"/>
<stop offset="1" stop-color="#41ADDD"/>
</linearGradient>
<linearGradient id="paint42_linear_160_3" x1="-832.059" y1="1339.9" x2="860.838" y2="258.407" gradientUnits="userSpaceOnUse">
<stop stop-color="#184592"/>
<stop offset="0.19508" stop-color="#1D539C"/>
<stop offset="0.56681" stop-color="#2C79B7"/>
<stop offset="1" stop-color="#41ADDD"/>
</linearGradient>
<linearGradient id="paint43_linear_160_3" x1="-842.819" y1="1373.64" x2="860.9" y2="285.229" gradientUnits="userSpaceOnUse">
<stop stop-color="#184592"/>
<stop offset="0.19508" stop-color="#1D539C"/>
<stop offset="0.56681" stop-color="#2C79B7"/>
<stop offset="1" stop-color="#41ADDD"/>
</linearGradient>
<linearGradient id="paint44_linear_160_3" x1="-853.62" y1="1407.31" x2="860.924" y2="311.983" gradientUnits="userSpaceOnUse">
<stop stop-color="#184592"/>
<stop offset="0.19508" stop-color="#1D539C"/>
<stop offset="0.56681" stop-color="#2C79B7"/>
<stop offset="1" stop-color="#41ADDD"/>
</linearGradient>
<linearGradient id="paint45_linear_160_3" x1="-864.517" y1="1440.82" x2="860.855" y2="338.585" gradientUnits="userSpaceOnUse">
<stop stop-color="#184592"/>
<stop offset="0.19508" stop-color="#1D539C"/>
<stop offset="0.56681" stop-color="#2C79B7"/>
<stop offset="1" stop-color="#41ADDD"/>
</linearGradient>
<linearGradient id="paint46_linear_160_3" x1="-881.726" y1="1464.46" x2="854.476" y2="355.304" gradientUnits="userSpaceOnUse">
<stop stop-color="#184592"/>
<stop offset="0.19508" stop-color="#1D539C"/>
<stop offset="0.56681" stop-color="#2C79B7"/>
<stop offset="1" stop-color="#41ADDD"/>
</linearGradient>
<linearGradient id="paint47_linear_160_3" x1="-900.962" y1="1484.93" x2="846.071" y2="368.85" gradientUnits="userSpaceOnUse">
<stop stop-color="#184592"/>
<stop offset="0.19508" stop-color="#1D539C"/>
<stop offset="0.56681" stop-color="#2C79B7"/>
<stop offset="1" stop-color="#41ADDD"/>
</linearGradient>
<linearGradient id="paint48_linear_160_3" x1="-921.952" y1="1502.65" x2="835.915" y2="379.65" gradientUnits="userSpaceOnUse">
<stop stop-color="#184592"/>
<stop offset="0.19508" stop-color="#1D539C"/>
<stop offset="0.56681" stop-color="#2C79B7"/>
<stop offset="1" stop-color="#41ADDD"/>
</linearGradient>
<linearGradient id="paint49_linear_160_3" x1="-948.533" y1="1511.62" x2="820.168" y2="381.695" gradientUnits="userSpaceOnUse">
<stop stop-color="#184592"/>
<stop offset="0.19508" stop-color="#1D539C"/>
<stop offset="0.56681" stop-color="#2C79B7"/>
<stop offset="1" stop-color="#41ADDD"/>
</linearGradient>
<linearGradient id="paint50_linear_160_3" x1="-975.116" y1="1520.58" x2="804.421" y2="383.74" gradientUnits="userSpaceOnUse">
<stop stop-color="#184592"/>
<stop offset="0.19508" stop-color="#1D539C"/>
<stop offset="0.56681" stop-color="#2C79B7"/>
<stop offset="1" stop-color="#41ADDD"/>
</linearGradient>
<linearGradient id="paint51_linear_160_3" x1="-1001.7" y1="1529.55" x2="788.676" y2="385.784" gradientUnits="userSpaceOnUse">
<stop stop-color="#184592"/>
<stop offset="0.19508" stop-color="#1D539C"/>
<stop offset="0.56681" stop-color="#2C79B7"/>
<stop offset="1" stop-color="#41ADDD"/>
</linearGradient>
<linearGradient id="paint52_linear_160_3" x1="-1028.28" y1="1538.52" x2="772.931" y2="387.827" gradientUnits="userSpaceOnUse">
<stop stop-color="#184592"/>
<stop offset="0.19508" stop-color="#1D539C"/>
<stop offset="0.56681" stop-color="#2C79B7"/>
<stop offset="1" stop-color="#41ADDD"/>
</linearGradient>
<linearGradient id="paint53_linear_160_3" x1="-1054.86" y1="1547.48" x2="757.187" y2="389.871" gradientUnits="userSpaceOnUse">
<stop stop-color="#184592"/>
<stop offset="0.19508" stop-color="#1D539C"/>
<stop offset="0.56681" stop-color="#2C79B7"/>
<stop offset="1" stop-color="#41ADDD"/>
</linearGradient>
</defs>
</svg>
